<mxfile host="Electron" agent="Mozilla/5.0 (X11; Linux x86_64) AppleWebKit/537.36 (KHTML, like Gecko) draw.io/24.7.5 Chrome/126.0.6478.234 Electron/31.4.0 Safari/537.36" version="24.7.5">
  <diagram name="Page-1" id="nOEkXluZX00q_OalL2ZF">
    <mxGraphModel dx="2390" dy="1392" grid="1" gridSize="10" guides="1" tooltips="1" connect="1" arrows="1" fold="1" page="1" pageScale="1" pageWidth="3300" pageHeight="2339" math="0" shadow="0">
      <root>
        <mxCell id="0" />
        <mxCell id="1" parent="0" />
        <mxCell id="65RkAOsDKsX3T-Qq1aAm-163" value="Runtime (Userspace)" style="rounded=0;whiteSpace=wrap;html=1;verticalAlign=top;fontSize=20;fontStyle=1" vertex="1" parent="1">
          <mxGeometry x="1240" y="890" width="1580" height="540" as="geometry" />
        </mxCell>
        <mxCell id="65RkAOsDKsX3T-Qq1aAm-153" value="Tramsport[] =" style="rounded=0;whiteSpace=wrap;html=1;fillColor=#CCE5FF;strokeColor=#3399FF;fontSize=16;verticalAlign=top;fontColor=#004C99;" vertex="1" parent="1">
          <mxGeometry x="1290" y="940" width="830" height="460" as="geometry" />
        </mxCell>
        <mxCell id="65RkAOsDKsX3T-Qq1aAm-3" value="" style="shape=image;verticalLabelPosition=bottom;labelBackgroundColor=default;verticalAlign=top;aspect=fixed;imageAspect=0;image=https://raw.githubusercontent.com/eclipse-zenoh/zenoh/master/zenoh-dragon.png;" vertex="1" parent="1">
          <mxGeometry x="1787.2581725" y="890" width="135.49" height="35" as="geometry" />
        </mxCell>
        <mxCell id="65RkAOsDKsX3T-Qq1aAm-25" value="Transport 2" style="rounded=0;whiteSpace=wrap;html=1;fillColor=#99CCFF;strokeColor=none;fontSize=16;fontColor=#004C99;" vertex="1" parent="1">
          <mxGeometry x="1780" y="980" width="150" height="390" as="geometry" />
        </mxCell>
        <mxCell id="65RkAOsDKsX3T-Qq1aAm-27" value="Transport 3" style="rounded=0;whiteSpace=wrap;html=1;fillColor=#99CCFF;strokeColor=none;fontSize=16;fontColor=#004C99;" vertex="1" parent="1">
          <mxGeometry x="1950" y="980" width="150" height="390" as="geometry" />
        </mxCell>
        <mxCell id="65RkAOsDKsX3T-Qq1aAm-81" value="re" style="group;fillColor=none;fontColor=#004C99;strokeColor=none;" vertex="1" connectable="0" parent="1">
          <mxGeometry x="1320" y="980" width="450" height="390" as="geometry" />
        </mxCell>
        <mxCell id="65RkAOsDKsX3T-Qq1aAm-12" value="Transport 1" style="rounded=0;whiteSpace=wrap;html=1;fillColor=#99CCFF;strokeColor=none;fontSize=16;verticalAlign=top;fontColor=#004C99;" vertex="1" parent="65RkAOsDKsX3T-Qq1aAm-81">
          <mxGeometry width="450" height="390" as="geometry" />
        </mxCell>
        <mxCell id="65RkAOsDKsX3T-Qq1aAm-55" value="TX" style="rounded=0;whiteSpace=wrap;html=1;fillColor=#66B2FF;strokeColor=#007FFF;fontSize=16;verticalAlign=top;fontColor=#004C99;" vertex="1" parent="65RkAOsDKsX3T-Qq1aAm-81">
          <mxGeometry x="20" y="40" width="170" height="150" as="geometry" />
        </mxCell>
        <mxCell id="65RkAOsDKsX3T-Qq1aAm-63" value="" style="group;fontColor=#004C99;" vertex="1" connectable="0" parent="65RkAOsDKsX3T-Qq1aAm-81">
          <mxGeometry x="29" y="110" width="151" height="49" as="geometry" />
        </mxCell>
        <mxCell id="65RkAOsDKsX3T-Qq1aAm-56" value="&lt;div&gt;Seq Num Counters&lt;/div&gt;sn[] =&amp;nbsp;" style="rounded=1;whiteSpace=wrap;html=1;fillColor=none;strokeColor=#0066CC;strokeWidth=2;verticalAlign=top;fontColor=#004C99;align=left;" vertex="1" parent="65RkAOsDKsX3T-Qq1aAm-63">
          <mxGeometry width="151" height="49" as="geometry" />
        </mxCell>
        <mxCell id="65RkAOsDKsX3T-Qq1aAm-57" value="sn0" style="shape=card;whiteSpace=wrap;html=1;size=8;fillColor=#3399FF;strokeColor=#004C99;fontColor=#004C99;" vertex="1" parent="65RkAOsDKsX3T-Qq1aAm-63">
          <mxGeometry x="37.26999999999998" y="24" width="30" height="20" as="geometry" />
        </mxCell>
        <mxCell id="65RkAOsDKsX3T-Qq1aAm-58" value="..." style="shape=card;whiteSpace=wrap;html=1;size=8;fillColor=#3399FF;strokeColor=#004C99;fontColor=#004C99;" vertex="1" parent="65RkAOsDKsX3T-Qq1aAm-63">
          <mxGeometry x="70" y="24" width="30" height="20" as="geometry" />
        </mxCell>
        <mxCell id="65RkAOsDKsX3T-Qq1aAm-59" value="sn7" style="shape=card;whiteSpace=wrap;html=1;size=8;fillColor=#3399FF;strokeColor=#004C99;fontColor=#004C99;" vertex="1" parent="65RkAOsDKsX3T-Qq1aAm-63">
          <mxGeometry x="103" y="24" width="30" height="20" as="geometry" />
        </mxCell>
        <mxCell id="65RkAOsDKsX3T-Qq1aAm-64" value="RX" style="rounded=0;whiteSpace=wrap;html=1;fillColor=#66B2FF;strokeColor=#007FFF;fontSize=16;verticalAlign=top;fontColor=#004C99;" vertex="1" parent="65RkAOsDKsX3T-Qq1aAm-81">
          <mxGeometry x="230.5" y="40" width="189.5" height="150" as="geometry" />
        </mxCell>
        <mxCell id="65RkAOsDKsX3T-Qq1aAm-66" value="" style="group;fontColor=#004C99;" vertex="1" connectable="0" parent="65RkAOsDKsX3T-Qq1aAm-81">
          <mxGeometry x="240" y="70" width="170" height="49" as="geometry" />
        </mxCell>
        <mxCell id="65RkAOsDKsX3T-Qq1aAm-67" value="&lt;div&gt;Seq Num Counters&lt;/div&gt;sn[] =&amp;nbsp;" style="rounded=1;whiteSpace=wrap;html=1;fillColor=none;strokeColor=#0066CC;strokeWidth=2;verticalAlign=top;fontColor=#004C99;align=left;" vertex="1" parent="65RkAOsDKsX3T-Qq1aAm-66">
          <mxGeometry width="170" height="49" as="geometry" />
        </mxCell>
        <mxCell id="65RkAOsDKsX3T-Qq1aAm-76" value="sn0" style="shape=card;whiteSpace=wrap;html=1;size=8;fillColor=#3399FF;strokeColor=#004C99;fontColor=#004C99;" vertex="1" parent="65RkAOsDKsX3T-Qq1aAm-66">
          <mxGeometry x="60" y="20" width="30" height="20" as="geometry" />
        </mxCell>
        <mxCell id="65RkAOsDKsX3T-Qq1aAm-77" value="..." style="shape=card;whiteSpace=wrap;html=1;size=8;fillColor=#3399FF;strokeColor=#004C99;fontColor=#004C99;" vertex="1" parent="65RkAOsDKsX3T-Qq1aAm-66">
          <mxGeometry x="92.73000000000002" y="20" width="30" height="20" as="geometry" />
        </mxCell>
        <mxCell id="65RkAOsDKsX3T-Qq1aAm-78" value="sn7" style="shape=card;whiteSpace=wrap;html=1;size=8;fillColor=#3399FF;strokeColor=#004C99;fontColor=#004C99;" vertex="1" parent="65RkAOsDKsX3T-Qq1aAm-66">
          <mxGeometry x="125.73000000000002" y="20" width="30" height="20" as="geometry" />
        </mxCell>
        <mxCell id="65RkAOsDKsX3T-Qq1aAm-72" value="&lt;div&gt;Defrag Buffers&lt;/div&gt;defrag[] =&amp;nbsp;" style="rounded=1;whiteSpace=wrap;html=1;fillColor=none;strokeColor=#0066CC;strokeWidth=2;verticalAlign=top;fontColor=#004C99;align=left;" vertex="1" parent="65RkAOsDKsX3T-Qq1aAm-81">
          <mxGeometry x="240" y="130" width="170" height="49" as="geometry" />
        </mxCell>
        <mxCell id="65RkAOsDKsX3T-Qq1aAm-73" value="bf0" style="shape=card;whiteSpace=wrap;html=1;size=8;fillColor=#3399FF;strokeColor=#004C99;fontColor=#004C99;" vertex="1" parent="65RkAOsDKsX3T-Qq1aAm-81">
          <mxGeometry x="302" y="154" width="30" height="20" as="geometry" />
        </mxCell>
        <mxCell id="65RkAOsDKsX3T-Qq1aAm-74" value="..." style="shape=card;whiteSpace=wrap;html=1;size=8;fillColor=#3399FF;strokeColor=#004C99;fontColor=#004C99;" vertex="1" parent="65RkAOsDKsX3T-Qq1aAm-81">
          <mxGeometry x="334.73" y="154" width="30" height="20" as="geometry" />
        </mxCell>
        <mxCell id="65RkAOsDKsX3T-Qq1aAm-75" value="bf7" style="shape=card;whiteSpace=wrap;html=1;size=8;fillColor=#3399FF;strokeColor=#004C99;fontColor=#004C99;" vertex="1" parent="65RkAOsDKsX3T-Qq1aAm-81">
          <mxGeometry x="367.73" y="154" width="30" height="20" as="geometry" />
        </mxCell>
        <mxCell id="65RkAOsDKsX3T-Qq1aAm-80" value="" style="group;fontColor=#004C99;" vertex="1" connectable="0" parent="65RkAOsDKsX3T-Qq1aAm-81">
          <mxGeometry x="40" y="210" width="360" height="170" as="geometry" />
        </mxCell>
        <mxCell id="65RkAOsDKsX3T-Qq1aAm-40" value="Links[] =&amp;nbsp;" style="rounded=1;whiteSpace=wrap;html=1;fillColor=none;strokeColor=#0066CC;strokeWidth=2;verticalAlign=top;fontColor=#004C99;" vertex="1" parent="65RkAOsDKsX3T-Qq1aAm-80">
          <mxGeometry width="360" height="170" as="geometry" />
        </mxCell>
        <mxCell id="65RkAOsDKsX3T-Qq1aAm-52" value="..." style="rounded=0;whiteSpace=wrap;html=1;fillColor=#66B2FF;strokeColor=#007FFF;fontSize=16;verticalAlign=top;fontColor=#004C99;" vertex="1" parent="65RkAOsDKsX3T-Qq1aAm-80">
          <mxGeometry x="230" y="30" width="50" height="140" as="geometry" />
        </mxCell>
        <mxCell id="65RkAOsDKsX3T-Qq1aAm-54" value="Link N" style="rounded=0;whiteSpace=wrap;html=1;fillColor=#66B2FF;strokeColor=#007FFF;fontSize=16;verticalAlign=top;fontColor=#004C99;" vertex="1" parent="65RkAOsDKsX3T-Qq1aAm-80">
          <mxGeometry x="290" y="30" width="50" height="140" as="geometry" />
        </mxCell>
        <mxCell id="65RkAOsDKsX3T-Qq1aAm-79" value="" style="group;fontColor=#004C99;" vertex="1" connectable="0" parent="65RkAOsDKsX3T-Qq1aAm-80">
          <mxGeometry x="20" y="30" width="200" height="140" as="geometry" />
        </mxCell>
        <mxCell id="65RkAOsDKsX3T-Qq1aAm-39" value="Link 0" style="rounded=0;whiteSpace=wrap;html=1;fillColor=#66B2FF;strokeColor=#007FFF;fontSize=16;verticalAlign=top;fontColor=#004C99;" vertex="1" parent="65RkAOsDKsX3T-Qq1aAm-79">
          <mxGeometry width="200" height="140" as="geometry" />
        </mxCell>
        <mxCell id="65RkAOsDKsX3T-Qq1aAm-41" value="{TCP/UDP/...} Link" style="rounded=0;whiteSpace=wrap;html=1;fillColor=#3399FF;strokeColor=#004C99;fontSize=14;verticalAlign=top;fontColor=#004C99;" vertex="1" parent="65RkAOsDKsX3T-Qq1aAm-79">
          <mxGeometry x="27.460000000000036" y="110" width="145.08" height="30" as="geometry" />
        </mxCell>
        <mxCell id="65RkAOsDKsX3T-Qq1aAm-51" value="" style="group;fontColor=#004C99;" vertex="1" connectable="0" parent="65RkAOsDKsX3T-Qq1aAm-79">
          <mxGeometry x="26.269999999999982" y="43" width="147.46000000000004" height="50" as="geometry" />
        </mxCell>
        <mxCell id="65RkAOsDKsX3T-Qq1aAm-36" value="Q0" style="shape=cylinder3;whiteSpace=wrap;html=1;boundedLbl=1;backgroundOutline=1;size=6.666666666666515;fillColor=#3399FF;fontColor=#004C99;strokeColor=#004C99;" vertex="1" parent="65RkAOsDKsX3T-Qq1aAm-51">
          <mxGeometry width="30" height="50" as="geometry" />
        </mxCell>
        <mxCell id="65RkAOsDKsX3T-Qq1aAm-48" value="Q1" style="shape=cylinder3;whiteSpace=wrap;html=1;boundedLbl=1;backgroundOutline=1;size=6.666666666666515;fillColor=#3399FF;fontColor=#004C99;strokeColor=#004C99;" vertex="1" parent="65RkAOsDKsX3T-Qq1aAm-51">
          <mxGeometry x="37.460000000000036" width="30" height="50" as="geometry" />
        </mxCell>
        <mxCell id="65RkAOsDKsX3T-Qq1aAm-49" value="..." style="shape=cylinder3;whiteSpace=wrap;html=1;boundedLbl=1;backgroundOutline=1;size=6.666666666666515;fillColor=#3399FF;fontColor=#004C99;strokeColor=#004C99;" vertex="1" parent="65RkAOsDKsX3T-Qq1aAm-51">
          <mxGeometry x="77.46000000000004" width="30" height="50" as="geometry" />
        </mxCell>
        <mxCell id="65RkAOsDKsX3T-Qq1aAm-50" value="Q7" style="shape=cylinder3;whiteSpace=wrap;html=1;boundedLbl=1;backgroundOutline=1;size=6.666666666666515;fillColor=#3399FF;fontColor=#004C99;strokeColor=#004C99;" vertex="1" parent="65RkAOsDKsX3T-Qq1aAm-51">
          <mxGeometry x="117.46000000000004" width="30" height="50" as="geometry" />
        </mxCell>
        <mxCell id="65RkAOsDKsX3T-Qq1aAm-164" value="Linux Kernel" style="rounded=0;whiteSpace=wrap;html=1;fillColor=#f5f5f5;verticalAlign=top;fontColor=#333333;strokeColor=#666666;align=center;fontSize=16;fontStyle=1" vertex="1" parent="1">
          <mxGeometry x="1240" y="1540" width="283" height="210" as="geometry" />
        </mxCell>
        <mxCell id="65RkAOsDKsX3T-Qq1aAm-181" style="edgeStyle=orthogonalEdgeStyle;rounded=0;orthogonalLoop=1;jettySize=auto;html=1;entryX=0.5;entryY=0;entryDx=0;entryDy=0;exitX=0.5;exitY=1;exitDx=0;exitDy=0;endArrow=none;endFill=0;" edge="1" parent="1" source="65RkAOsDKsX3T-Qq1aAm-183" target="65RkAOsDKsX3T-Qq1aAm-187">
          <mxGeometry relative="1" as="geometry" />
        </mxCell>
        <mxCell id="65RkAOsDKsX3T-Qq1aAm-182" value="Ethernet" style="edgeLabel;html=1;align=center;verticalAlign=middle;resizable=0;points=[];" vertex="1" connectable="0" parent="65RkAOsDKsX3T-Qq1aAm-181">
          <mxGeometry x="-0.3935" y="1" relative="1" as="geometry">
            <mxPoint as="offset" />
          </mxGeometry>
        </mxCell>
        <mxCell id="65RkAOsDKsX3T-Qq1aAm-183" value="NIC" style="rounded=0;whiteSpace=wrap;html=1;fillColor=#60a917;strokeColor=#2D7600;fontColor=#ffffff;" vertex="1" parent="1">
          <mxGeometry x="1383" y="1700" width="100" height="50" as="geometry" />
        </mxCell>
        <mxCell id="65RkAOsDKsX3T-Qq1aAm-184" value="driver queue" style="shape=cylinder3;whiteSpace=wrap;html=1;boundedLbl=1;backgroundOutline=1;size=8.857142857142776;fillColor=#E6E6E6;fontColor=#333333;strokeColor=#666666;" vertex="1" parent="1">
          <mxGeometry x="1412.4399999999998" y="1650" width="41.13" height="60" as="geometry" />
        </mxCell>
        <mxCell id="65RkAOsDKsX3T-Qq1aAm-185" style="edgeStyle=orthogonalEdgeStyle;rounded=0;orthogonalLoop=1;jettySize=auto;html=1;" edge="1" parent="1" source="65RkAOsDKsX3T-Qq1aAm-186" target="65RkAOsDKsX3T-Qq1aAm-184">
          <mxGeometry relative="1" as="geometry" />
        </mxCell>
        <mxCell id="65RkAOsDKsX3T-Qq1aAm-186" value="qdisc" style="rounded=0;whiteSpace=wrap;html=1;fillColor=#E6E6E6;" vertex="1" parent="1">
          <mxGeometry x="1393" y="1600" width="80" height="30" as="geometry" />
        </mxCell>
        <mxCell id="65RkAOsDKsX3T-Qq1aAm-187" value="WiFi AP" style="image;html=1;image=img/lib/clip_art/networking/Wireless_Router_N_128x128.png" vertex="1" parent="1">
          <mxGeometry x="1393" y="1810" width="80" height="80" as="geometry" />
        </mxCell>
        <mxCell id="65RkAOsDKsX3T-Qq1aAm-165" style="edgeStyle=orthogonalEdgeStyle;rounded=0;orthogonalLoop=1;jettySize=auto;html=1;entryX=0.5;entryY=0;entryDx=0;entryDy=0;exitX=0.5;exitY=1;exitDx=0;exitDy=0;endArrow=none;endFill=0;" edge="1" parent="1" source="65RkAOsDKsX3T-Qq1aAm-167" target="65RkAOsDKsX3T-Qq1aAm-171">
          <mxGeometry relative="1" as="geometry" />
        </mxCell>
        <mxCell id="65RkAOsDKsX3T-Qq1aAm-166" value="Ethernet" style="edgeLabel;html=1;align=center;verticalAlign=middle;resizable=0;points=[];" vertex="1" connectable="0" parent="65RkAOsDKsX3T-Qq1aAm-165">
          <mxGeometry x="-0.3935" y="1" relative="1" as="geometry">
            <mxPoint as="offset" />
          </mxGeometry>
        </mxCell>
        <mxCell id="65RkAOsDKsX3T-Qq1aAm-167" value="NIC" style="rounded=0;whiteSpace=wrap;html=1;fillColor=#60a917;strokeColor=#2D7600;fontColor=#ffffff;" vertex="1" parent="1">
          <mxGeometry x="1246.8700000000001" y="1700" width="100" height="50" as="geometry" />
        </mxCell>
        <mxCell id="65RkAOsDKsX3T-Qq1aAm-168" value="driver queue" style="shape=cylinder3;whiteSpace=wrap;html=1;boundedLbl=1;backgroundOutline=1;size=8.857142857142776;fillColor=#E6E6E6;fontColor=#333333;strokeColor=#666666;" vertex="1" parent="1">
          <mxGeometry x="1276.31" y="1650" width="41.13" height="60" as="geometry" />
        </mxCell>
        <mxCell id="65RkAOsDKsX3T-Qq1aAm-169" style="edgeStyle=orthogonalEdgeStyle;rounded=0;orthogonalLoop=1;jettySize=auto;html=1;" edge="1" parent="1" source="65RkAOsDKsX3T-Qq1aAm-170" target="65RkAOsDKsX3T-Qq1aAm-168">
          <mxGeometry relative="1" as="geometry" />
        </mxCell>
        <mxCell id="65RkAOsDKsX3T-Qq1aAm-170" value="qdisc" style="rounded=0;whiteSpace=wrap;html=1;fillColor=#E6E6E6;" vertex="1" parent="1">
          <mxGeometry x="1256.8700000000001" y="1600" width="80" height="30" as="geometry" />
        </mxCell>
        <mxCell id="65RkAOsDKsX3T-Qq1aAm-171" value="5G UE" style="image;html=1;image=img/lib/clip_art/networking/Wireless_Router_N_128x128.png" vertex="1" parent="1">
          <mxGeometry x="1256.8700000000001" y="1810" width="80" height="80" as="geometry" />
        </mxCell>
        <mxCell id="65RkAOsDKsX3T-Qq1aAm-189" value="socket fd" style="rounded=0;whiteSpace=wrap;html=1;fillColor=#E6E6E6;" vertex="1" parent="1">
          <mxGeometry x="1440" y="1550" width="80" height="30" as="geometry" />
        </mxCell>
        <mxCell id="65RkAOsDKsX3T-Qq1aAm-190" style="edgeStyle=orthogonalEdgeStyle;rounded=0;orthogonalLoop=1;jettySize=auto;html=1;" edge="1" parent="1" source="65RkAOsDKsX3T-Qq1aAm-41" target="65RkAOsDKsX3T-Qq1aAm-189">
          <mxGeometry relative="1" as="geometry" />
        </mxCell>
        <mxCell id="65RkAOsDKsX3T-Qq1aAm-191" value="" style="group" vertex="1" connectable="0" parent="1">
          <mxGeometry x="2160" y="940" width="630" height="460" as="geometry" />
        </mxCell>
        <mxCell id="65RkAOsDKsX3T-Qq1aAm-83" value="Router" style="rounded=0;whiteSpace=wrap;html=1;fillColor=#CCE5FF;strokeColor=#3399FF;fontSize=16;verticalAlign=top;fontColor=#004C99;" vertex="1" parent="65RkAOsDKsX3T-Qq1aAm-191">
          <mxGeometry width="630" height="460" as="geometry" />
        </mxCell>
        <mxCell id="65RkAOsDKsX3T-Qq1aAm-135" value="" style="group;fontColor=#004C99;" vertex="1" connectable="0" parent="65RkAOsDKsX3T-Qq1aAm-191">
          <mxGeometry x="20" y="80" width="240" height="300" as="geometry" />
        </mxCell>
        <mxCell id="65RkAOsDKsX3T-Qq1aAm-114" value="HatCode[] =&amp;nbsp;" style="rounded=1;whiteSpace=wrap;html=1;fillColor=none;strokeColor=#0066CC;strokeWidth=2;verticalAlign=top;fontColor=#004C99;" vertex="1" parent="65RkAOsDKsX3T-Qq1aAm-135">
          <mxGeometry width="240" height="300" as="geometry" />
        </mxCell>
        <mxCell id="65RkAOsDKsX3T-Qq1aAm-128" value="" style="group;fontColor=#004C99;" vertex="1" connectable="0" parent="65RkAOsDKsX3T-Qq1aAm-135">
          <mxGeometry x="20" y="30" width="200" height="150" as="geometry" />
        </mxCell>
        <mxCell id="65RkAOsDKsX3T-Qq1aAm-118" value="Hat0" style="rounded=0;whiteSpace=wrap;html=1;fillColor=#66B2FF;strokeColor=#007FFF;fontSize=16;verticalAlign=top;fontColor=#004C99;" vertex="1" parent="65RkAOsDKsX3T-Qq1aAm-128">
          <mxGeometry width="200" height="150" as="geometry" />
        </mxCell>
        <mxCell id="65RkAOsDKsX3T-Qq1aAm-125" value="&lt;font style=&quot;font-size: 14px;&quot;&gt;declare_description()&lt;/font&gt;" style="rounded=0;whiteSpace=wrap;html=1;fillColor=#3399FF;strokeColor=#007FFF;fontSize=16;verticalAlign=top;fontColor=#004C99;" vertex="1" parent="65RkAOsDKsX3T-Qq1aAm-128">
          <mxGeometry x="15" y="30.5" width="170" height="30" as="geometry" />
        </mxCell>
        <mxCell id="65RkAOsDKsX3T-Qq1aAm-126" value="&lt;font style=&quot;font-size: 14px;&quot;&gt;undeclare_description()&lt;/font&gt;" style="rounded=0;whiteSpace=wrap;html=1;fillColor=#3399FF;strokeColor=#007FFF;fontSize=16;verticalAlign=top;fontColor=#004C99;" vertex="1" parent="65RkAOsDKsX3T-Qq1aAm-128">
          <mxGeometry x="15" y="70.5" width="170" height="30" as="geometry" />
        </mxCell>
        <mxCell id="65RkAOsDKsX3T-Qq1aAm-127" value="&lt;font style=&quot;font-size: 14px;&quot;&gt;compute_data_route()&lt;/font&gt;" style="rounded=0;whiteSpace=wrap;html=1;fillColor=#3399FF;strokeColor=#007FFF;fontSize=16;verticalAlign=top;fontColor=#004C99;" vertex="1" parent="65RkAOsDKsX3T-Qq1aAm-128">
          <mxGeometry x="15" y="110" width="170" height="30" as="geometry" />
        </mxCell>
        <mxCell id="65RkAOsDKsX3T-Qq1aAm-130" value="Hat1" style="rounded=0;whiteSpace=wrap;html=1;fillColor=#66B2FF;strokeColor=#007FFF;fontSize=16;verticalAlign=top;fontColor=#004C99;" vertex="1" parent="65RkAOsDKsX3T-Qq1aAm-135">
          <mxGeometry x="20" y="190" width="200" height="40" as="geometry" />
        </mxCell>
        <mxCell id="65RkAOsDKsX3T-Qq1aAm-134" value="..." style="rounded=0;whiteSpace=wrap;html=1;fillColor=#66B2FF;strokeColor=#007FFF;fontSize=16;verticalAlign=top;fontColor=#004C99;" vertex="1" parent="65RkAOsDKsX3T-Qq1aAm-135">
          <mxGeometry x="20" y="240" width="200" height="40" as="geometry" />
        </mxCell>
        <mxCell id="65RkAOsDKsX3T-Qq1aAm-147" value="" style="group;fontColor=#004C99;" vertex="1" connectable="0" parent="65RkAOsDKsX3T-Qq1aAm-191">
          <mxGeometry x="280" y="80" width="160" height="300" as="geometry" />
        </mxCell>
        <mxCell id="65RkAOsDKsX3T-Qq1aAm-137" value="Interceptor[] =&amp;nbsp;" style="rounded=1;whiteSpace=wrap;html=1;fillColor=none;strokeColor=#0066CC;strokeWidth=2;verticalAlign=top;fontColor=#004C99;" vertex="1" parent="65RkAOsDKsX3T-Qq1aAm-147">
          <mxGeometry width="160" height="300" as="geometry" />
        </mxCell>
        <mxCell id="65RkAOsDKsX3T-Qq1aAm-143" value="Interceptor0" style="rounded=0;whiteSpace=wrap;html=1;fillColor=#66B2FF;strokeColor=#007FFF;fontSize=16;verticalAlign=top;fontColor=#004C99;" vertex="1" parent="65RkAOsDKsX3T-Qq1aAm-147">
          <mxGeometry x="10" y="30" width="140" height="40" as="geometry" />
        </mxCell>
        <mxCell id="65RkAOsDKsX3T-Qq1aAm-145" value="Interceptor1" style="rounded=0;whiteSpace=wrap;html=1;fillColor=#66B2FF;strokeColor=#007FFF;fontSize=16;verticalAlign=top;fontColor=#004C99;" vertex="1" parent="65RkAOsDKsX3T-Qq1aAm-147">
          <mxGeometry x="10" y="80" width="140" height="40" as="geometry" />
        </mxCell>
        <mxCell id="65RkAOsDKsX3T-Qq1aAm-146" value="..." style="rounded=0;whiteSpace=wrap;html=1;fillColor=#66B2FF;strokeColor=#007FFF;fontSize=16;verticalAlign=top;fontColor=#004C99;" vertex="1" parent="65RkAOsDKsX3T-Qq1aAm-147">
          <mxGeometry x="10" y="130" width="140" height="40" as="geometry" />
        </mxCell>
        <mxCell id="65RkAOsDKsX3T-Qq1aAm-149" value="Face[] =&amp;nbsp;" style="rounded=1;whiteSpace=wrap;html=1;fillColor=none;strokeColor=#0066CC;strokeWidth=2;verticalAlign=top;fontColor=#004C99;" vertex="1" parent="65RkAOsDKsX3T-Qq1aAm-191">
          <mxGeometry x="450" y="80" width="160" height="300" as="geometry" />
        </mxCell>
        <mxCell id="65RkAOsDKsX3T-Qq1aAm-150" value="Face0" style="rounded=0;whiteSpace=wrap;html=1;fillColor=#66B2FF;strokeColor=#007FFF;fontSize=16;verticalAlign=top;fontColor=#004C99;" vertex="1" parent="65RkAOsDKsX3T-Qq1aAm-191">
          <mxGeometry x="460" y="110" width="140" height="90" as="geometry" />
        </mxCell>
        <mxCell id="65RkAOsDKsX3T-Qq1aAm-159" value="&lt;font style=&quot;font-size: 14px;&quot;&gt;Resources[]&lt;/font&gt;&lt;div&gt;&lt;font style=&quot;font-size: 14px;&quot;&gt;(subscriptions, etc)&lt;/font&gt;&lt;/div&gt;" style="rounded=0;whiteSpace=wrap;html=1;fillColor=#3399FF;strokeColor=#007FFF;fontSize=16;verticalAlign=top;fontColor=#004C99;" vertex="1" parent="65RkAOsDKsX3T-Qq1aAm-191">
          <mxGeometry x="470" y="140" width="120" height="50" as="geometry" />
        </mxCell>
        <mxCell id="65RkAOsDKsX3T-Qq1aAm-160" value="Face1" style="rounded=0;whiteSpace=wrap;html=1;fillColor=#66B2FF;strokeColor=#007FFF;fontSize=16;verticalAlign=top;fontColor=#004C99;" vertex="1" parent="65RkAOsDKsX3T-Qq1aAm-191">
          <mxGeometry x="460" y="210" width="140" height="40" as="geometry" />
        </mxCell>
        <mxCell id="65RkAOsDKsX3T-Qq1aAm-161" value="..." style="rounded=0;whiteSpace=wrap;html=1;fillColor=#66B2FF;strokeColor=#007FFF;fontSize=16;verticalAlign=top;fontColor=#004C99;" vertex="1" parent="65RkAOsDKsX3T-Qq1aAm-191">
          <mxGeometry x="460" y="260" width="140" height="40" as="geometry" />
        </mxCell>
        <mxCell id="65RkAOsDKsX3T-Qq1aAm-193" value="" style="shape=image;aspect=fixed;image=data:image/png,iVBORw0KGgoAAAANSUhEUgAAAZUAAAHgCAYAAABttPBJAAAABGdBTUEAALGPC/xhBQAAACBjSFJNAAB6JgAAgIQAAPoAAACA6AAAdTAAAOpgAAA6mAAAF3CculE8AAAABmJLR0QA/wD/AP+gvaeTAACAAElEQVR42ux9d5wcxZn2U1XdPWnzKmcJSUhCgEBIgDA5RxsDxgRj+4yNcz7neD7b5+OcOPvu4842NuCMszH4jAPBJuccRFJGWRsmdVd9f1RXd3VPT9g8u1uPfq2Zndmd0OF96nkjgYHB5MIMwFrEmFgoBFkEiDlCkKmUYooQ6AbQDcDxf7cdAAXQD6AIkB6Au4SQ3QBKnGMTIdgIkJcJ4Rs9j2wE3BcBbDG72WCygphdYDBxkdqPMXetEORQIXAoITgEQOcovPFOIfAgIXiQEPGQ57EHgdIzADxzTAwMqRgYjB/MZIydJAROAOgJgJjXRJ+tVwj8jRDyJ87J/wGlp8zhMjCkYmDQfJhDqf1aQsQFQmAdpLtqPFx6GwD+J0LwB8/zbgRQMIfSwJCKgcHYIMUYOw8gVwiBV40fIqmKvYD4BaXkh67r/g0AN4fYwJCKgcGII72QUvftAN4MYOoE/ZKbAPyEc3Y1UHzWHHMDQyoGBsOPBZSyjwPkzQDsSfKduRD4C6XiKs/zfmdOAQNDKgYGw6JMvM8C4hIA1qS9SAnuA8TXPM+7AUDZnBcGhlQMDAaGLKXWRwB8FEDa7I7gcn2ZEP5pz/OuAyDM/jAwpGJgUAeMsbOFwFUAWWD2RlXlcq/n4SOA+zezNwwMqRgYJGM6IdZ3CcGZZlc0BiHwWyHoR03Ni0FTLQzNLjAYa1iWdSpAbyIEh5q9MSDFsj8h4gpCaE4IfhtMxb6BUSoGkxxpStk3AHKF2RVDxoOckzcD5YfNrjAwSsVgMmImY9bNAHn15FYbpOGt3v4kBJcb1WJglIrBJIR9GKXi1wBmT1YiqXdfQQhR937l6+N+z7MuAAovmHPNwJCKwcSWxoy9TgjyfQCZyUwo+q2uRHRiUcQhhKh6vwZ2EyLe5Hneb81ZZzCq17jZBQajRyj2m4XADxDOK5m0hEIIAaUUlFIwxhJvKaVV3WBJJBRDBiCvJ4Q6QvC/mrPPwCgVg4lGKG8TQvw3xn/zxyGRir4p4tAJhFIaUSpq45xHNv25eqpFCPxCCPcyyGFjBgaGVAzGNyi13weIr0/m800pCp08GGOaOomSi04qnueBc3XLg1udXOoRCyG4x/PccwBsM2ekgSEVg3GsUNglQpDrJvu5luTyYozBstStFTymk4oiD8/z4LouXNeD53kRYlHkUo9YAPEC59bJQHG9OTMNDKkYjEdCOV0I8ltM4maQOqkkEYpt28HGmBUoF51UJIm4cF0X5XI5kVx0d1idAP4WzukpQOkxc4YaGFIxGEewD6NU/BVAi9kXqHB5SSKx4DgOHMeBZYXkQqlUNZJUpNurXC77Wym477pSvSjiGQCxvMI5PQEoPW6OjMFwwzK7wGAEMJtS8XtDKFFSibrASOD2siwbqVQKjiNJxbKswAWm1Ei5bKFUsmJZYeXgdwAErjCFGsQyjVJ+C+epY4HiM+boGBhSMWjqc4ox6ydCYLrZFdXJJVQtFmzbhuMoYnGC+IoiCuX2YqyYmGpcLkcdDg0SywxKvT9znj4WKDxvjoyBIRWDpgSl1pf9ufEGNYhFj69YliIWB6lUyo+vMBACCAGNVMJsMalkqrdvaZBY5lBa/hPnWAeTFWZgSMWg2cAYO0sIfMjsidoqpTITjEaIxXFCF5iMq9gol60IoRCCmj3B9Gww9TpVPtUixqzfeZ57PIA+c5QMDKkYNAumCUGugUn+GBTJhKqFaQF7GqgOy7IqCiXrNZr0PA+UUnDOaxKLEFhDiHW9EO55ALg5MgZDWlyaXWAwHKDU/i6AtWZP1CaQynRiqUyU6yuVcvxgve3HVpRCYREyUa8ppwoThHxRvelkLQIiBMsIoZYQ/C/maBkYpWIwtisTxs4UQlxo9kR9xDsNq5+TVYsVqBXP82o2m6y2KahaltquMHyCMfaI53k/M0fKwJCKwVihXQhytdkNAyeTagQQr2mRSpAGhBCvtJf3hU8cPLEYUq/SryWohCDfBZzHgNIT5qgZGFIxGHVQan0Ck3QuymCIpVFlEaoXdUshhHSZCaGq7HlQx+K6LjzPjrVvib5ugxlhLZTyn3GONQDy5qgZDNgmmF1gMATMBvBusxsGrliSCCXeIDJKLkSLqSgVQ/3iyeQt3qSy3kAwDQdQyr5qjpaBIRWDUVYp7AsAsmZPDFWx1FIxqKNkdFcZDYL6ynUWPkYHMpoYAHkHY+xcc7QMDKkYjBKclQC5zOyH4SUZpVb0DsTSzcW1BpJeRXdiRTLxGS16q329rX4DagVCkP8HYIo5QgaGVAxGQaWIT8GkpI8IwVS2u3e1hpLlSENJRTRJmWTV6loaVyuYRqn9bXNUDAypGIw0FgDiPLMbBo5qhl13d0lSCQmlVCr5WxGlUhHFYhGlUjl4XP2erl6iigSDIRT1yV7HGDPH2qBhmOwvg0GoFPZBc+4MjlBqkYs+P8V13UhQXz1WKkmVUirpLfDdiHLRuxXXm2Vfp27Ff3/yDQA3w7RxMWgAxn1hMFB0EcJ+AMAxu2Lg6iSsqLeCtveqLYvqTkypJAC9Q3GpVEKxWEKhUECxWAw2qVbKgVqRqcXRuIsep2l0/HAMbYRQTwj+V3M0DYxSMRhmlWK9GWZOypDJRVcPcYVCCAHnwr/lkSFdUYXiaSTCA7dZ5Rz7ARFINfwzkP6+aZNvYEjFYLhhMr4GSSjVfk5ye+ntWTzPC8hE3kr1kpQJlpQ91sAkyEaQJsT9qhAwacYGhlQMhgv2GkAcZPbD8CiVJEIBELRmicZSJJkocvE8N6ZGkosqw/YtoqJVzMA/P17DmHWa67o3m6NpYEjFYMiglL/RdLYfukrRjX9IKB4IKQdt6gFori83MqNeubwUqSS5t2pV6w9FtXCOrwD4I/R2yAYGhlQMBneukNeb3TB0RJtCejG3lxdMfAzn05fhumGmlySV+q6tuHqJF0sOEgcxxl7jed6vzJE0MKRiMPgTxbKO4RzdZk8MD6Eo15aMnZQhhPBHCJPI83JzNULxEt1e1ZRRNbdY/PmBfQfyGQC/NmrFwJCKwVDcHq82e2H4SEXNRwkzwDhcl/qkgIA0lKurGqE0OogrnkY8RMWyijF2lud5vzNH1KBiUWN2gUEjoJQ9D5CFZk8MZt/R2Ez6aLNH1fAxTjwqphLt+8Wr1ptUyzCrpUyGQC4PcO4eZtSKgSEVg0HAWUkpf9Tsh0FeZFrbep1Ywt5cyS1bVOZWtA5leFKEhyG2AkLEGZ7n3WSOsIEO4/4yaGClLU40e2Fo0FWFaqGi7lfrA1atGr6eC6tWb6/hIBMFzsl7ABhSMTCkYjBgg3g0MZp2WMlFb/xYK7A+EDIZCeKorVRwqhBYAOBFc2QNFEzvL4O6toNSehVMa5YhGF9S1ehXqydJKmocTcJo/KvRPiH4X8xRNghOCrMLDGrDWUYpf9Lsh+Ehlnpdg5NIpwnJRMdWzt15AMrmKBsAZp6KQT0py7zDzV4YPlRza8XVSbW6kibEDMbYOebIGhhSMWjQCJKDzV4YPjJJIpFxSiYBOCeXmyNsYEjFoEFjiFVmLxjUAiE4EUCn2RMGhlQMGjEYB5q9YFAHNmPsTLMbDAypGNTDLABTzG4wqAfOiZmzYmBIxaAerMVmHxg0qGhPA5A1e8LAkIpBVTBGFpm9MNLGmFRs4xRZxthJ5ogaGFIxqAohhGkgOQqEwhiDZVmwLCvSYHK8EYwQMKnFBqZNi0FNs7fINKEdOUJRDSUty4qQiEoxrjc3pQm/1dHmyBoYUjGoYfjE3JGwZdWqysdB9fiw7wfVAt+27WBIlyIWNUNFzqT3xgO5LAHQDWCnuXoMqRgYVEAITB/plboeSxjueerjiVxCN5gd7BdJLGWUSiUUiyWUSqWAXJr1qzDGDvc87w/m6jGkYmCQhGkj/Qb6fBFC4BtTEUw79DxvwpJLfAKk3A8ytmLb0iUmhEC57KJQKCCf70ehUESpVGpa1SIEOQKAIRVDKgYGiedGx0gZU3Wr5okACALWypi6rotSqRzMZ2/iFfqg9kFSaxalXBhjcBwLjuOAEIJyuYx8Pouenl709fWiUCjCdd2mIxYhsNpcOsZwGBgkYSpGMDuwmptLZj6xwJi6rotisYB8voBisRgol4lCLPqmjw6WZAvYto1MJoNcLovW1lZks1ns2ZPCvn170dfXj3K53FT7gxCxXJjcDkMqBgaVcNqBkVUG1Tr0AoBlWchmM2hpycF1c+jt7UNvbw/y+ULTGdLh2A96ppeaRy8ED/ZFa2sLcrkUstkMUqkUGJOjkJqPWMh8yCLIfnMNGVIxMNBNXW4sVuw6uTDGkE6nkclkkE6nYds2KN2Dvr7+CecOi5OLUi3qOzLGkEqlkMlkA0LR91UTucIoYC8Byg+ba2hywkx+NKhmG5YQgjePhWGVRpVDCA5CKFIpB6lUCrZtQQiA86jBnZCUHrjDvMDlRynzA/gMlMrssHLZjfxOU5w5VNwqhHjMXENGqRgYhKsNJnJCjE1FN+ccpVIpomDa2lph2zZaWnIVrqJmdIVRSnH00a/CwQcfhFmzZiGbzcK2bViWvOSKxRI2btyABx98CLfc8md4npdIKsViUfuuHOVyGS0tOVBKkclI92C5XAqUSjMQrRBkgbmCDKkYGMQxps0BZSptGb29fUEhYEtLLnCJlUpFuK6HQqHQVKQyf/58XHzx69HR0QHXdYP2KzpBWpaF9vY2dHcfjNWrV+Od73wHdu7chR/+8If485//UpVgPc9DqVRCR0c7sll5eBzHQTqdCWpYmiP9Wswxl88kXpCaXWBQZaV9CEDOG/tVr4DrevA81zeYCAoDPc9tGqUybdo0vP/978Uhh6wKSET18Yr39dLvqz5f7e1tOOaYo3HxxRdhz549ePbZZyvIxXU9uG7Zr9/hWtYY9+t6vGZRKpsB/lNzFU1OELMLDBJXG4xdJgT5wUi89sKFCzB3rlzMbtmyFc8++1ztk9Sv25CB6jQcJwUhBIrFAvr780Ex4FjhkksuwaJFC+B5XkAgijiUy0sWNNqR5+M/69v27dtxxRXvwCuvvBLZD5RSpFIyCyyTycJxHHieh0Ihj/7+fuTzhTGvuicE93qeu9ZcRZMTxv1lUE2rWMPVTJIQgnPPfTVWrz40WHHLKnKpRBzHAWMWHn74EfzsZz+H67oVakWPLyi3kk9+oJSOiRHN5XJ43/veg1KphHK5HBRu6l0C1G38vvo5/vtqmzNnDm6++Q/40pe+hBtu+GXFflD3U6kUKGV+IF++hiooHSsFJwRmm+tnEi9IzS4wSCYCthbAWUN9nZNOOgFve9vl6O7uDlbatm3Dti0t3iAzurq7u3Dqqadg3rx5eOihhxOMVXIVujKwo4lFixbh7W+/Av39/REy0Ld6bi/9d5Kes20bxx57LLq7u3HbbbdH9oNyewlRuT9UYH8MkRaCf8FcRYZUDAx0UjkCwBlDUScf+tD7sXjxfhACPpE4/q1y+9iwLBZU0TNG4bouWlvbcOaZp+G5557H7t27E8lFX4SPNqkcfvhanH32mcjn+yuIIYkkqv1cj2RU+5oDDjgACxYswC233JJIstHHmqIZJxOCfxVAyVxJhlQMDBSprANw2mAJ5bOf/TQcxw5IxLadyM+WJdVKaFBppGtxsVjE2rVr0N/fhw0bNiUSy1iQyqpVB+OUU05GsVjUWtc3rlQGolZ0LFmyGFOmTMVtt92WQLACgHInoik6PAvBrwaw11xJhlQMDHxioEcDOGUwf/uJT3wMhMh0V9u2/VsnQixSpVhgzNLiC9FxuuVyGUuWLEFLSwueeeaZmu85Gu6eFSuW4eyzz0axWJQXTx1CqUUm9dRK0tTHAw5YgX379uHRRx+tQrIk0TU4NqTCrgX4VnMlTT6YccIGw7rgeN3rLgClJJLhJIlFkovjpJBKpZFOy9tUKuVXzDsBCemk43keDjnkYJxyykmJK/TRih9MmzYN5513HgqFgrxwYoH1+BYP0A8kSF9tjLDneXjf+96L/fbbr8IFpkYFNEtLfMsSneYSMqRiYKDDHugfzJ07F8uX7+8bRz2+ECUWSSKKUFJwnFQQb1FkomItKpvpqKPWYcWK5RXEMhpGlBCCt7/9bejr6wsvnBgpJJFEnDBqEYn+ePLKP2zbctVV30jcD3q7lrEmFiFExlxCkxMmpdhg2BYcl112CVzX9bvo0pirJ4ytKJcPIQDnshmiXJ0LcC7AuRcE75WhzefzuPTSi/GVr/wH9u7dq7l8Rh5vetNl6O3trUoojDF0dHSgu7sL3d3dyOVyEdefbvA55ygUCigUipE59eGgsuoqRW3ZbBbvfe97cdVVVyUqN/3nMUTaXEKGVAwMBo3FixeDc+7HA3SjywKCURMNZWzFQTabicQVZIPEsm90C9izZzdeeWU7duzYAUII9u7diw984H343Of+pWKlPlKYPXs2pk+fjlKpFKiWVCqF+fPnY7/9FmHRokWYOXNGUDczEBQKsnizr68PfX39Vd14Oimp7ayzzsA111yDnp6eCmLRRzMbUjEwpGIwLnHOOWcHRXf6JoPvkmA6OzsxZ84cTJs2Da2tLVVX5XG4roudO3dh06aN2LhxI0488Xj8+c9/HZXvdcklF6FUKoFSigUL5uPggw/GypUHIJvNVmRoDdjqptNIp9Po6pLhh2KxhH379mHPnr0ol8uJKkVt5XIZn/zkJ/Cxj308kVzHPq5CU4BnLgxDKgYGAwchBG1tLcjn8/7PgOoARAjBokULsWLFCnR2dgzuJLUsTJ8+DdOnT8Ohhx6K/fZbgkMPPWzE04gXLJgPx3Fw2GGH4ZBDVqGrqyuIDQ2VUJKQSjmYOnUKpkzpRk9PL3bv3o19+3oSScXzPCxbtj9yuVwk1tMchAIIYZTKZIVJKTaoQhT0GADHN/K7a9euwZw5sjNHGEeRrUZOO+007L//UmQyw2djpk2bivXrn8cjjzw6ovvg0ksvxVvfejkWL94vaF2vOgE0qrIGS9KpVAodHe0BaeTzebiuG9lKpRLmzJmNv//9H814Bv1ZCH6XuZImH0z2l8GQcfjhaypWyevWHYlzz31N4NoZbnzqU5+Ebdsj+r3OP/88ZDIZLVOrdjB9JNDSksOKFcux336LghRrfVu1alWTnhXCKJVJCuP+MhgyurunIJ+XI8kty8IFF5wfqaUYCSxevAgXXHABfvSjH43I6y9dugTz5s2tIJRqKb/VwDnHHXf8A7fffjuee2490ukUMpkMli5dihNOOB5Lly5p6HWmT5+Grq5OPP74E3jppZcjsZUjjjgcd911d7OdFilzZRhSMTAYnNylcuXuOA4uuujCuoSyb98+vPDCS+CcY+HC+ejo6BjU+77lLW8eMVI5/vjjY6nDLGgj0whc18VPfvJT/Pu//weeeOLJIHEBQKSD8IoVy/DRj34Er3vdBXXjNLZtY9Wqg9Hd3Y177rk3IJZTTz3VkIpB89gDswsMqvkvGv3FUqmEVCqFiy66CAsWLKz6e/ff/yDOOuvVmDp1Jg47bC3Wrj0C06bNwlFHHY0f/ODaAVfGH330Udh//6Uj8uVXrTo4VkNCGw7Ob9u2Daeeejre9Ka3BIRCKYVlWX5XAccv+nTw9NPP4k1vegtWrVqN++57oKHXnzt3Dk4++US0tLTA8zzMnj2rGc8fU/xoSMXAIIKGLHwuJ2fGn3POOZgzZ05V99A11/wARx11NP74x/8LpiKqliwPPfQI3vGOd+Pkk0/F+vXPD0AhUVx00UUj8uWXLVtWUeTYiEp58smncPjhR+HWW2+PfE71fdPpNHK5LFpacsjlssjlckin03j++Rdw4okn49vf/u+GPl9bWxtOP/1UzJ07B6VSEV1dXc22JjFeEEMqBgZRD04jvzRr1kyceOIJWLBgfkVDSIUbb/wDrrjiHUHlPGMMjuMgk0mjpSWH1tYccrkM7r//ARx11DG49977G/6Qp556yrB/ccYY5s2bGyniJKT+pbJr1y6ce+552LhxY+Rx/Ttnsxm0traivb0DXV1d6OhoR1tbK3K5HADgwx/+CL785a809DlTqRSOP/44rFy5EieffFKznT9mqqwhFQODiE1oaBZGKpXC8uUrAgMcR09PD97xjncHri1CZLPJdDqFtrZWdHR0oqurGx0dXWhra4XrlvHqV5+LBx98uKFPuWrVQZgxY8awfvPOzk4wZgUkSSkJ4ka1cPHFb8Bzz62vqqosS45EzuVa0NnZie7ubkydOg1TpkxFZ2cHWlqkavnXf/0SvvvdaxpWa4cccghmzpxhbIuBOfAGTY2GSUWvoI/j+ut/hM2bN1es2pVx7erqwJQpUzBt2hR0dXWhra0NrlvGG95wWaQFSS2jetxxxw7rF+/oaA8IpdZ30/Hzn9+AW275c9XnVWCeUgrHcZDLZdHR0YGpU6dg+vRpmDp1Krq6utHa2oJUKoX3vOd9ePzxJ+tTv096IxVbMrbFwBx4g+HRKaQxUvE8r6bhveaaaxINoXQH2chms2hvb0NXVxe6u6egs7MTLS2t2LZtKz7xiU818DkpVq8+dHgvCkohh141Rirlchkf//gnqz4ftqYP29NTSpHJZNDe3o6pU6di+vTpmDp1Cjo6OpHLZVEqlfDOd76zbvKC+mzLli03tsXAHHiDZgZvmFR046bj+edfwAMPPFSxYheCg3MvMJi2bSGbzaC9vRUdHR1oa2tFJpPF//7vd/Hss8/VIz8ceOCBDa3o29paMXv2bCxcuAALFixAV1dnostOxn7gb/VVyk033YwXX3yppkrxPA+lUgmFQgH5fB7FYhGcc9i2hZaWHLq6OjFlyhR0dUlSBYC///1O/OxnP2+IVJpQqZiYyiSFydAwqLoAH5hSqXzu7rvvTjSwruuhWCyivz+PdLofqVQqGOiVzWZQKOSCtiRf/OKX8f3vf7emUT3ooANBKU1c1du2jVmzZmHatClIpzN+arDlp/fa4Fxg8+bNePLJp4IBXPl8wSeS5O8Vx3XX/bDm86olfblcRj5fgGX1wHEcpNNpZDKZ4FYIgVKphHy+EPztf//3/8PrX39hze8PEGQy6cQ+YGbBamAOvEGzoCGlolrChwYuxL333leFVFzk80X09vZgz5692LNnL/r6+uG6Lhij/vAu2eXj5z+/Abt27ar5GdraWjFt2rSKx7u6urBo0ULkcln09+exZ88e7NmzF3v37sHevXuxd+9eFIsFzJo1EyeffCL2228RAGDHjh2Rpoy1lIrruvjjH/+v7n5S37tYLKKvrx/79u3F7t3yc/T398PzPFiWhUwmg2w2LPH4+9/vxCOPPFZXrQFk0A07R8i0GNtiSMXAYOCksm9f9WB6UiaU7grq68tj3769gbHv78/DdT0QAliWPDWLxSJuuOGXdT/HrFkzNXNGMWVKF1KpFPbt24fdu/dg9+49/vsoYtmLvXv3Ye/efdi3bx/y+QJWrFiO1asPheu62L17d0NenIcffhT9/f0NkYoilkKhgJ6eXuzZsxs7duzEzp27sG9fD4rFIoQQFbNZbrrppoYO2GA7ExjbYjCcMO4vg2pulVIjHdTVFEZpOKPPvfzyS1UNrOdJF5gK2lMqJ0GmUim4rhd5rd/97vd429sur0Mqs/HAAw+CEIJ0OoP+/gKEyAdDq+T7SNeXHBRmw3FSSKUclEpppNNluK6L6dOn4ZBDVuGFF170U5UFau2HBx54oOF9GnWD5QPXmnosk8kEs+Z1NNqFuL293ZCKgSEVg/GtVIrFIorFItLpNOKdXbZs2VbTwCrFks/n/dn01J+xDnheGB+58867goyp5NeS7fDV6/b399Uiy2D6ZCrlIJVKo1Qqo1wu++N+PUybNg233norjjzyCJ9QqrOKni49EGJRbkP5XeV+yGZlR+RiMbrr77nn3jqvCZ/8RDOdP2ashiEVA4MQrotyo17x3bt3o729rcKoFYvFugZWdtp1USwWkM+rVvYE5XJoWPfs2YNHH30cBx9cLctLBBXpjRj1UqmMUqnsk2HJJxSZ6ss5hxDAU089hc2bN2PBgvk1jfXWrVsHvG/V987n88jn83VjRjt37kSpVILjOImvpdTUQHunjSSEMG1aJiuMRDWotqYvNfqbu3bt9mMG0ccbmcwYEos08vl8EYVCMZIAAAAPPfRQ1b8XAnjkkUcGQZwuenv70Nvb62996OvrQ39/P/r6+nD99T9M/F46entHPttKCIEdO3bU+P5hvMYsWA3MgTdoVgyAVHYF9Sc60ul0MGK4hskE5xyu6wVEQgiJzGgHqruZhBC4446/4/bb7xj0Fy0UCoFCIQRBv68HHngAjzzyKFavPhSci4ZatYwU9DTjaqQS32fGthgYpWIwLpXKzp07wXmlT3/27JkNrMLDinNVHFgoFCpcZ9XcTHv37sUVV7xjyK6fUqmE/v5+9Pfn0d8v3VKFQgHXXnudTzjJr9/SkhuVo9He3laXVOq50QypGBhSMRg3pCKr5HmEWObMmdvQ3yvXjYxzlHz3VzmmhnYn/u1HP/pxbNiwYVi+sXS/5VEo5H1yK2L9+vW4//4HwHmyDyypPmYk0NaWTCqci4DQt2/fYUjFwBx4g2ZFsdTo6bF58+bAuHHOg2FWa9Ychptv/mNdQlETDONxlHqK4E9/ugXXXPODqn+TcgiWzKeYMZVhajfD1C5LFjISCs4J9uwT2LmH44UNJTz/cgnFEkehkPfTjR0/sy2F3/zmN1i7dm3ie6iCyZHEggXzqwbpVXLB3r17g44ATbFapbAbCKkZGFIxmERo2EG/adOWwLjppHL88cfjC1/44ois1Pfs2YO3vvXtEWW0bCHBkasoDl9FsWq5jflzbFiMgVAGQiyAMBDCQKglb9VjlIFzhqfW9+O2e3pw14MF3PdYGaVSCeVyCY888hiefvoZHHDA8orpjwcddPCIH4g1a9YkPu554T5//vkXjG0xMAfeoKnRsPtr06aNvnHzIrGNI45Yi87OTq06ffhI5b3v/QA2btyItSspzj6O4fSjKebOorIAnvqtVQYQV2eM4IClGRywNI13XMrR1+/hL3eW8ce/l/HC5jJ+/OMf41/+5XMJpLIS06ZNwyuvvDJiB+Lww5NVktrfnHM8/fRTxrYYNIdKNbvAoAryjf7ihg0b4Xk82BSxOI6DN7/5jcPyYVatChXBz3/yv+jyfo6/fz+F3/+ngysuYJg3czCZWdVzhXNZgrNPtPCtz3i46hO70Zm6G/fcc3dFQgClFKeddurIXaCU4uyzz0pQKZ6/ryWxPPXUM0118ggB21xCkxOmPbVB1XODUquMBiuj77//HsyePRupVArpdAq2LW3Kxo0bsXz5gQ2kFtfG5s0vY0prHhse/AKsnl8gkxby7PWVCQgglDqhcs4KiO/mqub+AoPHGTgIBLfAOQehAozKW/kVBAAOgGPbzjTa5r4HXXMujuyWf/zjLhxzzHEjchBOP/00/O53v66UkaUyyuWSX8hZwvnnX4g777yzmc6fRzh3DzaXkVEqBgb6Mr7hyr7HHns8CLjLVitSBcyZMwcf/vAHh/RB1qyaj9zOL2PHbYegtXADMqmhtyMRAnA5R1/exa6dZWze3I+Nm/qxaWMeW7eVsHdvZSHh9O5+ZPq/jP7nz4HX88dA6axbdwTWrTtiRA7CFVe8tYpK8Xxl6KG/v39APchGCWlzCRlSMTCIo7fhZekjjwbGTk44DFN/Pvaxj9RosVIdtgW8/0KG3/zrTvS++F3s62s8nUho/yc/L1AqCfT1uNi6tR8vvNCLp5/pwZNP9+K553rx8svVOw8T93mUt7wXpZfPBe+TRZff+MY3qvYmGyxe9ap1OPPMM2JkKOfR6AR+11131W2JMwbImcvHkIqBwaBJ5f77H4gYOtVLC5Cdh6+//roBddE9cBHBjVc6+MRlFmxWRm8/wfZdw9cw0W+ZhXJZoJAX2NfjYfuOMrZsKeDll/N46aX67ex54XGUNr0RpQ0XYNXy8pAVmY7W1lb8z/9cXTHLxXVdeJ7c5H0P//d/f2rGc8eQyiSFiakYVAVj1n1CYHUjv5tKpXD33Xeiq6vL7/7rwHFScJwwXvunP92C17zmvJqrakaB91/A8P4LGWyLgDLZOmXrLmDjKxyrV7IghlIrpgJCg7Th6inFTMZdqH9fUkVsE4mPkYTfIZkj8cEv7MDV37t9SPvdsiz89Kc/wqtffU4FoZTLLsrlcrD19vbi8MPXRUYQNAnKnLuOuYqMUjEwGJRSKRaL+Otf/+qvopULzI00OTz55JPwm9/8smpH4ZndBD/9nI0PXsjAKs5MgYCfxrTDe/V1mMj/HV/98DO48brlmDtzcJdWOp3Gddd9P5FQ9E0pwhtv/EMzEgoA2P5mYEjFwMBfs/PGSQUAbrrpjxEy0Q2gwkknnYi//OUWrFy5IvK3KxYQ/PILFg5fkWy0sxlgamcVgy7q/DyqTOTh2NXb8NifuvC9K1uwfHHjl9iBBx6Av/71z7jggvPrEopULWVcc833m/kUajdXkSEVA4NwTU7IgEjlb3/7G7Zu3RoxgNJdEyWW1asPwT333IUvfvELmD17Nk5bQ3HD5yzMmlJdBbTlCGZOHaS3dtSVDQGjHl53JsM9v2nBL69ux5GHVq8FXL36EFx99X/jvvvuwZo1obdRdR5W+7BcDvep67r49a9/g8cee7yJz6BUt7mKJqHdMLvAoOqKg7L/BcjlA/mbt7/9Cnzwg++H4zh+Dy0btm3DsmzYtlVRkd7zwk+x654rQKkHyggoBSgFCAUoDWMqyXETROIqwXMEANViKn6tSlC3osdRasZU/HgK4YCQt0IIQAhQ4qF63CX+MwEExe7eabj7sTm487EFcNJTsf/+S7F27VosXbqkUu9omXQyKO9FiLqvrxennXYGNm3a3LTnD+dYB7h3mitpcsG0UjCoteboHehfXH/9D3HxxRdh5syZwWx4gAQjb1VvMEop9j37Pey6/wMgZLQnFoYJx0S/I/SlFoGAAAWF8HkBXPjtXwb3eTtz23Ha4Ttx2hHPgbW9Gqx9KWh2v4gykWMAZKV8SCqKUEJi+bd/+/emJhQAYEx0m6aSkw9mjrRBdUoh9FUAjhnI35RKJezZswfHH3+8JiOU0ZQWXAiB3pd+gZ33vBsEHIRINUIoCe8T2b+LUF+pBBuJKpSqzxEQQiMb6v3sE4rQXgogACUQIEF6LwmUiNCYSNT4OfZBhQtReALenp/D2/VD8MIz4ILCI7PgeVxTJ9HUYUUsf/jDH3Dllf8xDs4f/J8Q4mFzJRlSMTBQpLIWwEkD/bunn34ay5cvw4IF80FIpUrIb/0bdt/1FhB4URIZa1IhgTH0P6r/OyDa88QnFW/wpBIhmAJE4WmIfTeC7/kFeOEZeG4/XNEOlztBIakilCeeeBLvec97a44JaKIz6A4huHF/GfeXgYHu/hp4lFsIgU996jNYuHARFi1aAD8MASE4+p69BsVnrgQhJRA6tiE9ISRFgMrKE0rkbTCU3icS4asTAgpBPP/vRqCC3dsB2vd70N4/wAaFx5agxFaB0wNQxP54+NHnccUV70Bvb+94OYFmm2vIKBUDgwCUkhUAec1g/rZQKODvf/87TjzxRGSzWfDSXvQ/+G6UXr4ehHi+AiGJSgWjoVRA/QA98YP3KvLvP0coCJgsmASTtCJ8tUKETyoDVCqE1FYtkQ2gfDds70lkyrejpfQb7Nl0CxgpYMNWF739fBycQWSDEPwGcyUZUjEw8EmFLgbI6wb793v27MUtt9yCVx22EPazH4LoeSSS3VWNVEbc/eUTigiq7hkoYf6H8rcIofjPQY+pFKoQyADdX0HMqfbvEALMnmbh5HUteNdFU7B4bhr3PNbf1ORCCPYKwb9nrqRJZjfMLjCobhRIz1Bfo8PaAvvp90D0vzRIH9VIfDG5UUgSkm4tAgImCUdYILB8QpHtXUB8cgEdm8tGyCaYgBwoduEZ7Xjol0twxjGtTXv+CEGM+8uQioFBCNfFkJz3By4g+OrlFlozY2raEn8kAn5GlyQJEhCGBUFoQCICFAJMBu0DN9YYfHT9bYXMPstlKX7w5blYMr9ZW2yJWcYbYkjFwEA/PQatVJbPJfjKP1nIDWSqhhidM17mb0k3l/DJRCgFEri85PPUz/6CCuoTjF6FvkpDE5JIZLKDgACHgIDgAikH+MibpzXrCWQDqYXmOjKkYmDgozSo4fKzuoB/uZQh02QLaFkmQ2UshdJApQhIIhGgEIL48ZMwhqLqVgS4NO4jxirR1xVCEgcgIDggOIfwuH/rgXMXgnOcfnTzdplnzN3fXEeGVAwMFHYN9A9yKYJ/udRGR66JOgAJACCgfsSfgAKC+jEUy2/XIgP4OpmoTgCytl4ERY+y7f0oCBUAEASeK8DLHrjrwXNdeOUyvLIHUebgZRdZW+C0w5rzUhaCLDOXkSEVAwOFfsg0p4bxzjMZZjfSRnAM2tcLQCoUvy8YFJmozC5CZdW8IEqahH1cBIeABwIuFcuoGGTZtoW7LtyyC7dYhld04RZduKUyyqUy3FIZfbv34o0nNWsbP2GUyiSDKX40qIfdAGY28ovHH8hwzAEUYzzwJGHJ77dY8VOFBSxQYoHDAiVMBuyDeDJRUXyfUDiE4L5CERDCg6ymH1kUCxw7XymDCI6MQ8AIVLVmZPcSAL2v7MLK+QSdLQS7e0WT7XqjVAypGBhEsasRUmnLElx+Cm06daJqPASUe8uPn6jalCCeEkZQCCF+E0l/yiORpCK437EYfMS+S88+jlv+sgvrn+3HtA5gzgwbs6daaG+34Dg0CN4TIhsnCyF7qQHAnKnA7iYrthcCqyAzwExrSUMqBgYAIdglGjCg5x7BkE01qwvGTxuOjRNWlZVBuxbVkEUAhPhOLn+YPYEHEA9E1HN/DT497IUXi7jh57shPA+5NKRCoRxCePBKQFmQoGAUvpiSgXyAC8BuzuTdVsBZBpQeN1eTIRUDA3COXaQOVzgWcNxK0pBCSRrSOHJUFLbel/ESC4Ra/sJZqRRVQY/wkwgBTsI59AKuv9B2IYgX9gYbRjz7XBG/+cUuOEwglyXIZQhyGSBFBYjH4brCJ76wzl4IrW6fA4Um7THJmFjreTCkYkjFwAAgROyqZ/YPWkDRkm5WlUJk7YleEe8H6QmRKcRE65RChIrTi6DIUG4+mRDPf25oH0n/+8cfL+CWP+5FSwZoSRNk00A2DeTSBGkboIQDHuBxErYQ0xiac8DjwOadzXkEhOBrAFxjriZDKgYGAEjdWpUD5tG6CmUMTJnfCowGxCKIBUIsUBr28iJ6+y1/3otOJgJ+YF6ExCKIGDZ1df99/bj7jh60Zwla0kDWJ5W0DaQdIO1wMMgYj/BzIGTdTDhRjHNg806BPX2iWc+hw811ZEjFwEChbq3K8jmNmdjRNXmy47BsaS/rUajfQFKAgYigAZj2wVRho/AzvhShyHgKwEGGqfiRc+Bvf+7F+icL6GohyKUJWtICmRTgOASOLeBQLkcs+8pJcH14mFIBApwDj7ygN69sOhwMoAuDqHsyMKRiMCGVSnUjyigwb0ozGjLV6tivR6FaHCWoRYGvSqRi4VwpAD/ry1cqAh6EUDUqoXEfLAoFjj/d2IudW8voagNaM77Ly6awHQHbErAIAdPCPaoJs1/H6ScTAJ4nt4dfEM18EjHG2Eme5/3MXE+GVAwmO6UQvkuI6hZ0VheBbdWXJA2bvOGwjb7BhVDt7/3uw8QnFE7hT+QK2EEIP3VYyKmOhLiATyRBwaMfZwldTwPHtq0e/nRjL0RZoKMVaM8gcHc5toDFCBgDqB+3CcmLRHQI8YnF45JUntzQtCrF3784FYAhFUMqBoZUSM2U4gXThrcpQ1XT6D9B/IYpNV+DqDwpGhY+BjNRJKHosXIhuG+81ZhgLivohYdwFj0Ssr4Glj78yEMl3HNbAVkHaGshaPUD8ylHwLYILBYdCZP4NbXHXF+llFzgmU1DJxUSk19iWLPcyKkY3XacBoZUDJoRrkt2UVrdDkxtr68yxEiokjo2VKheX0R2IKZEzZkngetIJeQScN+A+mnExIPgnix0DCroB/thCQpFgb/cVMDG58tozwGtWYL2LJBJEaQdAdtXJ8FwsqA/f1U+kRlfniSW9Vs4iuWhEQkhJNh0QlHFlcNAMLMBZyVQetRcVYZUDCY12C7Arfqsw5pk4amRDPGX+bKygwSt7sMZjL7aIZJMCELXl4AHIjwQwv04ilCd56urhxrYtMHDH39fBC8JdLYAbTmpULIpqVAs5sdOGiGUmEqRSkUMOpVYkQilFIwxUEojaoVzHtmGSi6U8nM5hyGVCQ7TUNKgDgo1M3ZueUSg7DaZR8NPhAoypYiiGPmktIvSrSWCBpEcXMhMLyE83yUWZoMRIgZEKJwD/7ijhF/9pADqCnS1QMZQcrL+JJPyFUoSoSQLHk09Rrctuwa+/xWhMMZg2zZSqRQymTRyuSxaWnLIZrPIZDJIpVKwbRuWZQWkQwafpXCBuZ6MUjEw2AspVRLPlR37BH70tzJOXcVAGYFty2ym7o6he7iGKlqUS0sIIdurCA/+EGG/fZckDnAOQX3iECogrxpJDvwbbH/Fw82/70PPTg/tOYK2DNCalfGTTIrAYVKhBGQSJ5Qabi+PhyrF9QRcD9i0U1TKtQZIhVIKy7KQSqWQSjlIpdKwLBuUUgjB4bouSqUiisUiSqUyXNeF67rgXLapGYRqWQk4K4DSE+ayMqRiMHkhAOwBMKXaL9z4gACFh3XLKMoesMGVMfEZUwiWzCWw2OhmJSkXl0y95SBCpgUT7smsL3BwqAwqSSJUkECxEAyuFsXjAv+4PY8H7y4g4wh0tRK0ZAjaskA2JYsZbRuwKAFVqcKNEAoJ1Y/rAmUXcF0R3H928+D2k65ScjmpTtLpFBhjEEKgVCqjUCigUMgjn8+jWCyhVCrBdV14njcocqGUn885/sVcVhMXZn60QQOrWvpPtUgFAJ7eIvDydoH9phNkUwDnBHt6BF7cKg3nlA7p6qH+JlfoRPV0DH8m0B7T2pJENhL7Of64P4xLzUpRc+iJ34fFj6GosbxEpQsrCRM0jBSxLXyMxH5+6YUifv3zHmxcX0RrBujIAR0tsnuzdHcBtkVg+99/oIQiRJRQyr7r65U9Av/7J64lppEGjqeuUhzkclm0traira0NbW1taGlpRTab811fFhiTri9Kw6C+fhu/XwczhODfNleVIRWDSQxK6YUA5tfWBsDOXoF7nhNoS1PMm0rA/NTebbsFtuwApncTpFMDIxUyGFIBAaEEhDK/HkVryeLHU0JVAr+1vaxbEYRXEAYSfla/s2uni5t+vxd339ELSwi05wg6Wgjac5JQsimCjCNgWQQ2079744QCSDIpu0C5jIBQyi7w//7IsX5rNWdZbVKxbRvpdArZbA6tra1ob29HW1srWlulapGk4sCyGCiVGyGSXEikv82AMFUIdjPAN5kry5CKweSllbMIwfJGHE9cAE9uFtiyR2D5LIKUQ8AoQb4ErN8I5LJAVxsZWVJRxKIUiiIZIkKlIuR9+ZjMEAMJH69HKvk+F7f9bS9u+cMeFHtl7KQ9B0koWSCXpsimpLvLtkiETIBYllcdQimVdTIRwf1XyBr892+2w/XcQZOKDNBn0dragtbWVrS2tiCbzSGdzsBxpFKxLLkxxoJNKZd44L4RxUKIKAshbjTXlSEVg0mrVMgJADmsQWcZAGD7PuDhl4BjDp4GS/T7UxOBFzcL9OSBWdNkrGXESMV/IRq0vg/bssinVdREGUbVeDKZRNTPu3aVcPtf9+CWG3dhz/YSWjME7S2STNqy0XRhxyKwGQFl+sfTSjdJlb2nubx0dVIuC5RcoOQybM+cBW/m+fA4x9NPPz0oUmGMwXEcpNNpZLM55HI55HJZZDIytuI4NixLZn5JcrEDd5hyiTFGK1RL/RgLWSoE/yZq5aobjFuYQL1BI0SxvTEyEZH7fWUbzsr3gj/zXaD3JVAipyo+v0Fg2y4PJxzGMC2pb9iwpIzJHl5h+xUOcM9Poiea/aX+YBKRqBqUcX/5pTweunc3Xny+D2mboC0H5ByCbJog46iOwgSOJWBZACMamfjvVcvd1QihFFwbO8RK7Ok4FTQzE1nHwXnnnYs///mv6O3tGfgeEgKce/A8D56ngu/yMypFoojEtm04jhNkiWUyafT2OujrS8Gy+mFZ/SgUiiiV5FAXz/NqkUs7Y+y1nuf90FxbRqkYTEZKIexAAKcP8K8wb95cnHDiyeCdBwN9L4OWdvkrdoJSCXhqg0yJnd6tWpRoabZ06EpFBeqJrlb0P4j/ThB0kapq29Y87rt7J/580zY89fAelPpctPnV8O1ZgtYsQWtWtqvPpICUAzh+u5Wa6iTB3aUv9jnXYygEu9w52CCOw8b0BchnV8NKd/hpwCm0trbBdct49NHHhqBWbNi2E6QWV3N76apFKRf5HA2OlRDc52gRZIdVef/5QvD/MVeXUSoGk5JU+PZaTSWrYfr0mchkMjIzacmb4T59NeyeFwOj5gmBR58ReOZlD6uXEaxczGCNYTluz74yNm7owUsv9GDD8/tQKrhwLIK0A7S1E3/GCUHKlg0gbUsqE9sSYEyLmwREIera+Xj8xPMkmewtT8EmdzV2koPgpTplDMSShlwqhlRQmPia15yDn/3s53Ddxr1JQgh4nqxFKRZLKBQKyOfzyOeLSKeL/mtLZakKHxWhOI4kHvUZHEcF82nk9cvlco33x2rAOhJw7zRXmCEVg0lHKmR7Y6UI0X6BXV0dSKfTQYsPsv9b4T35bZC+zSCQHbUYFXDLBP94WODeJ10smUuwfD+K2dNHtraFC+CVrUVs3tSDbZvy2La5H329JTiWJIu0HRKJYxGkbIGULYs7HYvA9smEkiiZ0HgH4wbJBJBksq24GC+567CP7g9qS4WQYgyWxXyjbvub4xtzC9Onz8Bxxx2HW265ZcCuL1XgKEmlH/39fchk0j6phEF5RSxK3Uhysf1q+1CtKIXieRz5fL7mZ6CUvI9zGFIxpGIw2eC6ZEetppLV0NnZGZAKfBdPYclbQJ78JuzSPjAhm8rbArD8SvEnnud49DmBthZg8XyKWdMIZk+jaG8bggLp4di9t4hduwR27OTYtcPFnt0lwOWwGJBisn3/1A7ikwrg2LLy3bYIHBtwGIXFAMYELCbAqByeJed8icr5KqQ29erPcw7sKM7Cc+7p6KGLQZ2QSKTbSbmgLM0tFW2dcsEF52uk0lhlvVQrHkolF8ViAf39eaTT/chksr4Cib6HIhj1meTns/yRArJXmOt6KJfdBlWTeC2AOQA2mqvMkIrBpALtl7pi4KSSSqW0ZoQcQkxFcb83QTz7XyBuGYwQCALYAFwOeILCEwJuGXj8OY5HngWE8JBOA13tBC1ZgmwWyGZlzQu0+fJFl6C/IFDIA8US0NdfRk+vDMJLQgBsKmMeHS2ALQCHSRKxfGKxLMBmcrMYlUF3ClhUEgkhBBb1044FhkQmAkB/KYunS2dgOzkUlmP7ZGInEIqsE2GMBo8p5SCEwIEHrsQBB6zA44831gFFBdE9z4PrllEoFOE4/ejvT6GvL+Nnf0n3msr0Um5LxpjW1Zj6r8dRLnsolUp+W5diIx/DptR6F+fux801ZkjFYHI5wAbQWD10gbW2tsJxnKClhwrgis5FKM09D/TFnwYjTggAi0krHUyI9+8LIn/u6Qf29ckgut5IRe+hRSmCzr+UAh2tBJYfPLf9nls2ASwC2JzCon62FpMNHi0K/28FGBOygJP43V202fQBQZDG9kj89zwP2Fg6COv5qyHsNqQtXYHEyYRWbNKwh4ZeCIHzzz9PI5X6akV1HXZdF+WybMki1Yp0gaXTaaRSTqBWFJlI11XYXFK9RjZbRD6fRTrdD8dxGj1hrgDwrwD6zHVmSMVg0qBQHsypkkpJ94njOEH7dCAtA/czj0S5/yWI7XeBCYBQIXtiESHTftU8LSZvhZ8dJiCVjd6VRMYy5H2VeUWpVBvMJxjZEZjDktNVYBMB5gLUJxJKBBgVIJSA+TUywXBI9VYDSCKoVovicaBQzuCJ8muxhx0MO2X5cQk7cG3pCkWRiN6mPt4mRZHDCSecgK9//Srs27e34c+pYiDlchnFYhH5fB79/f3o68sgk0lraoVF3l8nF3WMVeA+lXJg23bDgpYx+xLPK5tMMEMqBpMIgxoB5ThOxOjog58AAbHwfLh9GyDym0CFNOKUCTBKZTYVE2A2QG0CMAJm+anGTBILBYLhDcyvXWREEgXTFQchYESAgoCBgAgBBgHqyuwmptKXNZIKFNBA9FwNF5ga+7urPBdP4yJ4znRkHDsIvKsgfDwgHncz6WQSr2ZPpVI488zT8eMf/2SApCJjK+Wyiq30I51OI5PJIJ1OBwkBcUJRJKOKIPWYD2NsAJ+BfwTANYM9zwwMqRiMPwwq0TeVkh1vPc+DZVm+C0xuweCnJW+C99hXIVAAEQADgU1lDCTlEDgpIJUC7AyQSsufrRQBs2Q1PqVhBb7wx3EpeSEbEPs9vTwAnpBpXy4gOBmWaUK1iESfIe96BC95x2GzdRpsOxUhFEUmSqFIY80qFEHFe2vTGtXvnXfeefjJT346wLb0ulop+W6wfvT19SGTScG2Q7WiYjjx1izyM4cEOLCZK2Q/xuzLPK/8XXOpGVIxmBRwpoSdexs1tSJQKmqFK1e0FmxbmyTYOguFRReDr78GnieC2IiA7wYLKgiFjI0LAs6lgrEsgDP4xgx+Ly/VcFjIYIwQAPcnA3MhyUVA9vgKTOoAyKMGieiqhHshoRR5Bs/i9ehPHYi0TyKy1sOOFBjKpo3R/ZXUEbgaqRBCsHDhAhx66CG4//4HBuwCU8SiSCWdTvlKRZEKjdStREcPC230MB/wrBUh8GkA1wEomevNkIrBhAfvHqz7K+oiYX5cxY7MPhfTDkFx3zPwXrkjTDITsniQCuL/HgEXAtw32JYLcEfGTxhFtIeY6rgiZDg/aOfFVWsvX8oQUY8fGjWI4HLWV0gm/v19fDZeSF0G4UxH2lH1JZJUorETFkndTVIhtYhFHwl84YUXDIhUgqPM1WCuEgqFPPr6UkileuA4TkSp6J9HEZLrcn+IlwfXla1fBrgX51Nqv5nz8tXmejOkYjDBwZjoHkxFvW2nIqtuFV8BBGzbBuci8OmLReeh2LcRXt+LEQUhuIDrEbhlgWK/zNJiPpEwP004uO/fUn8IVjC/hYRuMhp0Ch58gzGhCMQfFKkIxeP+41zA84BX6OHYmjkPTioTIRNloOWKn0WC4ElKJU4u1YhFZYudfvrp+OY3v4VNmzYP4DupokUvUCu23RckEVgWiygT25YTIpW6KZVK2pTIYs1q+hr4JIDvAyiaq24c2wuzCwzqgVLraABnD/TvLrjgfEybNi0wWEqZJBt0AtGyGN72eyG8csWvBFNMRGjYRew2YuSFHBTGE4x+YPz931f9JIPX0x7nIlQdrhfOhS974a3s0yWC5wpeFi86F2Nfy8lIp+Wcd1n34QSkIhWKFalY11vL626xpNbz1TYV8AeA22+/Y0DHqzEXG4LUcM9zUS67KBSKyOf70dvbi3379mHfvl709/dh374BN7lsJ4RtFYLfa646o1QMJjCEEAsG/lcE2Ww2cbUtBz2JYJxt4JNvnQGx7Ap4T34LHi9FyULVuFBJLJT6xMCk0VeqhFGAemrCpAhVCgljL4RUDIlMdIFFCEyRjiIjIQKyEoqoBNBH5uGVtjeAZGYgbdsREolmd7GIy0p3EcYfV6pFdzklGX89E+uSSy7Ct771X9i3b9+A1AoATa1QMNbnB96VApPKRCZhWH6PryJ6e/vQ09ODvr5e5PP9KBYHGxoRnwDwPQB5c+UZpWIwYZUK/RyAeQP9u3e96+1+Q0kRUSuc81j2EA2HVznt4KkZEDsf9P9OyhRRoU5IaOw14uF6fIP7CV+aQolsnp6dpd13/Z+1+27svpq+qNRKybXwSuo07Om6GFamM6jbUKSiNl2dxNue6KpEJ6Goagm3qEKJvkYmk0FPTw/uuWfwi/5g/4ODcxXM94JWLKVSwVcoklB0lVIoFFAsDsqL1UoI7ROC32GuvPEJYnaBQR2kKbV2A0gP9A8fe+whCAGUSiWUy2U/kKvmdnhB7ynZKsQNWnwUi0UUNtwK/uJPNWKLxk4CVaKq54lSJ2EcRY+hRMb46ioFCa1WEHWxIYG89LhKni3Anu6LQLOzYmnCNhzHjrRZiQfVk9xX4c+0ovixmrrQlaB63Z07d+KQQ9YM2Ljrr6My1WSFfQbZbA7ZbDpIFxcCQQymr68f/f296O+XSqW/v3+w51wP5+5SAFvN5WfcXwYTTcoydoIQAyeU1tZWpFJplEqlCsOoXGBCeL5hirvCAMw9FnlwiBdvgKyj0BSHTyweBRgX8KgfnCcxUkkiE41QdBsdtFIRWjgnSSFphOKSNvS0n4Jy56siikRXGYogVO2G7taKK5ToLYsUQOpZV3FCUUQQd4PNnDkT55//Wvzwhz8esEIBEAThVTKFaueSz8tmk5QyAMJXLjJjrLe3F/l8EZwPaahjK6Xss5x77zBXoFEqBhPO9WV/HxBvHOjfLVmyH26++Q8olVRmUKhWwl5gYb1KXLGoLb/5bvDnfwTwqI+e0agyYTQkEUUwqmcXoVEiiSuUSG+uBkjFI1n0tx8Lt/sEWE7WJxGnYrBVmO1GKrr8xgPy4d/RxL5fjSiVJMWyfv0LOOywtYNI8a1MV1bErzoUqzgP5x56e/uRz+drDuYaIDzO6Sqg9Ji5Co1SMZg4cABxzmD+cPHipYmNEFUaqm64lFJJMmiYdQSK2Rlwn/kuUNiuWRy5KXXiUS0gT0REoVBt3j3irq+EpZUeB9eD9B5tRbHzOPDuo8GcLFJavy4VL1GxDvVdgbDupLJ1fHxjFVlecYXXKBHIBQHF/vsvwetffyF++MMfDfgY6rGwgQwAGy6RTAj/dyFwhrkMDakYTBzX13lCoHMwf7tixbJEQlErX6lOhK8uJNHoxBLJFOtahNIhn0Jp060QG28EeBgj4EKm+8KLxVE0F5jcRIXbi1TT6ppaEQJwU3PgdR0JMuUIMDsDJ4EQdBJQ30NmuUUzu+KuLjXkqtpr1SOVJBdYXLF87GMfxU9/+rOxIIahuVEITmfMOsV13f8zV6MhFYMJAfLOwf7lEUes1RoNsqAHmCIQvW26WlXrxKLmyssVvr+6X3AKSlMOhPvyTRA7HwBE1EhyIclFOXooqYynKLdXVUJRr5WaCdFxMNC9Biw7A47FErO0ktKCARIhhKRgfJjhZdUklFqur1pqRb9dunQxLrroIlx33XXj7gzknHwTwEoMZqCPwdhYDbMLDJJhH0qpuH8wf5lOp/DUU4/DcRw/NlIOYipq02Mr0b5RYZBYVXirrDE5UdDPIsvvQWnLHRA77gMK2wazCo6u+GkKpHURSNtSsK4DwXIzgwysaoWHcRWmq5N4lldyyrBVUeRYjVAG1qCxUrk899zzOOigVeNOrfjLg89yXvoXc00aUjEYzycGsX5FCF4zmL8944wzcN111wQEkkQsOqmooL1y5+gt8hWxeB6H57kRklHBfa9/O9zdj4HvewEivxXIv1IR2I/yZQtIehqQngmamwnSMhdW+0JQmlxDklSQWGn0ozNP6hGKPnM+bNlC67q99Pv1mjbGiegtb3krrr32+vF4OnqcuwsBbDBXpiEVg3GJ1KmUen/AIJvDf+97/4Nzzz03okyS1IoihbAlvqggFl21SILhQZ1LQCqeLMoLiis9D8LNQ7h9kqzcPMBSIHYOxG6N9dWifq8wGozrjRIHC7rzJvfkooH7Lk4o1bO8WMMur1rNJAeK559/EStXHjTYvlxjCiHwoBDuoebaNKRiMA59DYSwZwkhiwbzx93d3Xj66cdh23ZQ16CrlSQXWJIbLL4a191jIRGJmNqJ9hgLK8L1eEo05RaA1hWYJhKIIg29VYoe80lydyUF5ZPIJK5QktrZDyfe/vZ34rvfvWZcnpic04uB0o/NJWpIxWAcgTH7h0KIiwf79x/72Efw6U9/MkhDVcQiVYpbVa14nlcxl6N5XIFxtUAqXF31FUplgWM1hRIlruHFyy+/jBUrDhpsC5Wx1it9nHtTYfqCNbcNMbvAIIR1IiG4crB/3dHRgWuvvQbZbDY2OlipjriKSCIPMWzunuEgkyihkEiacK0iRr2q3ratSLV9I6nDI/X929vbsWXLFtx33/3j8PwkDkD2B8TPzbXaxK4OswsMfMymFL8eygt88IPvR3d3d9UVfK0CPz3GMZxxhOEgE/mZkr5LZeNHW5vsaNsWnNgc+nqEMhrf+xOf+Bgymcz4dK0Qcj5gHWMuV6NUDJobrZRafwcwc7AvMHXqVFx77TVIpVLVnRdVYiWVz0VjIGNJJnrNSVK8JE4meqpwnEgaKWwcje/b2tqKHTt24O677xmnxCLOEUL8N8zoYaNUDJpzYUGI9SMAS4fyIv/yL59DW1tbhYFOjjXQREMbb28ymoa2MpaR3K8rTiL6pubOJz3XLISi8M///KFxq1YA0k0p+09z6RqlYtCMqwrKriKEXDqU1zjmmFfhG9/4WlXjmDxYqn4gfjQUS2UcI4ybJE1lrBY7aUSd1AvMjyZaWlqwbds23HvvfeOVWFZRSu4VQjxrruImOzJmF0xmQrHfD4ivD+U1UqkU7r33bixfvr9GBmFVvF7AqLLB9FTjctmtSDF2XTdSm6IywvTXHi5lEt6PZnQlFTEmj/CtDNjXL5QkYx43AoCNGzdi2bKV4zQTDADwCufucgC7zNVslIrBWB94xi4E8D9DXVh85jOfwmtf+5qqBruWMa9l5GvFWIZqiJNcXdVSgqt3FI5mdekKJU4uYxWQr4e2tjZs2LABDzzw4Hg9jXOEsIVC8BvMFW2UisEYwrKs4znHTQBSQ3md1asPwe233wrbtiueixcthu1WwrkpSp3E1UqkBYtW6KjXsQxGtdRTJ0n1JnH3V5I6qdbGpVohYzOkSyu89NJLWL78wHFZZa8d2bdzXr7aXNlGqRiMCZyVgPgjgJahvEo2m8Uf/nAjpk2bWlcN1FcqYkDqZjBxlnopwvXmxKu4SVLNSS1lMtaxk3ro6OjA+vUv4JFHHhnPJ/VJQrCbAL7FXN9GqRiMLuZTav0DwKyhvtC3vnUVrrjirXV/L17omNR9OFQtXkStVFMsKs4SV0SNkVtUmVSbyBglmsaVSTUXV7ORiY6nnnoGBx20qqm6GAwc4jnOvdUA9pnL3CgVg9FBK6XWnwAsHuoLnXbaafiP//hKw4ayWpfdSgURGv3K50iV10sepVsvq6uRang9o6taVletzsLjgVAAYMqUbtx9971Yv379eF4fdxHC9jPxFUMqBqN0nAmxfk4Ijh66AZqCG2/8DVpbWwfsdtIfq00SoYiuTyykIj4S3Wo3e6zeXoXVrISv5uYajf5dI4GpU7vxwx+O+16NBxDCtgvB7zWXvHF/GYwgKGXfAsi7huO1fvrTH+K1r33twJ0TCd2G48H7uEvMdb1EV5iebly9h1iUkOq1ptddXY2QR61uwuOFSOI49NDD8Oijj4/3073MOY4F3DvNlW+UisGIEIr9fgCfHo7Xestb3ox//ucPD271UkexJN1Xrq34phv1pJhGtSyuwRQvxicy1hr1O56USZXFB2688Q8TQJWTk4Xg1wPoNxbAKBWD4by6GHu1EOQXw7F4WLRoAe67756G3V4DVSy1VUv0MfW79dRKnIjiLrBQkdCKlvRJsZLxGIQfCHp7ezF//n7Yt2/8x7qFwB+EcM8GwI0lMErFYFhgryEEv8UQa1EAwLIs/PrXv8J++y0a8qeqpljiJBAlBKVaaFWVUt+txWLpwXZkpK/enyupH1k4yIuMSov6sYDjOHjhhRfw4IMPjf/VMsESQmhRCH6HsQVGqRgMGakllHr/ADBlOF7tU5/6BD772U8P6ydMUix6nCVJuYRKpfrExySVUhmobyxFuNaMk4lEJjruu+8BHHnkURPl63iU4mTXdf9qbIIhFYPBY4pfi7JkOF5s2bKluO++e2q2tB8OYgGivcKic+m9inoVeStitSvhayWTSnIvr3qurslAJjoOP/xIPPDAQxPl62zj3F0NYJMxDaMD4/6aWMgwZt0M4ODheDFKKX7xixuwYMH8EXJRJLu9qpFCUhZXVHlQ36Wl3F7MTw22Iq6uRlKEq32eyYBSqYybb/7jRPk6LZTSdULw6wB4xkQYpWIwgAUCIdYNhOA1w/WC73zn2/HNb359VD58LXdYvNtxXM0MJFBfra5kMrq6qh2DV155BQsWLIbruhPp232bc+/dxkwYpWLQsKpg/0kIuWy4Xm/WrFn42c9+jHQ6PTqrmypV9LUUS7229NVSg+Mur1pdhCcboQBALpfDP/5xF55//vmJtH5eSwjbJQS/x1gLQyoGdQnF+jRAPjqcr/mDH3wXBx100Ohe9jWq55NUR6PkEu80HP+b8dhaZSTIJKr0OH7zm99NtK97KqXkYSHE08ZqjOB1bHbBOF8VMHaxEOT64TyW559/Pn784+uaythVc4/Fn4uTVC3lU43AJhOq7b/e3l7Mm7cI/f0Trn6wl3NyLFB+wFgPQyoGMViWdTLnuBGAPVyvmclk8PjjD2Pu3LlNuZKOG8CBdimupkYmG5nE92k8JkUIwfnnvx6///3vJ+LX3s45PQYoPWWsyAh4TswuGK9wVnCOnw0noQDARz7y4aYhlCQSqNWOpVp7lmp1J0lKZTITSjxB4jWvOWuifvWplHo3AZht7IhRKgYSMyi17wLEsOb6zp49G48//jByuVzTG8NGHqumQCYriSTts3j2nNqPlFLs3r0b8+fvN8GywCJ4nHP3WAA7zdlglMpkRoYx69fDTSiAnDff7ISiq4tGUoYncluV4SJnXZ3o9zs7O3HUUUdN5F1wAGPWHzDEKagGhlTG9fEixPqhEDh8eIxKeH/hwvm49NKLzR6e5IQSVy5nnXVGzfNm/O8HrCXE+g2GoUeegSGV8XewqHUlITh3+Fb84f2PfOQjsG3b7ORJRixJhaQ6sZxwwgk1z5uJAEJwAqX2dcYeDtP+NLtgfIAx+5+EEN8dideeO3cunnjiEaRSKeMemmRkEh96Jo1stP5n//0PwIYNGybDnrmac+/t5gwxSmUSwDpSCPFfI/XqV1zx1nGrUqqlxBo0vs/iDTzj+/LEE4+fLGvsKyi1PmPOEEMqEx2zKMUNGCGfbyaTwWWXXTpujWMjjxlU7p9aZBKPq5xyykmTaRd9nlL7PeZMMaQyUZFhzPotgFkj9Qbnn/9adHd3j2vjWK+y3qBSoVQbM5DUoPNVr3rVJHOLim8wxs43Z4whlYl3cKj9HSGweiTf4+KLx2/GV5xYDKE0TijVtiSCnjp1KpYuXTypLj0hyHWAdaw5cwypTCRCeQ8gRtTiz5o1C4cfvmbckkktpWLIpT6hxIP0tXqqrVu3brLttjSl+A3gHGTOIEMqEwD2WkBcOdLv8upXnw1CyLg0wLVajBg0plDiI5lr7c9XvWrdZNx97ZTymzCC7mdDKgajgU5K+U8wCsVYZ5555rg2wrUGek12gkkacBYfz6wTS719NoHm1g9Y0DNm/RymONKQyjgFIcS6BiALR/qNWlpyOPjgg8adAa7W/LDWanuyqZKkaZlqc103QirVMr7i28KF88dlQsfw7Feso5R925gnQyrj72BQ66OE4NWj8V6HHbYGhGBcreyrEUq9ViMTlVjqZXPpZBInlCRiSUp2UPcJITj44IMn83rvLYzZlxsrZUhlHME+BMDnR8kc4fDD1zQ05308kEk14zpeVUutdvS1tmok4rouyuUyXNcNHosfe/19q91fvfqQSX2FCiH+0wTu68Myu6ApkKJU/ACAMxqEAgCrV6+OGCA1e6SZDGv8fi3i0ME5B6U0uE1cdw6x7mI4CKraa9Qr6qyW/aa+e606FP25+GupfVKN1A49dNVkv07TlPIfcY41APLGbBlSaV65SK0vAThw1IQ8oVi6dEnFylb1exoOozucRFLN1VNLgXDOE0cJq591t85wGf6BkE3892r9XM0tVWvfJJGI6u1VS7XVUncrV5pFOoADKLX+jXP3fWZXGFJp1kNwNID3j5bbCwBmzZoBy7LgeRyu6wZTEhljkdX9aBJLNRKp5f6qZyB1cokrloGSSTWlUMvwN6Iy6u2Dge6bWjGmpPeM74dq+5pSikWLFiCTySCfn/SL9HcD1k8A905jvwypNBtaKCXXAWJU/U5z584LfPCuS8GYG7i/lJHRjfBIk0stVVKvfqKe8VffI8kVphRLre9XjxBqqYfB3tZ7Lul3a2dvRT9zqNhQ8f2TCIUxBiEEGGNYunQxHn74UeNcoPge51gFoGjMmCGVZnJ7fWYkJjjWw7x5cwNSoZSiXC5HCEUZEPVYPcM7FNJJIoVGyaXayls3nvH7jXzWWllQAzH01Z6r9f0afY3kz1CblKKEQiLkonaLUna6QlG3QggsW7ZiQKQykP09zrCMUuujnLv/YiyZIZUmgbMC4O8fi3eePXt2YDxc1/UNTClioJQhiY/kTTIW9VwqgzU48Wr/ar5+nSySiEM3pMOlpGqRgu5uSsqsq1cTkqQ0Bqpoqu3PpDiT2mdKyOlzVfQgP6UUhx66Cj/96U8HtO+quVMnQJfpTwLODUDpCWPPDKmMNQgh/FsAxmSISWtra0Acilj0i1q5PNSmYhJJq9y4sagWBK9m0OPEoZND0s/VDGq1z6I+dzVyHOBBq2v09Ofj5FHr5+hzqNuLqxH3X3xfJBGK/jjnSrHwCkJR2zvf+Xbcddc9+NWvftXwflPnU9K+r7ZIGC8rQ8b41Z6HYwFwY9YMqYwZGGNvEAJjNvkok0lFCCR+kXueB8uygsl/SYolKaMq/nM9oomririLKu6GiRuf+GfX/07/zEmEUku96J9Dv42TXPx+0u/GjXw9tcN5fQJqtHFmsquL1N0ACkIksSgXqSIVy7Lw/e9/Bz09PbjlllsGRCzqnKoVwxlvdUVC4FWU2ldwXv5vY9l8+2Z2waijjRD2WwAtY/UBzj77TMybN6/C4ISuFkCIylYfSemq9QxALSNe7bFaf1PvPXVCiW+1iK8Rw9yIAkgy3LUMfOXr1Xe9NVIMWu3vG1dl0e+n7z/LsnDOOWfhz3/+M7Zs2TogV5ht24ECppSBserHZhzNcDlaCP4DAL3GvBmlMuqg1Ho/gOlj+RkymUyFkdZX/fJnebHr9SvxTY+7KCWRZKwbMeK13GO6UomTYPx3dSMYJ5NGiaSaIokrrCRVEo+d6M+pfabu6wStqwFKBTgn4FwE31/dJh2zeu1VBqJS1OdQUMff87wIubS0tOCXv7wBxxxzAl5++eWGSaVQKCCbzcKyrIC4VMyoWjt+zgWAplYubZSyL3Lu/ZOxcIZURhvtGLWalPoXeJL7ppJgSFVVwBhryFjVWuk3YtSVoUsilLjxrKdOBookcqkVB9I/l04mjfQtS/o53Cof092D8XqU+KKhkeOk72f9uylCiceoZsyYgV/84uc44YST0NPT0/B519/fj5aWFmQy6ci+C1vNRDspE8IrFj3NB/JGwP5PoPygIRWD0VQpHwLQOUY0Etzr6+urSjJxgklSHY26mGoF9Adi1HVlUO11awXlh8ONUktJxfffQFxXStHUIpokgtFX9Oq+roTiKiZJZen7TX2OuFrxPAJCvIrj7nkeAODAAw/Atdd+D6997esG1E2gp6cHnuehs7MDlLJAiUhCceG60f5l+vdvUnKhjImvex6Om+x2zsRURg8dhNAfAUiP9Qc56qijsGTJkkSDHDceyuetZ4NZlhVs+uNJBBN3wQzWoOsGON4IMf759BqbkfLLN5KwUI3swn1buc/i3yH+veQWPTaNJlLUMvLVfpZ/R/xaluTXX7p0KQqFAv7xj4EVmJfLZZRKJbS05JBKpcGYHTmv5PciIKT6sWyyuMsCSsnDQoinDKkYjIZK+TSAk4fDkA11Jb527VqsWLEikUgIIZpBk0bNtu0IkcQJpZ5aGU6XXdJKX71v1BjRUTc4jWTHVSOYJKJJJpRkEpcEw2oeg0bqRKorMtT8Psceewxuv/12vPzyhgHtM8/z0NPTi1TKQWtra3CuMRY/v+Lfh6BJ4/iHCSGuBuAZ95fBSCIL4B3DZaziBlO5CRpxfanVfrXX11fDOnkkkYjuOhlqgeFgXFBxVZW0b5oB1RIXGm37Um0gWXx6Y9jy3quY8JjUWDKJXPR2NnqiQT03GGMM1133A6xduw6vvPLKgPYP5xybN2/Bvn09mD9/PjKZDDgXQct+yyrBdUsoleTmupVuseZxiZHFlFrv5tz92mQ1dgQGIy8Hmf1WIcT/DNYgxRWEbkRd10V/f3+9NX5wb+bMmfjJT36IXK6l4nVDAql0cakag6FkVA1VpYT9yuRcEF2pxElvHKWjVnVHVYvJVGtrH+86rQe91fNxYlKvm+S+Szo/LEsqV6UooinCFLfddhtOO+2sgGwGrugp5s2bi5kzZ0IIgXLZDdxkxWIRpVIRpVIJ5bJbMR+miepbdnPuLgWww7i/DEZopUr/F8DMwRIKpTS4iB3HRirlIJ1OgTGGfft66lxE0ee+/OUvYuHCRRUuFmkopJFwHCfYlAFJUimjXUuQZDTi32OkYylj6UarliARd5lFXWdR11hc2envF18g1IphVPt8CxYsgBACt912+6CP8Z49e7F37150dXWhpSVXsbBhTB1jRNxhjbjxRgkZQiiE4LdMRntnSGXE4RxAiPjCYAlFXUy2Lckkk8kgnc4glUph+/YdddxeUZx55lm49NJLIgZIvbbj2AGh6CvRpDjFWBnt+Ipd30dJCQITZ1HSOMHECbaSXBrLkqtNKLWJ75hjjsbtt9+Ol156edDfuVQqYcuWLfA8jmnTpiGVSsGy9NZBVIu1oBmP+Soh+P8C6J9sFs+QygiDUvLPAI4aLKEwxuA4DjKZNNLpDLLZHHK5HF55ZRt6e/safs3u7in4+tevRCaTCVwZikyUKkmlUgGpJLmTmkEBxDOT4iv08a5SBkIy1dxV9YP/arXf+EIhqmTqZ7sdffQx+MEPrkWpVBrSd923bx+2bt2Kjo52dHR0asRC/VRkAkpHzw07kNUkIbQsBP+LIRWDYb7+2Xcgix4HZDCUilCEkslk0dLSgpaWHHbv3oWtW7c1YoKDe5///GewfPkKzdVl+660VMTVpdSJMkDNQibViDepen4SnVyDdpOpVb7cZ43VF1USSfXU6s7ODrS1teHmm/845O/pui42b96CUqmI6dNnIJVKRYhFfl+VDdZUWWGrhOBXY5KNHjakMqKwVxEiPjpUQkmnMwGhFItFPPPMswP6FMcffzze8Y63a+rEqUooSa6uZl6pN4NbrlkJJp4VV51kksmlulJBxA0WJ3m1HXbYatx2221DcoPFVcvGjRvR3d2Fjo6OKrUsajGV3MpnlJEihJaE4H81pGIwTK4vegXQWIVtnFBs265QKLZt4+GHH2kws0ZeTG1tbfj2t69Ca2tbQCiplBMhlHjspFmVSS21MpkJZSDusWp1MtViLLUaYEpDjqqNIAkhWLNmLb773e9VpDEPFp7nYePGjSiXS5gzZzZs2wrUCiGjPwa7ARziq5WCIRWD4SCVrwKY1agR0GMdOqG0trYgm83i4YcfRl/fwOJ+H/rQB3HEEUdo7i5JKKlUKpLZNZ6McyPt9g3qB/irNd5U7iQ9o6p6t+XQDaa/hro/bdpU9Pf3D7javh727NmLbdu2YebMGchmc0ESQmWBZ1OolYIQ/G+T5rwzl96IYTal1oZ6+ziJUNLpFNLpDFpbW9Ha2oKWlhY899x6vPTSSw2+tbyIli5dghtu+BkcJwXbtgIiUepEH8I1HoxytS68hlAGtg/jm6rz0Os+yuVyUEipal6SkiT0uia9dkVXvoVCAQcddGjD3YxrqdOKVTFjWL16NaZPn458vh99fX3o68ujv78P+XwehUIepVIZ5XIZrutW1OiMEvZw7s4D0DMZzjGjVEZMpdiXADirkQsnTiiZTAa5nHR5tbS0oLe3F088MfCJpV/96lexYMGCiDqJx0/Gk+uoXidkg8HtwySFUdktoboi1N1OSa/jOA46Ozvx29/+bsiEEv/snHNs2rQJtm1j5swZ/vvG59LIOUHxhckoIk0I2yIEv8eQisFQaOVThGBZI4Si4iiqDkURSmtrKyzLwj333DvgCuXTTz8dV1zx1qoB+cmSfmswcIJOjq3UG7SGmnGZlSsPwK9//Wts376joc9WTc1XW1Bs374dnHPMmjXLj7HIzyQE8ZW7iLjCxoBcFgvBv414NbIhFYMGYVFK/ws1OhLHA/OKUGQcJYe2tja0tLTgoYcewt69ewe2LEqncfXV/4Xu7u5IdXyzB+MNxoZc9NukJqPx30smFakQ4kpHb/Uye/Ys/OxnNwyIVOqpKf13du3ahXw+j3nz5gbEIsmE+Lc8IJYxIJVuxuhdnPPnDKkYDIZTjiQE76xHKMrtJVOHJaHkctmAUHbs2IGnn35mwO/+nve8G6efflqkoFEnlFruBQOjWpKUQGjIpaGulu1Vq+X/smXL8Je//AUbNmxsmOiqJRhUa666b98+lEou5s6dU2VM9tj1B+McXQD/kSEVg4E7vih9C2qkElcLzMtMr1a0trbCcWzceefdKJfLA3rvWbNm4dvfvgrZbDax/sQQisFAFEJ10gEqK+tRlwQWL16CH/zg2oY+Q5I6qTYYTv0+AOzevRuMMcyYMQMyTyYcRyzVCvdjLGJU3WGEYLEQ9k8Ab6chFYOBksqXAMwdiNtLD8y3tOTw+ONPYtu2bQN+7yuv/DJWrVpVET8xLi+DwRJL9boVvQAymlqcVAdDCMH8+fNw330P4LnnnqurUhRJqISSRub3qL995ZVXkMlkMGXKlIBY1Lx7RS6cj3p8hRAiPCH4zRPa/pnLaNjRJgQOq0M6WpNIqVIymTSy2Syy2Qz6+vqrXnS1cNBBK3HuuedGGkJOxvYlBkMnlnjlvT4KQZ1f0XOMxNxNyQPVhBD47Gc/3TC56eQUnfXDYltl89OHHnoYe/bsRTabQS6XQy6XRTabRTqd9tPs7bGIMf4TgDajVAwa36GMnQ6Qi2tdrKr/Vtzt1dIiixz//ve/o79/4O2C/vM/v4GlS5dWtKo3hGIwWHKp5garp2SSYipqmzVrJm699fbEuqu4UknqtBwfGhdNKIiuk7dt24rFixfDsqwgphLOo/E05aJIb8R3a4oQ9rIQ/D6jVAwaghA4pd4KUJKKLEaUAfp0cLtp02bs3LlrwO975JGH45RTTqm42AyhGAwHscQVS9KI6SRVXE2xfOhD72uIzOLEEi+yjA8M09vjU0pRLJZw1113I5VK+Z4A6Q1Ip9N+EosNxqxYIsJI71Pxxol8zphxwsOPk+tdnCrjy3FSSKflyZ7JpOE4Dh555NFBvemnPvUpkzJsMGLEEqxCKU00/p4nRw3HOx0oYonj9NNPx/Ll++PJJ59OfJ/4NUMpiSgU1UBSvb5UHTzxvN++fTueffY5LF68yO8O4PojicPpmJx7FW66EVx4HgGk9geKTxulYlAPCwCyuBGV4jgO0um0P3QrjXQ6jfXrn0dPz8A7OZx66qk49tijDaEYjIorLK4c4qOnG4njEULw3ve+t6ai11v0R1VKdDqpTEpxYFn6cLmo+/exxx5DPl9EJpNCJiPVSiaTRiqVhuPoBcGjYxIp9d5g3F8GdcGYfcpAVYokljQYY3j00ccGcXJSfO5znzGEYjDqxBJ3iYWxD1YRT0nCxRe/Hu3t7VXfI8ntRqk+D8ip2HRiUfEXxmTo+IEHHtRczjqpOLBtK/ib0bmGyBsmqv01pDKM4FycXm/lFVcpmUwGjuPgqaeeRj4/8OD8+eefj0MOOdgQikHTKJakiaFR9490LWWzWbzudedXdX3pKkVuejwl3NT00rDrtv5ZQtW0bdtWbNq0BamU42dcZny3czooEB69bEkxz7KsYw2pGNRCjpDKIH1SF2KlUmQ6cQqEEDz++MAbRlJK8clPftw0VjQYE2JJTvdldYlFv/+mN70pkUz0eq7KQL0VUSvqMctikQSCeHYYpRT3338fCCFB5qW81btOjF5fPM7JhAzYG1IZNtcXOx1AtprxVyolrE1J+/nyDp599rlBzfI+++yzsXz5/oZQDMaEWPRzO04sSaSSdI6uXXsYDj74wKqur/CWViWvZJXEtM8VKo98voBnn33W9xaExOI4qVhsZTSuJ3E+gBZDKgbJp4eg5zaqUsJW9A4YY3jyyacG9Z4f/OD7E10HBgaj7QpLUiz6z7WI5dJLL63y2kiozieRUciV70UTR2Lr25NPPgkhREAsqVRaGwvBRlOt5BhjrzGkYpAEG0iOp6iTW0lzNddEncTr1z+P/v7+Ab/hcccdh3XrjpiwhJJU22AwfshFN/z1AvYXXXRhBfEkNY6sN/Y43issSSkRQlAqlfHcc8/FXNEyg0zVuqj3G2lwTi4zpGKQ5Po6CUBn0sWmV9DbthPMN0mlpA93MLEUAPjYxz48ockk6XGD5ieWWoZf/z39uE6fPh3r1h1R4Vqr1om4ljtOf30hULVv2ZNPPgkAfpBfLfJSfmry6BUPE4ITUaVPoCGVSe36wmtru74qVYpt23j55Q2DqktZteognHDCCROSUAwmnmKpF1cBgHPPPbcuAVVTsdWq9mshny/gpZdeClL85XVpaxlko5aiTym1XmdIxUBHGiDnV1MpKp4iC7ZCleI4Dh577LFBveHHPvaRCef2is+fH4yhMGhOcqlHKEIIvPrVZydmiMXPATVj3vO8xFvV10ueL7XPmWefXR8pRpbBelnroquVkd9flYtSQyqTGIyxVwPoqK5SrCD1UZ8Rv3nzFuzevWfA77fffgvxmte8ZgKrPpFoTAwmNmbPno01a1ZXPQ9CMuF+axUP5XIZrusGt67rBs+r34+STHTxsmPHdvT09ESuUVWZr4L1o5EJJtu2YKYhFQMA1QNtuutLzk1JRYhlsCrlfe97X1AhPFmIJW4MDCYmzjzzzIrzIK5OJJm4EUKRm4tyWRGLV0Es1c4hqVZoUInvOFbFYLvRcYHZ5xhSMQCA6dUKHvX2EjKrRElsG9u378D27TsG/Gatra245JKLJh2JGEKZHFBxQnW8dVLg3AvUiCQTF6VSGaVS2b9f0gimDM9zA2IRAhHFop9nL7zwPADAsmik67EqphytmhUhxLkT5TiaLsVDWl5Yl8b3YVKAPgwEygD9E08MLuPrsssuRVvbxJzvkxRTMZhcOPjgA9Hd3Y3du3eDcw5KKYQQ8Dwvcm54nhcx9rqaEUIqmtAd5lUQio5CoYCdO3ehvb0tuF5tW1bW60WU6jVGCoTgBCHQCWC3USqTG5dVUylJAXrHsbF37z5s3rxlUG/21re+dULvzHoTAw0mJvRsr2OPPSbi9lKurJAoyiiXS4mbfK4cuMZUW3udWJLOpU2btoAQWqU6n45WGySbMXbGhFhsm1N60CJvHYCDqqsUS+tIHDa7U/nxg3ENHHDA8gm/V+NEYlTL5CKX448/LjEwH42flFEqlapu0v3FKwilmtrYsmWT73lgsWaULKjgHw0XGOdkQrjAjPtrsGxMyTuSUhZrub7y+QI2bNg4qPd717uumDRkov+sBj+ZVjSTg1ROOOG4iFIJ4ysClPJE1RBVtoiQiH4/adECALt27UY+X/DTiKl/q7vA6GilFp8uBLIA+sfzcTRKZXCY4jeDSyQU3fWlB+iffvqZQa26Z82ahTPOOGNC7shqZBK/8I1ambhEom6FEJg7dy5mzpwZCdKH7i+5qUwvfVPPKbeXHk/xPK+u6t2+/ZWg15h0g7HEHmIjjCxj7ORxv+A2p/VgVIr1VgDp+MVRqzbFdT288MILg3q/Sy65CJY18UVltRoVQyiTg1zUtmbNmsRU4sr4ihshkXhwPq5UlFpJwq5du/3PQX03mLoNRxePThYYHfcuMOP+GhQRi7cCJIFswuaRjFla40gbzzzzbM2Tuhbe8IY3TPidWk2Z6Bk+BhN9sSbXuIcfvga/+MUvRvW9d+/eFfQKk9exrlQqFdUIXgln+ot9Pm6PozmVBwaZoUEWVlMpqnmkGlFq2zYAYP369YN6vyOPPBzLl+8/KfZttRoVQyiTC2vXrh3199yzZ69PKvCnTdJArYzeNEgAwBTAPnScr7oNBgLOyQeqrbL0Cno9QP/SSy/Ddd1Bvd9ll1024fdprb5fBpMPq1cfEizGRgvlchm9vb3+IpHGmmGO7qhuSsWphlQmDeyDCcHx8Ucr4ylOMDfbshjWr39+UO+WyWRw/vmvnRR7NolIDLFMTqTTaSxbtnTU37e3tydQK1FiUYQyOqSS1KXDkMoEBaX4SPzM0mdpJwXoX3llO/r6+gb1fmeffTY6OjomPJHUe9yQy+TDAQccOOrv2d+fD67psD5Fz/7CKAXrsQ5AuyGViY85gLggmWzkSSddX3ZQ8JhKpfDiiy8O+g0vvPC8SbeT4+RhyGRy4sADDxj195SLPwGAaMRCRquiXofFGDvOkMqEVynWBwHYlVK1Mo1Yub7K5RK2bXtlUO/X2tqKk08+eVLs26TaFKNODKmMNorFgub+qhxjPJrEIgQZt1P4DKk0hg4Al1cjlKQAveM42LBh06AN49lnn41MJjPplYrB5MTKlStH/T1LpXLk2pYBejraKkXhWEMqE1ulvBtAaxKpRHt9hRX0qZSDl156adDvef75r5m0hGJUisGcOXOQy+VG9T1dt4zq7i+MNrkcCKDbkMrERBuAD9QiFBWk11VKX19/kKI44Ddsa5s0rq9aCsW4wSYvCCFYtGjBqL5nuez6742ao5BHiVgoY+xoQyoTU6W8F0BXtRM/7vpS25YtWwf9nmeeeSbS6fSkIRMzkMsgCQsWLBrV95M9woKrO1AsYxCo968FMi5dYIZUaqMFwPuqEUqS60sN+dm8edOg3/Scc86YlDvbNI800DHaSkW7uivUiv7cKOIYQyoTU6VMqaVS9PoUtZVK5aBB3UBhWRZOOumkSUMgjf5sMBlJZdGon5Mhf5DgflStjOpHOthf2BpSmUAq5f31VIrsEcS0dGIHu3btGvSbrlt3xIQueDTEYdAoFi6cP9pnpH99wycPMtZzfBhgrTakMrFUytSqAtknFjkhzgriKpbFsHPn4Ellos5NMURjMFBMnz5zlK95BhVLaR47hCPG23Ezre8HqFIqlUro/lJjSLdvf2XQb3z66adPWiIxhGKgY+bM6aMrCxhLdH+N7bUx/kjFKJVklfKeWipFEYtOKopYPM/Dnj17B/W+CxbMw4oVyya9MjHkYgAA06ZNA2NsFEmFRpSKEMBYn4qEGFKZCMghoS4lWalEm0kyxrB3b8+gjeIJJ5wwaXe6IRKDJOUwderUUXs/27YTYijxKaSjvhtmAJhjSGWCqxRdqagJcXKj6OvrHfR7H3vs0eYAVNnXBpMTM2ZMG7X3SqVSWpA+Sig6yYwBua4ypDJ+0Q7gw40YuWizuZBk9u7dNwRSOdYcAQMDDZ2do9epJJVKawsYUTEwbqzUtBDkEEMq41elfBh1+u3oxVBxcqGUYt++wcVTlizZD7Nnz570xyB+4RqVMslXee2jN1ZEJxUZTxFVh8eN7jUBo1TGKaahRsZXNXKJV90OVqkYlVL7YjXkMllJpXXU3iuTSSMM0ksi4TyMpYyVWiFEGKUyTlXKJzGI6tU4seTz+UG9/3HHHTNp970J0hs0g1JpaWmJqBTOOYTg/u1YNjYlCzCOJkEaUpGYD+CKob5IqVQC53xQf7tu3TpzFAwMYhjN7hIhqUhC4Ty8HeNaKgLY+xtSGVcqhX0OQGqor1MoFAf1dzNmzMDcuXPNgaihBg0mJ1pbR8f9JVssWT5xhArF86JqZazAGF9qSGXcwFkOkDcM9q/1QN5gXV9r1qyZlHvezEoxqIdUKjUq79PW1iYFgZ/15XmKULyI+2sMM8CWGFIZN6tg/kUAbHAHOnqiua47SFJZbaxHgjqJZ9oZGFIZKSg3W+j64uDcC+6P/QKIGKUyPmAfRgheM1giiacZep5nSGUIqkUnFAMDSSr2KJGKjINzrlSKF2zNQSrCkMr4WA2Lf8MQW5LqBDMYUiGE4JBDDjHWw8AgAaM1AbWjo0NTKVFC4RxBAs4YEstSNFP7ZEMqlbAs6wRCcOJwEcpgSWXRogXo7u421qMO8RpMVqUy8u4vxhhaW9sgBCKE4rrNpFTQAmDmeDhmk5VUiBD40lAJJX5/MCfdihUrjeWoQSCGUMz5MNJoa2sFIQJCyOC863pwXRecu0GtSnMklVjjwgU2KUmFMfZqIXD4sO9MOvDdecABy43laMCgGHIxGClI1xf8FGIPnucGKkVXKmNvt8gCQypN+p2FIJ8bCYM3mNkPy5fvb65qA4MxRGdnF4SAH6B34bouPM/1CUVEih/HEkKIWYZUmlOlXAzg4OFaSeubZQ18kOayZSsm3UXcyAVqVIpBo+fKUDF16tRApUjXl+cTi1QqzeP+Eiam0qQq5ZPDRSR6d2JK6YBJhVKK/fdfYoyFgcEYoaWlBZlMWiOVuFLhTVOkKwQxSqUJVcprAQx5Xq9OKGpAF6V0wOmPCxbMQy6XM1d2HQI3mLwYbC+9xlXKlCCVWLm+ymUVU+FNE0+Ri1DMGA/HzJpcpyj56HAYuTihqHHCjjOwQq399ltirEaV/WxgAMgmrSOJ7u4pfsFjqFJ0pTLW7VmiSgWdRqk0E3ta1ilC4LChrxaUq4uBMQu2bcO2bVgWQy6XG5BBnD/fNJE0RGNQC4VCYUTPqSlTuv1U4mTXVzMpFQAdhlSaCJ6Hdw71BFTqxLIkmcjOpurWgWXZA3KBzZs3z1gNJMdXTKDeAACKxfKIvXZbWxts24lkfUnXV/PFU3wYpdJEmEYIzhgsmcQJxXFs2LaDdDqNdDqNVCoFy7JgWRZaWhqPkRilYmBQj1SKI/baU6ZM9eMpMuNLEkrZVypNp1IAII1hGNFhSGU4viS1LgUw4M50aoWsE0oqJckkk8kgnU75xJKCbTtgjKGzs6vh158zxyiVRo+BweTESMZUZsyYnuj6kre8GZUKBmPHDKmMDN44eEIKg/K2bSOVSiGVSiOTSSObzSKTyWjuLwtdXY0rVKNUDKEY1MbevXtH5HVTqRQ6OjrAuWrLUtaIxQPnXrPO+2n65KpJQCrOMgAHDdao6a4v27YCt5dUKmmkUg4cR7m/GKZMmdIwWc2ePXtSGwwzpMtgrEhl+vTpAMIq+nJZj6c0pevLkErTfEEqThvKKjkkFRoJzkvFIhWKbdtBrUqjHYe7uroGVYFvYDCZsHv3yJGK6iweKpRyRYC+CYnFuL+aYDV8/PCQU7QuRd8k8UhV09nZAduuf9y7ujqMxTAwqIM9e/YM/1LfsjB16pSg4FFXKfHMryZEsdmP2YQnFUKwZmh/H63qjs9QUSefbDzHQQjBjBnTG1IqBgYGtbFv3/CTytSpU0AIjRU8lseD6wsA8oZUxhZTMcTBNvEhXPqJWCqVUSqVUC6XIyucGTPqd1Po6DCkMlhiNzBKZSiYPn1GpNdXVKU0bdbXuFEqE9ypb88GhnZihITCUS6XUSoVUSza6O/vj/T90htNzppVn8eMUjEwqI/hjqkwxjB9+vRYA8nyeMj6UoTCm/2YTWhSYYzPFmJwK1x9mqNMO3T99OIiCKEVq2f955kzZ8GyLLiuW4NUOozFSNjfBgYjqVSmT58GxljgXZDxlLJf9Nj0rq+d4+GYTXClQmcOh1JRnVL1Qqz4akZXKqlUCrNmzcTLL28wSsUQisEg4Xkeent7h/U1Z86cmZD15VZMeWzSc3KrIZUxN1ZDa2mgTix99VIqlbSTLk4qYQry/Pnza5JKe3u7sRoxQjHkYqBj7969w3pOyKyvqX5bFun2UopFtbpv5topIQypNMViZziMnhAChJBYtldINJXt8C0sWLAAd955V1UXWCqVmtQGwxQ+GtTDcMdTZsyYDkopSiXl+vJQLpdRLofxFM6b95wkRGwZD5fMhCYVQuAN10HQVYvruhFCIYRG+oMxxpDLtWD+/PlYv3594usNZp79ZCEbk+llAABbtmwZ1tebOXOmPzslVCnS9eVqi8RmXuyQDePhuE3wlGLePxKraz1zpFgsoVgsoL+/H/39/cjn8ygUiiiVili6dGnV1zKkkkzaBgYKW7duHrbXchwHU6ZM1Xp9uVq/L6/ZCx6VUnlyPBy3Ca1UPI9spMNMm3HFoqrpLctCPm8HQ7scx8aUKd2YPXsWNm3abEhlAIRi1IoBAGzePDwhhNbWFsyZMwc7d+5AuewGi8NMJoNMJoOuLs8vFyijWCyiWCwin8+jv7+/qfaH57EnhsGjb0hliF/vZcAdMSOoFEu57KJQKIBSBsdxkEoVgp5ghxxySBVSmZxG0ygSg0YxFPeXZVmYM2c2Zs2aCcaswLNAKfHPQ70kQI60iOkCcM5RKCgvRD4gGpUNOspwgdKzRqmMOQobAcsDMOyyQBlHz/NAKfXz3UvI5/N+N2MbqZSD9vZ2LFiwAC+++KJRKgnEYrK/DIZbqSxYMB8LFy4ApTRoa68C8Z7nQcZNAMUphEh3BqUUKqOTEOLHRnPI5XL+c/IcLRQKyOfz6OvrR19fH/r6+vzXHVE8i3FQTT8JSAVlAE8CWDlSxlHlvEv5zGBZBRQKUq3k87Il/pFHHo5t27Yhn88bUhngvjVkM5lJZWAxlVwuhwMPXIlcLgvP434LJTdIG1Yua/8MAxAO4ZMNYUNyIUT498PH5c+SaFpaWjF9OgGlDJQSFItF9PX1obe3Fz09vdi7dy/K5eEchSzuHjf+oUlgnu4CyMoRe3U/cM85R6lUhmWVUCgUIrPrbdvGUUetwy23/Fk7OamxGgnqpVo8xRDL5MO2bY27v7q6urB8+TJYFkM+XwgWempT7q94KrsqBYiSSjSjU7VhYkwqGfmYJBTLYmCMIpVy0NHREZy7nHvYu7cHO3fuwNat29DT0zPEvUHvHQ/xlElBKoTQu4UQlzd8crYCBy0i6GyRxYzbdgPPbBLYvkfUJBXlBiuVSrDtYiRob1kMM2bMwPLly/HkkzKBYyRnb08EgjGBeoNNmxojlSlTpmDx4v3gujK2qdSJ3ErwPFUGwMG5iJxfOoGohR6lAGNWQCaWZQW3klgsAAKEAEIwEELBmBzSJ19HeiGy2RymTZuKxYsXY8+evdi4cQM2b94yKFcZ57jXKJUmgeeROyitvcpdt4LidccRHL6CobtNnlSyOt73uwpgdw/w9AaO3/1D4Oe3eih7lYZQBe2LxSIYszRSkbUrq1cfip6efdi4cRN6e/uN1WhAhRiFMjnR29uLffv21f29zs5OzJ8/D/l8we8cXkK5XEKpVPbrUbygBYuKl6hzilIKIaCRCdW2UoRsGKP+dFe5OY7tF0rKxackIAuMWX4BNPWVj7QLcnxxOxYsmI/nn38emzdvHci5XQTKjxhSaRqUngLYeoDsF3/m0CUUn7iQYsUiCosBlAGM+QWNilj8E3FqF8GUToZ1BwKfuJTixn9wfPknHvb0hmqFEALP81AqlcFYITi5FKlQSnHMMUfjpptuHvaeRhONXAyZTG40EqRPp9OYPXsW+vvzKJdlOrCMbZaCGIq+VVPAOqmE5BJVMPpIccuyUC7bcBzXzwQTQWBfusSs4PeVwrEstci0sGLFCkyZMg1PPfVUQx4LQvAQxkmQfpKQCgCQ3wN4n3aQ8M8XMFx0IkPKBmxLEQqRtwRAQCoEEIAggBAAONDeSvD6kxnOeRXFd37P8bVfeL5E5YEvl1ISqbBXUjqXy+Lkk0+q2RfMuL6IIZZJjnrpxIwxzJ492y8+lsXGpZJ0d7muF1yLjSZ76DHOZOUiSaZU0omlHGlEqfhKEYr6nIpwlB2glGLaNALHcfDkk0/WXWAKIe4ZT8duUqQgMUbLQuAyAEhZwLfebeHMIxgcRxIKswDLIrAsAcaIVC0UYFTeBhsBCJNEQymBYwNrljO8+kiKOx4V2NWjn7gEyu8a3pdnnWVZ6O/vx/LlKzB16pRJTSDxTZJ+2PFZkbHu8zaY+Ljtttvx29/+rurzU6dOhePYKBQK/lb0yaUcdB/We/TV21TtiZ54o1zaqgpfPe553H9c/134rjQSkIkM5tOAVMLxGCQ4z1taWrFnz56aYzIIwbeFEOPG/TUpSIVz/jIh9HKLofV/3m9h7QoKxgQsRgJCYb5SYYpQGEAo/BODROIs1N8IIaBEoL2V4vxjCLbtFHjiJVHFrUMiJy5jFHfeeRcWL16M6dOnGVKpMUpAXzEaTA78+te/wW233V7V7dXe3o5iseiTSSEgE6VOBqNyqxGNTjJxl5qawaLcYLL+RT9vScJ5K3uMqQaW6XQKu3btrvqZObc+Cni7DKk0mf0ihE678nL2qiNXUqlKGIEVUyiKTBgjQfsVQoUfXyGgytD5BAMilxEEArZFcMIhFClL4B9P6Ccq/JNNrmbUSa9WPnfeeSfmzp2LOXNmG1KJXVS6SlGrPYPJgWuuuRaPPvpo4nMdHR1BCr+qRVExlOF2mVZTM3GCqVTbCFSJGouhv2ZISp5vCzz09vYlfYSNQpQ/ZdxfTYgffSx16pr96TrLlmokcHsphWIpdUJ8JSIqs8CIFmchoZMr+JESHLY/RUtK4LZHhdbORUTGEnMuAoleLpdx1113Y86cOZg/f54hlZhSUQrFkMrkwje/+U1s2LCx4vFUKoVMJhOkC48kodQ6Z3VykLdesICUqcZEm7EUWAq/S3LYkFalPhMC7NmTND+G/EoI/mtDKk2Ge690Vk7ppv9rMdgqZqJIhFlhDEW5uSgRINQ/KdS/YNUh3WJqBQKfZAiVikUIgYMXU2SYwB2Pi0ifsPjqxHU9lEqyWPKOO+7A1KlTsGTJkgl9LPQgfPwCrUYq6taQyvhFsWcT+vY8Ca9/JyhzQK1Mzd//zGc+nxjAzuWyWvv6sesuHD9vZXqxcn9JdzelTMs2E8HiUn1mRSiqiWWxWIpMl5XXgfiGEOLh8XSsJ3z217NXIbUT9OcWQUYSh4gQiCIJSlR9iiQUtbYQmjs0eFRAusW4H1wRAuCAIASy6Fbg8rMoevIe/vv3PJLeqAqxSiXZMt+ybD/lsA+f/vTnsXv3blxyySWTxtjUK3I0GWDjE3s234WtD38NtP8R2NZe2HZ4jfVRQHAGl6fA0QLBpoCk5yHVcSCyM48BazkAW7dWphTLBQYN5skPJX4yEqpFzVaSsVkrCNarc9y2BSiVw/6kwlLZY9I22LZd8Rae590y3o79hCeVV3jm8ylLLCPKtUUliTBKfBeXCGMlJJbHHnq5gp9VIzoiCECEzARjMrtL/vNlrhB43/kMG7Z7+P3dUZ+rlL0uLKtUkXL8qU99Dtu2bccHP/h+Y5kMxh0K+7biqT++Caz0IHJZwM74xpTpizgCAhcpeKCkHwKvgOBxoOcmeD3/DtejePG3bdizV2DrToHnX3bxj8c8/B13JFoAAHc4SURBVPZO4g/Vii7Uxhp6jZosKfD81GbHb91k+4WWHJTSQGnJVvsln1zchAUX7gawabydAxPan3DPVzNzKRPXMkYc23d1MQZYvuuLBtlevvsqOOHDWElMpvjJwaGflBARTKonUOQCwPepvmol8JcHBXbsFRXjiEO/qht0OS6VSrjjjjvQ29uL4447dsK3K4mvNKulFRv3V/Oj55Un8cgNp8DyXkQqLeCkBGwHYJaAZQHUAhgToJa/UQHKBIi67y/4qMXhZATaOwjmzARW7E9x2jE2/nAHsG2nCBRKMw3VUueqqkcJCx6toIgSID4hqs4bJZRKRRQKarBfGYVCQX/Zq4Tg/xhv58GEztEsE/wnJSQXnKyBMgldXkGchGitsOOEAoRNTUk0tRhQKcZ+Vpifgmwx+X65NMHVH2BozYgEMikHFcAqPVJtX/vaN3D55W+vmb8+UdxfOnGanl/jE8X+XXjwhvMg3L2+IqGyYtg3M4KHizPpBhMgjANMgFEBwgTAePAYZQJUPc849va5eHx9NNuq2c5j5W3Qz2n9mtev90KhgGIxj0Kh4BdtuhVqhXP2y/F4LkxYUrntS+ljLYazg8p4IgIiIEQ5qXyCgQyyE0FAkwglTixQmeZKncjXVMRCmQCodItRi2DmVODb77EqUhF1cpGpkeXIdv311+OCCy6KtMyfyORSi1hMbKW58cTNn0S5f7sML3IC7gJumcItEbglAu5R8DKB8BjAKQSXK3eqlD0REETI68i/ugQXMvkFAvc8yoPAfLOpFL2OKmzXQoP4iSohkEH5kl9XUwjmssiiTdkJQHN93QcU1xtSaaYvZpOvqwJXffUQbDSsNxE+kYhGFski4g3zlYt8LRARFkX6cp758Zs1ywnedTatcPvEs8L0tg+cc/z+97/HWWedgz179kxYIonfGowv9O/dgk1P/SqoKvfKBG5JEkq5SOGVGMpFBl62IMoMnksBjwEeg+BULuk4AeEEQhAIED9mKX/mnOLBpxFxHTeNnYm1dNFjpMpKCMHheWrxKDO95CTJQpD15boupne6OP8EFawn3x63tncinuR//Ur6LZSJQ0I3lTL2CG79ukUtPqIVNDZqFBG6vwIXGiVgSuIz4icFCDAKvO1shkP2G7jhvO22O3DiiSdj06ZNE+5Y6YSiuw0MwYwfPH/3NYBwJam4gFcGXBfwSpJcvBKFcOXGXQa4FoTHfNUilQsFBRHSZUY4ARcEwgO4BwhP4N7HvEhgvpmUa0goLEYqCAaDlUqlwO2Vz8vRxLIbQOihOGwlwXe+ZGPHbVm8+NvcF578UfvHDKk0Af7xNWRsC5+H30KFRgoXhbzVmkXKuIgICKLhc5WEm9AohvrFT9TPLmMqzsII0ingP65gSNsD/16PPPIY1q07Bg888NCEIJJq7q74cwbNj23P/w3gAtyDJAMBCA/wOAHhMp7CXUhS8Si4SyWh+KQiPCpdYiAgHgEHlYqFU4ATCI/g6Rd4ROU3m9tLpTuHbZ2Ir1C8gFT6+/v9mff5oDZFn0p50uEE3JOF2K3dfM6MBfjypps7eh+/tvNfDamMIQql3L8SIWaHZBLGUiiVreyVSiEIFUoQLmnUnsXdYL5iiQbzpZvNon7WCwVmTgX+/fLBZXJv3rwZJ554Mm666aYJo1LiSiWuWgzBND/6Xnk6UPyC+wsz//rgQkAIeVFw38UFQQGXgAipXgi3IDgD8Sg8MAiPAB6RnSc8oFwGXtk1tjUpjZKLsgqquLlcLvuqRMZQ+vr6tZ5lxaBNP6McJ61NQXgM3KWAR0AEkM6J3NQ54pPrb+h88e9Xt+9nSGWUccuVzkEW9d6NoD2CH0YnQm5AdE4KjZLAgIlFIyWld4hGKLKNvvBbv8jCSEYITlhNcP5Rg9v1vb29OPfcC3D11f87oVxg9UjEkEtzoti/C+VyD7S8+qji12+J7xMQABEUnEtCAZfKRQgLhFMQT6oT4lGgTLB7F0F5nCRBqhZMcq5SKeig3NfXr8VQ5K1ea3PWUQ46MjZE2YLnMqnouLRflAnk2sT8Gd3s4buvaj3akMoo4XOfA7U4uYYQ4QTuLiEzsoKuwjTMG04MyqsilEEshohSKkK9lwjekzIRdD+mvmr58IUUc6YOzlB6nod3v/u9+MAHPtRUQcvhIJRqm0GTqpTdm2Q3CUEALtlE+BcRgQhki1DEIuRwIg6pRoSg4IKCehTwKIQr3V7cpfDKBLxMsW3neCCTsCBTb72Sz4cZXopM9Pb8ilQuPzsHuAzCZUDZAi9b4L67EEIuUJ2MyHVOsW968P+1NXUvpwlDKsc46U8RQg8lQWwDYTGV8nP6jxO9UaS+wBIDVylxj1jowpGvqr8XZX6aMSXIZQn+/fKhFfN961v/hYsuesO4TTlOiqXE8/0NmtyYugUIEg6yC+OTJOw+oV9WEQXjr8I8Ak6onwHGwMvSBcRLFJ5LsXN3c6eT67UzqoA5rDkrRMhEn0qp/vbYQ1I4/IAUiGA+sfpZciXmx59kFhyjgJ0WOWqT/xNDslSGVOrib19MH08oPiUbQfoTHKl0b1EiAh9V0LIeslhRsQlRLewHe5iUMkK0mzGlwlcwJKJSmN+DbOVC4N2vHtoh+OUvf4lTTjkN27dvH5eEElck8Xb3hlya/khKYvBvhIgKfUG0nwUCN7QI/lKmD3MPgXIRnIKXCIRf20J48x5/vSRAqg+vot4sTib6Rgjw+be0g4DKqh1BQYlUaypjznP94lG/S0c6xRbc87XOjxtSGSH86d+cA2HhBkaFDd8FRfwpi0HlPBWy87Dfzp5GuSBcPA12QSSS1UqQaaZNjmSUyOmSvnp6w4kMBy0a2j646657cPTRx+Lpp58d14rFuMDGH+xMZ+AyJmoB57vBiIgG7cN4iwD1yYcGXEPAAfASwMsAOIVXpuAuYJPmNFPxIV7KpaU2RSSKTJL6lb3h9CwOXmL7/nOAQaoSIqjMnHMZeJmCuwTcJRBcLlidLHlfs6qVcU0qf/ySs4wJ+n8QoguQfkc1VIv6ioAgNOiBoqChOgHxd4IAhmS3Yu40vf0L1QokVXU/Y7J+JZ0S+PKbLWTsoe2L9etfwPHHn4i///3OcU8ocbUSd5UZjC305qhOtj2yKCMagaiOE0RXNIJEvF+eR8D96nm4JIi9yEJKDq8ctkMab8QSVyVxTO9i+MLl7bIThxo9rgk/gEkS4QSiTMH9BAYhCJhFpt35jc53GVIZRtz65fQJNqH/IETMIFowXrW0Z6pehJFgNgoN5p8od5UIiWSoJ25M9kd8ySScea8mS1JfsVBKMGsK8NnLht4scfv27TjllNPwgx9cN+4VinF/NQ9x1NqcTEegN4QAuF5VrMt/X7mEhcdhcIWIkGQIAM4B1xXgHgHngMOa+/jHyaMemSiPyrc+2IHOVhYxFIGdUvAoeNmCW7BQ7qMo5yncAoHwBKgQbzGkMgy4+m2w//zF9OcEcDMlolMVF6o2KUzVo6hZ8/5jRM1R0ToRB4un4VKRscaU8WaVahKcrLaXisqyBAgjOPFQghNXDf1wlEolXH752/COd7xr3DSjrEUmhljGhkiSHksenUtArTQiYkRErwmh39c8ZPK/8AERFFDKehfPv9/dNvH29fsvbMXJa9N+QpxUcKrfufBXpapDh5IuQYkElQrQduiBf79y+jRDKoPEH96D1N++lHnv0v3Sz1ImPksIbML8oThEgDEB2x8FbFERZHwRv1VK2KlYUxKxbsNDvyoRyPfo+GEVuA8Jj6hOxpTAogIWBT5yIUV7dng+yne+8z2cc85rx03PsFrFj4ZQRodM4j/rvbbi9/WNMic4/5XrhivjGBhLUaHk1S+HYRcBLoRkEvijd7lA2ibobJk4JXVHHZjCxy9r8xsTIprooxa+CJvVqumyCKbRBu2nmCDFppvo19RDum69Mr3Q83A0gTibUJxMBG8nIMH8EwoBUO5nU/kZVhZAGJH9tix9RHDYgTiSTkyGnElcoVbiDwQzV1RvMCEgGFDmcqwx9y/C7naCz77Rwgf/e3gUxp/+9Ccce+zx+OUvf4n99lvYtGSiz1Cp5SYzGBlCSSKXpDHPSXNvAIBYWfDiXq3AUbq0VJQ+iKrEA/fqlvsiR2ifg/v1Lly6w2Z3E+zuHf/7e8EMhu99rBMWld9L1tNVKjlCQ4KWY8tlshHX+xYSAkr5KQC+PmFJ5fYvpxcVKFnlULGccDqDE9FNZdgiDUoyQvoSS0KIPCEA91BkjJQ9LloFgSCCtFDAAcEMATEHEB2EARQUHNJ9Bc0nS/1eXhaVQXrqB78tJkd6Uk0dBH9bkTpMhjeHQrtgdNdyuLoAOAUol7EVNS1ScAFuC6xbLnDO4QS/vXt4cvOfeOIprFv3KvzkJ9fj+OOPH7fEYjCyZBJ3dcXJpBq5AACzM/CKfgw+KHZUHXrDa0LvWCE4ghGBwicgIXwXmFDtXZShFVg2l+Gxl7xxvc+7Wil++vkpmNbJZOYb1ewECck1bB8lnyT+iA4O33XPCAhXMWS6csIplb98JX0iPPJmauE4ATHbgaxih8Vh+zmDQdqgNgSLA7AYIAgP0guJH+xTJ1qQSchFkL1FILQCRhLUfFBGpBvMotKt5FexS3IhgftJb3dPSawoi2JQ1fQ11QqBn18ugpOHgkAwuZpjAvAEgWURcCHgOMC7z2W4+2kP2/YMD7Hs2rULZ5xxDq688it497vf2bTEkmSwjFoZHXUykC3+GtRKwfPJQwTXeJgUE1lY+dc+gyQOKkikmat+/QtN2Ry6n4Ub7iiN232eTRP88NNdWDxbBuYZ8YtDNbIVYQaR/5y0eyKoo5NPUAF4fuspxjDjvqthH3YFyuOeVP74lcz5FhdfZCBLiS3CNiVEMTCRsYOIXPN7bhGAcflgcMJpJ1OiFNSMC6HK/yjA/DHAsqiQBKm6VI0L9tukqImMQZt6qj6PtloYrsLdmLwPXluP4wjAokBZEH/BJmAJwOUC7a0En72U4p3fGr6Vmeu6+MAHPoTHH38cV131Ddi23ZQXnyGP0SWX+KbHTvTbaqQihABYRntNLUYiwsWk8MkEMYJRz/PguvdLItVFw+VCc/ViNrzX6Cgilyb4wcc7cdj+dkSyEU2liJjxUO4t2RCXgPh7j1DZB4p40pYxBqtvV/YgoP/+cUsqv/tc65TWVPnHAE4izGdTKkB9y0/9DDlG/RNDVZVD68wAGfsIJC+J+1TD5oz6WUQCJheha0s1bPQr6S0qQLS0XX3Er3qNMEZIIEjUTTV81lETKvBJ1idUSv3OSEL4iQX+BWgT2H518SFLCC4+juJHfxve3l7f+c738Oyz6/HjH1+HqVOnGss6SVVKLTLRt0aIhVqZiLGv6MQSW2+py9pvIh4u7kioTrhmcDmAzhaKgxcyPPT8+HKBdbRQ/PCTHThsfweh7z7WdUCo7unSHU70HoQkzP6iVHZ6VjaP+EzsUWdFM5HKgFIqbv2Ks7w1U74XlJzEfMMuM5goGANsR8BigGULWDZgWwIOI7AtAssmsG0Cx/Z/9jfbkY8FP1uAbQO2LWBZHJYl5OtZcrNtDscW8vcsAsuG/FsGWJYMfFuWVCjMTyMOig6p9q0pGdl6VP3KElrrfS3jjBK9P5mfAu1/J2oD/3Qaxewpw/8hb731Vqxduw53332vsbKGWBInj6o5IGqLtx7RN2qlIl4GErsO4o+TmEGNZE1qRlaI0ItACHD+Omdc7efZUxhu+EwnDvEr5kOvDQlUSqDafI9LJHlI8+zQSBGwVqpAAYugqbJwGiaVWz6Rmy7AbiQgCyiRKbvMkgrAYgKWJVfctiVgW5I4mEVgOZIkJMlIw++o++qWKSIJH7MtwLEIHIvAYiEZ2YzI91JE5P/MbMBiAoz5RYVM+A0cpf+S+pXz+oEEhlhFX9eVE7q8lL806A9Gw55g6kSjFMF3S9kEuQzw6YtG5gNu3LgRJ510yrgplDQYPjKJK5X4SGtFJJ7nBUOkopuHctkNZoaAZgAICL9+ImxJHHV1RUR8rH4lCN6TaNq/Tk7HHWhjWvv4SC0+bImN336+A8vms5AUSNC7WWa2CW1tG0tmIETvyEGipKQ6oEM+RxjvHnekIgQIbfV+A2AhobImhDBZIS5VBAGzRGDobVtWjju2TzY24FghcSjycBSJOPJ5Rz2vEZFlA4762QIsx1cmVkhMlgXYTJIYU+nEWiqxMuLq2wb1ECN+EUcvCqJdQHoXZRkH8uet+EqFOQKWA6xcyHDBq0bmQioUCkGhZKlUMlZ3khBLNbdXdZUSEom8H92olY3wiIif7zG3sD5rRXU2FlzLhtINlBbJZgx480mppt/HFx2XwvUfa8OUzrCQV2hNa1Unj2A3kDBZAX58ifisGvR89mPJlIUlFWHRN+1qpu/fUEzlb19JvY1ScrgcjyvjJ8wPwlsqlZf5cY2g8FCtvkNZpwfGUSvoJsLRC3rlO4KMMBFIP1UMJHe00IhEWu5Im3sydoFgomXFKL8pIQDl8st5hAOgIEKStBAEvMzhlTnedCrF7Y8LbB2hFuDf+c738OCDD+JnP/sJ5s2bZyzvJCOXau4vz/PAebVKek35sKyfTuzXXvixSiGinuDofSGbJtJYPFNT9yAA9+u8FNmctcbC/z3I8GATxla6Win+9bIcTlrtwLb9vnVE638Wix0RGiYvqGJREutBqBbERPhZoypwr1pScYAQ0j6ulMof3oMUEfQLlAgQlUWlVIrlp/IyWREu4xqae8p3SVlW1P1l26HLS3d3Wb4rjKnfU49ZoWph6rWZVEWMyZnOQfowU7nciLi8iFa1qrumRvdCDnd6QIosTCQgEDJTjUl3np0CbIeiLUfwz+eP7Ie9//4HccQRr8Ktt95qLO4kdX1VEgtPcH25gZJRv0doyi92DIPv0dTYaG8vPc+YQC/wCy/OoMu4Hnv0XcSfuyiDmZ3NlSV44sE2fv2ZVhy/ygHzA6bE75ihYrhEVyWkkmmDibFU2zfaFFvQkHDVNFki7e6UcUUqqZnpiwkTU4k/CpeqALgfv5CkQaQRVEFyyycdZfgtn4j8YDpluttKZoIpImFaEF+501ScJPKzLetQLCbfR6UQBxX0sdYshMiJBQIjG0dpRK0ILYef+kE3BrnPKOTJQhnAHAIrJZMTDllKccZhI+tP3r59O0477SxceeVXjRWewOokiVikKtGJhccUC6+4De6HjoTkiaoJNlRrJxmWExDNXR1ZDOoEQ9DZSvCfb89i4fSxj6/Mm0rxn1dk8fUrWtDdLouuiW/vKKifXUqC8gmq2tWQsMsA0YJMkcGzal8o15ffbFKWRohgfzCLNlX/r7pHhVnkzUwbx8tUyi7VCMU37CxQFiQkF0vWkFiBkpDPqRoSptSJcqMFfxM+ZqmfqVJI8GMnYRfioILen5miD8wSJGy3XSEtx2Knq4uGAtDHDvuFogyyCaZtETgOgZ2isBnwtjMIulpH9kO7rotPfOJTePOb3zpuJ0oaNKZa4unCoWIRETKJE0k85ZgoHxapdHcpF1bQtSUQJNHsy0i3cKJNbCXUD1TT4LpmlGBKK8V/vDmL1fuxMdmHHTmC952Twc8+3oqjD3QC2yZr84RcHKq+UL77imgBI6K7BmONaAkSvCoIG+cGqk31ELRE57ghlX98DRkKrFWDp1RHYL2Fe0AoTPiBcvW4CAZRqR2uiEG1gae+PGSKYPRNqRP/OYsRUEt/LTWaF0F8h9LojlcZVomZXmNUSEVJOMhLb42v1K06uwgFqEq5TgnYaaCjleBDrx0dJrz++utxzDHH4fnnXzRWeAKqlVousKQGkrUaSwrCQmMotFiodt0RQSrHd/s+4bAkg2gunzDBhgYtl3wF4N/vaiX4tzdm8d6zUsilR+e6mNpO8Z6z0/jFJ1tx6QkpODYBY1QutIMJrxSUCqlSmJD1JEREXO5hL8BwbxDtv2A/URmRCeIz/oswv7kkIwBjtHXckEpvIXU8CFKhO0nAoiIgE9Vvi1IRGH+lJqjWj4vG2tEHG9NqN1ioTnQFImMOCLLNZIqwNlGRabeRQVnED4pH1QFiPt1Rv6hjrgCVSBC66PzCTsiRyMyWakVlyh2+nOK4A0dH9j/00CNYs+Zw/OY3vzHWeBKQiySL5Gr6aoF6IYQ/BpfIqngVYBfJJ70QorIo0u8woVxgQedwQoIEoKCImdAg3qLsyNmHO7j2/TlcepyD1szwkwshwMELGT7xujR+8pEWvP5YBy0Z6pcA+O59QkD8noNEtRehkG1otL6DukgjFceEROO/WgyKxof9+cXehBHYFrXv/lrr0c1ybtXUjm87zX4dAU6QREFk7IP66bu2iATLLUspEJ+tWRgsJ7HCv3jgnGjzfZOei2RwQZ/ciLA9DJTvNTqCMTrfpHlAYisSRfFhxoxSLP6sBYFgaNGKOQQ33cdRGoVxKcViET//+S+Qz+dx/PHHmTYqE4hMFFFE3VyVaqVad2KFvl3PorT9bllH5tev2ZYcmc38WjKmeRcYCVffKrWWiHApCL+ppOpSLPz5KuCKsFQ8IpyE5FgEB863cM7hDvabSeFxYGePQNkb/PW5eCbF6YfZ+PBrM7jw6BSWzGJwHAKL0YBMlGFX96Xto6G6svSkAy1GotsnkAQbpS+No8SjuxgFl8ek5Arxv38o/LYZzrGaKcVcsKWMej47qgFYIVkwNQTLVxVhdbj8/YAwRHKAPDIjnqr7IvA3Ehp1UakBNSq/nYhoqh7R/ZUJ+fFohr5BCVVgQdWsIL57TIBCgPtLFMvPBHPKAuWyQFcHwVtOo/jmr/moGaIrr/wqHnnkMfzoR9eira3NWOdxTizx+7WGcyUN74qsTKmlPFn+5EdNnWhTHUMGIZFu4cF17Uk7wYn0PHBOQJgA5QC1KISQ57ugsqVJGRSM8IggSjvAUcttHLHMBufA0xs9PLfFwwvbPGzaJbC3T2Bvv0DZBYplgWyKIOMQdLYA0zoo5k2lWDqLYdk8hu4WEiySVWapIkjlliOKWIKFM40UNMdnK+nXfrxaLtJ8k4QzZqApQEpFoGjg214uKCxGj2uW88uq7Rvjs9UKWu0Y5e6iWvFNQCJBry0Rth5AWJ+SWAwVs7UEJJglUOG20ggo3lCYkGjqYqLfqSmu6MrPE3RpJbIRpnBlfzPuz7MnTMZWvBRQLlO4rsBpawhuuhd4ZtPoffQ//vGPOP74E/GrX/3C1LNMEDKppmQGdkrT4JwmiC7wdFdPvBhYrx7nWsNVyok/6kKOhPD8DE7hjxVmvoqxQODJqUoQhMMCZLdk353GCbBiHsOyORRC2GGyABI8I8JvQIswhiNjtURmqKoGtSrZyC+fIL6BopQGrv7A4OkpwEEBZGXPM0G0WTNULa3lollA9fnSbDBVx8nvWkyBXM5acNd/dK044sO7nmjqmAqhpI3SMKCsGjiG/ky/Jb3f7l4pFf9vIz5Sok840+6DJLjFEPFgVaobEXVtkVjwa1yAJKcYq/2s2uKrLBKlVlJpAdsG0jbBB17LRv3rPvLIYzjmmBPwwAMPGSs9gUlnQD50P1AfTHEUYaZXRSGz7qJAdFKq6t4tfJ829QlH1aLRIMOKBA1jadCRgoL6MQ1bxXH9+Kty06vftfSaOCrnMTk2hUV9d74fKyEqdqxnq2rEomI+zJ8uSwQJYsfQ2qgg1sSWkIj4CPaLUjiaE8N3N4vQXlCtczEJFRO1CGVpNEUtAK1j99KR4qNIA5ooc+o7o6IjcGylHgzuEfUNb9WtnhIYP9wSaccfplTKi0oINT/Gb9LpEKQy0iW2aBbBuUeNfq7+pk2bcMIJJ+HGG280lngCYbDxMk5YsKLT3dFCW/whQSUEnghtJSmCgmVpeKhWnyHbQ/kEY/nZoFZYUmAxFdOlsCwa1LYpw+/YFLZN/ZgIheX/rGIhqtRB/Y1tySa4KgvVsqlPLmEGWuCpUcrE//I0YidJpE0UNHdgMCKAJNWnaDbWj0GpfRNkzvpFkIwStLXZJ9x3deeYV9fXs0guiPJh6oWENJr25z9Hkgy7ies2xiza7Gmm+gMhiLjIxp02gZOiSKX8/miWwCXHE3S3jv5O7uvrw3nnXYjrr7/eHL9xSBq1RjcPlFwIswKjqIwkJ5VuMCSQi0BlrQbxlXrYekLrPKGVDsgMVBrWvbGwcFoRQdCk1QpLGRiT6sTyjbJt+0RihYQS1tEppURDDw0joIz6Ni8kFr0jergvK1UKUKXJprrvV5GG82b8ESJEb33l16kEgwoJLIs4XpmOeYdYWlsOoxS4m0IVVtFJlFCSEGAan8phrFxgeuUwCMLhY7q7j/oNNW0CJwXYNkFLC8G7zh6bymLP83D55W83xDIByCWJSBonFxHxPsSziYUQkUaR0ZG5lS6foGAQPpEo95LqNMFoWAzt18XJTuVh53RmhVloihhsO+zUoX7X9hWPnqEWtH6yVQcRBMH6oJEjwpo7vZVKcEsr26skqZRI/pC2IwRJIButWzHVCtKhqZWuduuMO65qO2Isz6/aDSWZyCvmUSoFqNI2XjV7FM2ZwtucTuzohDzE9iujuk9aQFACwQAnReB5FJ4r4HoCRx5AcNhSgvueGX0GV8SSyWRw3nnnmWM6DskliVji92vFW4RXDo2hZh9EBVnEhnQRREYQ69MQKfxMMoQudcEQtI2nHAAjwRhyEMhgtq8UPOEH/GksSSC41kiYnaqpqqAGhmmxTYuGtXT+31FL64JBEalFCevO9FoTEhncF8/0iu4cBH3Cgk/rB+3loC6tnkfNYrdk5wLGCWtJ2z8Gxm7GSu0lriAlxZoiaKGpnS4qwJbQWZMY19eAFAuNS2at4R71TyoIeQJbDuCk5JayAccRePuZFGyM9rfneXjjG9+CW2+93RzLCUAwjbjJIse/XAyuf+ozC4kH5vUVuQjrM4LYimZt1fwhSkKVoMoHqG9YKJOGXrUqkXV0/opd1cjYfpCeakpE9RS0CahNtJHj0ea0lBIwEDCbhh1A4BdwM1TUnjCV+UoQ6U6sswatpVISPDuqMSdN8GoQAq1li9pXMsW4tcVacNdVndc2qftL7CPxE0RElYoQlTtGCOP6GoRoiWR8BN0HEGa8qdUUZYCVAlJpwEnLAOTcacB5R48dixeLRbz+9RfjpZdeMgdznKmTRoij1u8JrxAqblF7MUkS+oOpeexycapSdLVgNcLOGopooHoJEuXyojIW7sdOZKG2TxaWXpyogtuARcK+g0E8RmsbRRkJh8QSRN1wWkdh6k/MYkSv15OfOZjhRKMurYa8OSSm/kg080v9o0GdYPj5ujqdS27/jykXNR2pEEG2C+XfI5AVrTRGqiTmP0VjiV0GNdhFW6kQqhJHSCS2YtsUTpognZFKxbEJLjqWjXjDyVrYsWMHLrjgQhQKBXMcxxGx6KQxULIBAMFL4WCQeovJpCQeEh1FQSLuKATxFdXqnVKVzKK5nyxZIEkRBthVCjJlYXffSE/BSJpw6HaTacxKsaiCb6IpAkRmRqn58RXlEdDUmAhrcnSXd9VdHCnk1koOiJwvE43dkLDhb6jIaHc3/e5f/71jVVORige+LaI6fGIRMSlbbTViMDAXGCIXVmyl5lfcE44gxZhZBKkUQSpNYDtALivw1jPYmH6NBx98GJ/+9GfN8RxnBFONbBoBdwuR4VsVC0tt1kq1wuSggzGN9chSn4mG7p5g8B8LjTvzM7NUoF5NVmWsclN9B5kVxk4YQeBCYyxMPFNuLUa1zug0VCh6SjHVgvNhTESf+Eoi9pE0UhpBtPk0uinWxg0rVxjTRpRTSpBySGZKl/W3v369Y0HTkAqjYqseRomcLEJzfSWNeDMYlELRRw6rwT5yJrWcbk014mY2YKeBdIYgnaZIpSmOXQmsmDu2X+Wqq75l4ivjgEySVImeDtuoYuFeOWIChKa0q3k0gkA2wvcV2uB6PeaixzCgxSuCFF6lWCIG1lcnvpFTjW6ZIhBflTB9Ron2O0EfQ02t0CqEoo8tJ3p9CmIKTCfRwS44g30mApWiFAsIDdxgqilvOsPau7LWnbd9qWVqU5AK52KrvJU7gau21gntFiKzEqpGoQwaOodEVC7rUpqq51TQ3gbslEAqLeCkgEwKeMc5Y6tWOOd43/veB8/zzMFsQhIZjHus5nrIKwbxVZBYZpP6P16bImJkQ2QHiUhDWW3AXiQzy3dPhavykFiipKCMvhpspQbgaRsFrBjhyI7DYeA9JJzahBJ0FVE9/WITHHWzOFBvDokXl0ZKOvzvr/YZC78zIwTZHJ3RNiX96ANfyc4ac1KxLbFBzVMXPqsICHAhN8Gjo8qC9teo0tTRoOFVCYm1sJFPyZ3LNH8zZXKIl5MmSDkCVgpYOgc47dCxnYr3+ONP4vvfv9Ycz3Hg8orHUwYKj0ulInQ2EeFCVCeSJLePynwUWufuSHYVYi3fqZ66q6kJRRpaF5Cg+p1ohEOiykWNR1dkEvxMtXEePsmoW0pDgiNadb26UoPyCqq5vdCA26thu6AF7UHC+VQB6YbZboxRZDN0Ou3MPnjPV7tG3I/x/9t783DNiupqfO2q877vbeiBoQFFHMAxDAo4gAkCQRGJITiixjhhlGBQjEM0DgnGL5/6aTQmUYkDmmjyJKKiokHiTwUUUcEhiYKgMaIgDYjI1N33Padq//6ovat2nfs2NNDDvd3n8NyHO7x36HPqnFVrr73Xuv08lR3a/0FvYdjsUDZDOonBSBCNRmYOTOUul8Hqd8sOyKvoF8uWxTfJF2zZDqkENhk7PP9YwrK5rftPectb3oau64ZruggBZUMgclcAhrt5eScuMG2k/oOx/zUFEsYM4Z5KHnvlgF6XpHL5y5vESHno+56uorHmTktgAhxkSl0lKBClE0wABa4MJpPrAYrNO6n/gTO73u4UoGDhpD2MaA8qnWDOW4Ym0/YJWHafrHD//eW3rzxkq4HK0SfhJmZeyxGIIXn3pxIYCXNJbwo6Uc5a5LtQNxyODa2l3E7o5Go51tmVpLOQSy7Gozlgbi6VwlavIrzgcVv377/yyiuHgK8lVBbrA8ntfa0ClTjNSar9lmI7cmD/H22FA71BQLOzr7KTVE8xQ4c5DFDLWzYAUMwnbQnM90tgzgj6rmSiWDAh+dlWuO9rK1nrcL3RANTM7S6xFFNL5FkDlFRckYn0b7Xdbuqw7LBszq3afefJ+V95+87P3CqgkurjdL1mHOjQTuSir8S8eLhEidIAKHf/Zq93c2nNFO8j60BHlMzw1GxSByN/55AGe+22dWuQH/rQPw4Xc4kxmNsrl8185oU2hWhRbzZaNRY2CCNlXDtFrmUsmLVeDBhNmcu27vZ24goOjWEpzugr/bTZ/Hk7u2LsWPJUvS9Z8Br3UbUTZ91kNqDcHR1lg2ylagYgcY4vrcVwPcZmWVfjMJmjye67Nh+78K93fv3WARXQGmZOLEWYibKUwPox19RuQJS7XwWb4Y3NFbgwPCfhnmS1NWPtBnOYmyMs34FwynFbV1s5//zzcdNNNw0XdBEDycaWxjZ03HD91Ygom8qyiKns0Nl0eC3YhXN56DKqNnpyVgDXnBMyLcY2v74MH+ZJeWdt8hd+rOUxVw09osy2ZDfgGrycmaDXAZcNAQqwCcYsqq64esPJUgbT1NsSQ8Ll320Yi3MO4xH5XVaP3nzR3+704S0OKl2kazlqbKUyEs4JjQzO5TAybca0cPkMx11dSGYHxyDJBZfyVyRQ5JzDMhoRxnPA3BxhMgEOejDh0Q/ZesAynU5x/vnnD9dykYLJrKHHjSmV6fHjH/8Prr/myhKa1yuDcd6clkyVOluF6kHHyt2YTAnMTK8DeWdedTtRmY63bcL9eZWsm+jwY3Y8RgEcCyzOOiQXs0iYLq/bA5RN9iCcYY9fhROiHop0NrVSzkej6ZWNQ9MQ7bLT5Pnf+vtdL/76O7Fsi4EKgKuZVD7hUvqKslDi7Cl6XVg8sJZNtZ4AmDZJ6FQxqkKr98B4nCbtJ8sYO8wBJx+fFtPWOr73vf8aLuAiZykbCyL2uOqqq/Hyl78CEz/DpThXL2rxpBhKsuTNLxT2uefcDQMsMA92X5Wleq20vpTDvHlTN18r3DsT+lWXjQoDytYrKGFZGXC2BKD0KkDEJa8epguNjBcYGdsY710FmI0v52HVSv+IyQ6rf/Llt6148BYBFYd4FWvHV6QMFJEpsxeYspjtQR/wZNMiSk6MM0ZyHiLWM6U3DzQTkpRIh/GEcO/dHZ591NZjKz/4wWXDNVxCQLMx5a9rr70Wp5zyMvzyl9dj2VxpCo0oVEQZNXhh1pKOKaShXgNGhrnYLjB9WpXZEJstIqK8lqG0/KVWLXZWxdc+YNnPy5a/+sBSeXpJac7ej1sCUPplNMOUXO9BkccNDLCkUpiDl4Ay5ykFmTUptGzFju4eq3ed+/YF71r9xM0OKmGKnxcgSWCiw5Aq1Bcg4dqJ1C6koRZ293Yo1vmZtQwmF1EuQJW7Mkmi/WSShPunHe6w5+qtcxEGTWXxg8mdGXi88cZf4dRTX441a64BETA3odKkI4sy9jeY5sFQPuZqlsWWxOx6r9qLqTzk69biPrMo5THy5S0Dg+sDTpn7UqGeejoKnAEuTWQ0oFfNfG+mW81215EtiVHNWEC2Bbtmc/nf7tPgZwo2c1g253ZcvYv79NfeudOfb1ZQ6RpcCS6lLyh4hDQACR2CFI0l0zJCgZhhun6TAEvlZAzp5pAymGPKjMXlMhiwbBljMmGsWE542ZO2Tg1sOh0MJhc7mGxsqezWW2/Bqaf+CX760+RGvWoZZVRI7IPKhtImZfTBhYwbkSslHaungPpCN2Vz2+K5ZSbfZ2gprlf+Un1hISAJa6ECOL7vlIwZsR5UR6ff7S6vu1AGg3HdUF8wm+dSnASMtuRMsqUMSDYNYdJQs9tu4zd96z27fP3s07DDZgGVpsGVEanUhSjgEstMChsLl8hFMLJMZdBVNvHDwKqfQrsdRLSXO9g5gh8TRnOEZcvSIOTDH0w48oAtXwbbaaddhou2BEDE+n/NylW55ZZbcMopL8MVV/wof375jlTE+ciih5Qb3sxKVxvMan6lN69SNuN1m7GWnmwLlMt2+KYNWAHGW8HatASbzjDbXuypCP5lt7+QnRTLGPNX8hYClBklcbuRryKIe/+Oen4l6SxOtBbbcuy9w84rm0ff9167/OyCd634rU0OKjfcuv4aMLGWvziYRcGUO7/yIok9f0nebOXF7fTJYEoCJqY0xQ4nYFG3g1wGmyOMlxHmJsCLf48wN96yf/J973vv4botIeCZ9fEtt9yCl73sVFx22Q+rr6+YQ55R0Zs+6jPB4ouphTHRgu6eKuSv14tLRNkCJrMSJIDQdQ47pJiNFk3kr2qQvfmUUkorbcoVmFTZx/qwrstdwBYGFPPL2YCuZXfpy5RLdFVHGBUHgdxO3ZRBSe0OWzY33nX1znPnfe1dO//fTQoqJ5yGaYhYX+8sqGgsKCCjpTFCbTKJofq1WahvuYDaZplauZ1EdToCmgYYTQhzc4y5OWD3XR1e/MQtWwY76KCDhuu2iMHjjhjMTTf9Gief/BL84AeXLvja8jlXIjEqF0kWvb640BZZhUtLLvWn6cs6pyrUynprITMHZS7WG8waK5IdWPQ9AOmlJyZXcJrpNEy9Cfl6on0rxX30rW30HduRpkDjONv5W3DRbrCqxbpBTsEcNa5Zvev4z775tzt/9TMfwopNAiqJfPBNuhiyOG87vhj2FNfCW25OH27kzUFa2AALITm9JtFeFpNPsarjicPcHLDDHOPYRxEeuOeW+RudczjmmKOHi7WEgMb+/+abb8Ipp7wMP/zh5TO/Z+WyggI5C55Z1iXPHDcg235sZldifwdu3Dn0gdkHl+K5ZUpjlmU4w+jNtLnuwsgZUDItuRbkbKnL6jxbnJ3c0Sazz1jM30+wcccm8IxMyqWWwzKLoZwhs9Oq0WH3C7v8fGPsXTYKVJjxa4gDcYhKcVmmaMW1OHIGGEKvbspDcNdmLa3aMjOnPG8n/Z3EKVp1NEnRw3Njwg7LCH/6LI+m2fx/31FHHYU99thjuFCLmKVs6DW/+tWvcOKJfziToWSmsgwluE/7hGXYpG8uWZmlUt8TjHu/3zw7ChmfCS7O7tadTV40//UjeF3p8LJDhP0mgAVgwluZnWzEA4EM2tlOsDyo6UxqpE2OJBYgcQtbqxvC3KRZtfuuzb98/Z07ffaSf8Do7jGViF8HM4cSYRwk+XYA1ED65myz264RxdJ0dWvNnXgsN13acYzngPGy5Au29z0cXvSEzX9B/vzP3zBcpyUALv3PXXfdtXj+81+AH/3ox7f7M1buYJKEjedXNfjci4Gc5WSsVi6VNzf1WMsGwAVUTB2Bmmk4Mhnz5v0FD2LjMlw9qJYKmKBXCuNyAqna2CtrYTMwadqOiauWa2+80ITZ0MpVzXGx3eXnX3nrisPuMqgQYb7q1Ahlot5OxNrFRDMWwlAC2zzUtwqGY027Ky3eYIbznFoGJ4RlYuHyu7/pceD9N98d8sxnPhOPfvQhw3VaAuBidZWrrvoFnv3s5+B//ucnd/i9Oy2n2poFvcRHU87iHiux3aG3Z0J7e+BS1r/5N5hSFpwpeen7BGNdTxlInGVwWEJgYp8HPY1FHc77eSwJkLnq9KvcmKvBydKWrCxnbuL2WLl89KUv/r+dnnvXmApjmi3tlaAYAb7qAOslCzNq59Lh2Pw7FZIb2zEltiLN/a4BRmNgPMeYW8ZYNiGc+mS3WbrB9t9/X7zvfX83XJMldvzkJz/FM5/5LPzsZz/fqNev2qHMlyxsCe4xlfyWWt+r0K6NeD7MApcqfrsPlOY/zCiFLfjZWCjALwkwwewSY5+1kG3UzsDS+3fq6yz4LkjiFObX0HjnHdyHz3vrzq+706DCnAyJwcXiPs+oxIXVGDYLhns96cOxmctgsjCUrbhIma0QEfzIYTJJYV5zE2DP3RxOPm7TdoMdeOBDce6552D58uXDtVlCx3//9w/wtKedgGuuWbPR37NiQoah8EIwwYxp+lye4ipTxT7cNwZccvcY1yBDM+4NmvFF+6kq3pi2EQ14QWcYcqnQ+pU5SCkMVJt62vM0y+hTTJGX7YA3f+n/rPqjOwkq1FUnnWcvAjY+BWT/PxxbtAzmYcuPXFgLGM4x/AiYTICJzK4cdRDh0AdvmqHI5z3vOfjyl/8/7L777sN1WSKlLwD47nf/E894xrPwy1/+cqO/d9UOhGZkwALFRaNUKsrjKT+Y7HQ9cS6XE+7aoHQfZPqAs0DjmfE6om3wWcWzQUYHJWsPfZ4NQOb8MM34WTLNsGyZe9cX/nL5fhsNKgC6XP+MZlWgnortDzvxAChbcYdCkg4pgn0sPi++IYzGwNwyToFeY+DUEybYa4+7ziwe+ciH49xzP48PfvD9WLFixXANltBx4YUX4SlPeRpuvPHGGdvcDR+7rkSJwYDpwsrMuMyowFYvej99c0qutoQzbHBLqbKPPdzrzLMUky29lI0qG9soyXOaa0b+owCwUU2lFHkMX1xHqz9gQRP6QkfS4diydFcbP5gpzwpAXKUdpSxi3xBGI2BuGdBNga7t8N5X7YO5A96Kr174DVxwwQW4+OJvY+3atTN/lXMO+++/L377t38bJ5xwAh71qEcM538JHueccw6e+9wXYP36+Tv9vatXOoATmGiukgbG6dR8thExzwQiLrbtVTQiZqPOcNy9Z0J/o98TvikzSjZD7KbqBEKUvvHIJJ6Pcl1znDxjPMaBn33D8qM2ClSYsFIJSrR/D9V/M5k/nO3OZTi2bBmMy/ln0t2J3RAkb7DRGBi3nFqN24jbbv0hxjd8En/+5++TDQPj6quvxtVXX4Nbbrkpg8kee9wTe+99X+ywww7DOV/Cx5lnnokXvehktG17l75/t5Vll0ukDyXKa7CUyjlPdmcNZMbSHR4XmwFMbg9QxCg4O0bbOmFkiTYp84c6/A6ZS4wyr5hmFQkIoNEYJ2/c+JvjVWCTy2wFuV6HQF/kGY6tx1jSu5R1FQ9KHpTglGvtgcmY0M4Bc1OH6RS47ocfwxWXPAYPesTvg4iw1157Ya+99hrO6TZ2vPe9p+PVr34NYox3+WesXmGF3WTMVbRULiaHNl99xhodAGULgAm4covWhiprsQVoACNng9DIBA4RHBkhFJCJjDzwHqWBKzDgHD184zSViBU6LMtA8ZbJOMK9YBqq65c0LJqtiCtGvGd4cJq2l+la1zDGY4iFS8SoYXz/31+BG9cMwVrbJJllxutf/0a88pWvvluAAgCrdvS568pGBOvMiZtVhVmQnTJck016w1swgUnhrFI5EyDYjzmyvAExEkIUlxRhJCHo14x7SkzsJsbktMIRcKA9Ng5UiFdm0gIT60llhXDP6sBO0NOweLbqQlNDfGKAIiQlkuGQJu1HI2A8IYwmDpMRAXwbvnLGUzG//ubhHG5Dx3Q6xfOe90K84x3vvAtbk4XHTst5QTMOGSF1IQOhoe612XYLqJqnGFzNc+TuPP1YZgshIJHfxHZLASYERgwKHgIgIX0+RKALBWS6yAiR5+4QVL5yJBoHWgmZvkRlZ1AcPl0fRNCbrB2AZatgSu4n1+vUs3FxWbQnTMbA3BxjPGK0a3+OL33o94eTuI0cN954I574xOPxr//6r5vk563YgTAZGTZCdQaKOuJa5nIXcGs47uhcWcCwugj6TieikzD1PBulpCWAEUMBjy4mQAkxGiDhzGJCYMRI6EJ6H5HRRVp3h6By42PHD2RQQ+Kl4HJgDtf2DlTXubJIPANJh2NrrMeUX68DTk5WGwHwxBiNGKMRYTxymBsRxiPGjVedhws/9Zrh5C3x4yc/+SmOOOK3cd55522yn3mPVba8xWZTyQtMybU05sADiGzs/TpLmO6zEe4xEph3jaDO4qoR2AAIS3pvZMSQylchfxzRdZwBJgRGFxhdTJ8PAiJBQYgJITDaCHRd/NkdgsooYD9yAHwpb6XdbonszGZt6n5J/eGn4diqVEUXaZQpe1Ybl1J+cA4Yj4DJGBiPGeMGGHngRxe9D1dc/PHhXC7R46KLvonHPOYIXHbZ5ZtwewzssZPLTzdSVVU2nna2joz4qqUyh96g9EBYFpwAtvEAPRBRNkJ9oZ0Lqmh3VgaaaLu6SqmLBUQUTBKgQMAkousiugCETthKlwAmdEiMJTBiZwAm0kV3rKlEepTW353JLijeMCZwxya5oUr9HFbN1ji4PvdOaCYbrYWi+OwRUijPOA1DjsbAaASMXMSFHz8F11/1/eF8LrHjn//5n3H00cfguuuu2+Q/e/eVGVGqphyXUxlr143KEsWEXdVT3dvRs6KvRc0Q2PtMxIIIMxBjDSIqqrPMdCRhHYWZGO2EQ2IonZS0EqAksIghAUoIjC4mIMmAIl1gXWSEjtGGoruEwJjOh9PvGFQcHZxKXYWNeELOeE6Zx5I/4E2K2izfmeHYKou3f/6dA5qeOZxGrTYNYTRymMhw5HjEoLgW57zvKVh36w3D+VwCR9d1eN3r3oDnP/8PMT8/v+mfgAB2W2HyOgRMKgsnVtffYmRo9zm2g3S7wRKaseGzJr0bASJcTBgTa0HRTjQ8kUUv0W9UMFFmEcybMo2uY3QB6EIUhqKMREpf5jUhfz6BUhcYbWC0Hb73zL9ee/EdgopzeGgOv0Hy14cHnOOkqxhzMoc8aZeNDQduu8jYClHeFVWlMEppb80oMZXxhDH2ib00DWP+tqvx+dP/IFHv4Vi0x/XXX49jjz0Ob3/7X2/W37PLSpen5fP9T/X/06e5auyxTTwLLJ62xefEBoCk8krj2brILBDRqfcoybv6mig5JMzSrSVA0gUV5IWJCNNIwJAApA2qm8TEPjoBiRZoW6OpdEiaSpsYiuorHTNCJHDLf6HlzQ0e//7G0UHe8W5eU9J8AhcvWkrWVAxD0RznHLoz0wt7OLYaW6mGVSV3IkonGFI5s2mAcZNE+4knjJqUdX/9Ty/Aef/22uF8LtLjoou+iUc84tBNKsjPejquWJY6v7KrrSuZv7ZfJ3eL5jIY5X0mkw3aKuCyzfhz0R0DCbHRRAzAWpGEZ4GISd9lW/qysyXa6iudW1HfulTqClLu6jopa3WM0EZhHIyuTaDRdsC0VaCJiB0wNa3GbcfoOkLo4oUnvHPtZ+8QVIKnJ6tmkspeLODhcmiLkwAXkgcSsHC3MmTULx62Ym/6nIjnkEsZ3qU40aYhjJqIRpjKyAPeA98//7244jtnD+d0ER0xRrzjHe/EYx97NH7xi19s5iclYfdVJcqXTWxtThLkMstGXGeUsAEfNguyCuzalu65yveMFwwi5rdYSlZJWJeMKhMvoiBShg6FlYQEHqqVhBiLcB6QQKQT4V3e7zqgDYyuE+2ki2g7YSYd0HYq0kcBl/Q901DKYW1gdJEQAq8jH56v/8zbtWnx8Md7F+Thk8ojnlKKoPOio8AwlJwklsQicgNBWVSbp1xmkGsluwoGweXoYcB7hm8YzQhoxsCoA6aeMWqArov44kdejN3udSF23mOf4aRu5eO6667DiSe+GOeee+4W+517rOptTqD3vM175zJq0M80EWRRG3z0Wo23if0n126/3ANNnXTnaOZ4uCTpknR5Edl5EzMFD/HmytWx5LDG0vIVJZo3yu/mPAlPpWsrAiFGAZ7UwdUGRpSOryzSR9VSImKgrM+EmN6fRrzheW+fz7nTG2Qqnzttbh/XxANAklPsUhaH8y6L9DleUktfztVhLgM7WVygQjOIYxW+k1a8J2DUAKMRYeQJI+8wckDjU5txmN6Es95zArpufjipW/H40pe+hIc//JAtCigAsNvK8tjILNesrzwgPaNdWIGGlZ2YEtmS3IDOmCVZoJXo56XMzGZiPZOXWER2AlelLW3v7YvtOqyYHvDIrcHKRkLkrIF0yk66iE4+btvUPty2jPkATDtG2zKmHdB2QDeV90U/yewmyOeSZvP5573ztsqiYYOgwhxOJWJqnGQ5e+3+EjNCAshLYhgRnAw9kPFkGfILFiEjp3Jz6xBkLoNpvr0DGk8JRMYJSJpxAhXvU4fYjWsuxbn/+IrhpG6F46abbsLJJ/8xjj32OKxZs2aL//7dViWN1Zk4YJ1fs5vKKoqWTHBcL/SJuY64XVJgspFeW6wggbrlN5UvOX+d40KNJKonVzAT70FZRureil1EUCG9SxWFTkT2totoFUimoo9kYGFMO0Y3DZhOY/pax5h2MX1eX5s7xoTNJLH/krW3rT2hf2pmlr8+fBrmPNFzieqsYucp1+DrgUcpqdjdbz8jYTgWxY1AsW4Iq256B1DgrKJ6D4wcwzfAuCW0jtE0jCYQPAGXXvSPeODBT8SDDvqd4dxuoePcc8/FySe/FD//+c+32t+w844CCH1vPzUqnfX8pUpMyU08zIkZV7MrS2SHlmOIswszzyjOmIwSzSARAFH8gbWXBxuxnuqvg02jWLGmT+UuOy1fzB7V6FGZTxeKAWQ0bcWdlLO6TixaAhJQybR8iAkMOwG8wPQDxtqjT3o/1m4UqOwSJy+lCe/klZ14TiUwItP1ZUpfunBcb0kRBpF+sVEVE/McUXzbHJdIA+eiCPZS8mqAtqEk2AegFcYSQsTnP3AS9nzrd7B85W7D+d2Mx4033ojXve4N+OAHz9iqf8eKZYS5kfH6y5sSMnNPBJJOHdLsc5SNaF9nYcoVs8WdFtt7lllmUmVhRUNhbHSy5JeQAkTMZaEyoxIpZ5wQx8paPv1stpEn2WE4Amb4UbSTYIFFPbuKphKYETvRTmKamlfPrxAM8MQ0Pa8uxS3o28umtx397Pfh17NO04Ly19OfDu8dneIzjU270sRIkq6SdrXSggoCOa46i/q0cDgW2b3R32EKS3EkFvmchHxtHW8aoHEM7wVoHGMs70/X3YDTT3vSML+ymY6u63D66e/Hb/zGAVsdUABgj1WUXchzBaMvxgNA7OUsWbQgqq3yy7N1CdSPLVCUGpc+4BE555TEWIR3ls+znWiP2t6rrAF5noS70rEVQkwzJV2ZMUllrtSd1YaIrpVurTaVuqbysZa5kl4CTNuItk2lrek8MN+xfC61Dk/biKnMp3QtMJ+1E6CLEdMOX7jZ3faYZ78PN27oNC1gKs+8/+Qk7/k+TnYeGj9L6vWlTrd2Gjvzk579wsBSFuduK8oDgOthVbZdfDI/0HhG4ygZTk6BzlHq/nPCXj0wf8N38btHPBAnnvo2PPWpTx3O8SY6zjvvPLzyla/Gf/3X4rHI2X0n07kFwMeyOy0VMdP5hR5ySCVMW5JtEiQtxhGEGewkfZqLXlIKXfIOGYt589VgkxTTeUzDizG/Nps+atkrkpSu0us4268kkIrycYhlIj8GGCt7EtNHZHPIIB1gQa1aIhBiAEdCFwAOMbUKS4ktgoHAPG396S8+/dY/pju4Oq5fJmwm9GqibCsqu1fKXR4VI7G5KdRbFANLWfQlMDZmk3keyZbEoEwlAcioSa3k2gnmfbHt2W/3X+C5f/AHeNzjnoBvfeuS4TzfjeOyyy7Hk5/8dBx99LGLClAAYLdVrmrA4V57l41ZsNb3uuWk3rOCuCfoL7bnRn/exLCTOmaXqw6unEvC9TBitO28IZZJd+sM3CF1bLUs8yLy/xZohWm0gTEVdmHF9+l8LGykBaZTYSUtY77l/Ll2KhPzmc0A81OdRaE8ZZ9YEK2JTE886fRbX0IbcXUqUPnkaycnjRzfD6xdQZzbNggy+ChlsMqawVwAHtjJ0iEtcn9Qbzvp87XlfI2dOCk0kr/SSJt5IyWylcuAw/cnnH/++TjssMPxtKc9E5dc8p3hJN+J4/vfvxS///vPxYEHHozPfe5zi/JvXL3cVR1cC6bnyeTTZ5Qpr60cSWghKVgUzw6ajStkdJLIKsybTq9oRXTrCBxFHFetopS9comrQx5CtEOHCjZBAaZlTAOjnSbw6HTafRowbUMGmfkppAzGCVimAdMpY17AZl5BJr8uifNTmZyX389tS2etW0sPfeHfrz1nY09fY1nKZxv8qdbXdT2U/JReHb53DSprlqHja/EDSnHWyIK97jIdl/Jm44GgBpQNwTtOhqKe0DhGp40bHnjUA4Dv/S/wy5sYn/nMZ/CZz3wGhx9+OF75ylNx7LHHZv+n4aiP733vv/BXf/UWfPazn73bEb+b+1m7046c7X0A5MFoUCl+kyubFUe9jQstdC+3ALMoVkg/3126uqgXEsOm1JVNVUSkL4J6Ap0Qjblj9vaKuUsrCeomG95YscSYRHUEIICz+3Bg5AHHIsanwlwQ/68uIpXA1FpFy2yahyLifYyMABhx3/0sEp/yx6evvdP2GRlUPvGGuedPXNxb9ZFkNkgZKXQ3kugeVSefpcKYOzh4iBBe3IiCKuwnW2agzhe39jvk0ue07OUpAU0S9FMzR9MAjz+Q8C/nl7vvggsuwAUXXIB9930IXvrSl+KEE56GlStXbveXoG1bfOYzn8Hpp78f55//1SXxN++6Il3/Oi9JWS9n3z9I2VQfBiQZK9UGlEqZhBbZPWHviwXaicya2I9zW280bb5cxPrszwUkXQWpzAUFkvxwR+niigVQVA9Jvl+UExsVhIp2AgQOuYU4MiUre47pffUBAxkwQQa0wAxEt76Df2/86S2ve9k5uEvTzRlUPPOfsFksUcN25IqrG6b18Cm2ywxEgD3nSdkK2WnDF284ttJOzIzUk9k05Bq4XNdsi+8JXux5vDATcg6NT55Bymzuu3t6u7IX4XHppT/EySf/MV71qj/FU57yFLzgBc/DYYf95nbHXq666ip88INn4IwzPoJrrrlmSf3tq1c5YzFCqTyqbTqOq8At7lU1qLd5Sc9jMk+LrcjYeePYSZTWYSvEW1aidTHNf7ceXcjCtwnIUgGdkTy7VITnZNwYxf0XIuDHYCbtAxAgA5EMBI45hTEyJzsV+RuCgEb6PYU1dZFT+3IEAlMXojuTuvBnp3zotivvzjltAOCTrx09khwfYAUWJ2eX1R6d1GJApkFFpWdmUCREB7gI001EZSdjuzviwGAWC1vRGrY1+cvdfB4S4MXi8RaTaE8QYBGG4sRlwRNcSOBy6IMJV143+0Fx22234aMf/Sg++tGP4kEPegCe9axn4fjjj8cBB+y3zZ7q66+/Hp/61Kdx5pln4qtfvXBRl7huF1RWcFUCZ9Pt2dfliGaXlKrUcdrKVIV6DsH6pzBXTL5iJ3nWpB4yhLFbiTGWLq/MNIzhI5sJ+cxWKJfDOiYDMsajS563XUglLVZ7Fu0Gk+FExFQm07JZFHPKzIoMG2IQdx3/+/rYvfbVH5pukq6QBgAi/KsdykInthYKjCgAkoNkYmqPi8bqXhMFKV8MrrcDqCNEqx3xADJbh7DYxgpGZdZEKGZ2BCl/6dwKFR3FU9JZnIR8OQLutxtwj52ANb++/d9/xRU/xpve9Ga86U1vxgMesA+OP/54HH/88TjkkEfCObekz+3PfvYzfPGLX8InP3kWvvKVr6DruiW/XnbZ0QofbFgmLwQHnlFeMl+rWMCWfgb0UmotO+kfC9iJlryiaRnmonNo5xfbslbONNF2XylPCVMJ1pJF7Ve0TVjARIGjE30kAVBiKZ38W0JIzCNKQwBrLr0wqSBlswQ6xAz+yjTyG1/5gXVf36Sn9ytHornxN8c3kMfKxqUyR7I5ZzEUlP83EuDUJO8n3xCaRurrMl3vkoFUlZuQ10wlxNU59hX28FAu25KgorVgKL2WxdxJpoJ2kMzPA/PTiLXzwPyUsG49Y/2UsHY9Y92UMd8Sph2wfprM6H54NXDWRXftwu266654zGMeg6OOOhJHHHEE9t33IYv+XK5duxZf+9rXcO65X8QXv/jFu5EJv3iP5zxmhD1XM+bGhLkxsGwMzI0dls0Rlo2BZXMOyyaEyRxhMnKYTBzGI8Jo7DBqCL5xUkalxGwdpc0D2WfGZoyK7T9L+mDCtrLCBRujTWWEsZ9H1jRgzB+1PFWm2FNZijV2Vx/yEqLFUTvCFGBkmp1jEt4VUJRxhIgIJE2EOQ9ZFvPJJF0oE4oy9xGSBRMH8Hm0jv/iZR9bv1nEvOaXh06OcuCVLtPBdAJcFWMpFEq7DiLDRSAGynTR6WR91DoKL2ApGUiI69yEHpMh8/qhXLb5gcXalsN0hVHfIFC6wFptM5Z8HecIXgYm1Qtunz0IOy9n3Hjrnf+bbrjhBnz605/Gpz/9aQDAPe5xDxx66KE46KCH4aCDHoYDDzwQ97znPbfaOQsh4LLLLscll1yCb33rW7j44ovx/e9fuk2wkds7VtryV35OF684FupLsTzAc5uwbV+vPE148wfEboiZ9Epd6dFUC/MaiAVwNZRoRXl9RhaBXTSSzEAk08SwEQsmtV2K/DyxSQk6tCjspIAIZauVpJsUZqLMKXAqH4mGwoFx3rTjN/7pP667cHOukyYynqIPb5Z0R51o5MiIroBLCMmqw0UgBFST11GMCJ1YtrB8Pk1qcxbpaAbd1dyAsgao2klrX/zAYrZAWQCSsUIlCrYYhxKIorhSG3cFASBnfOAcAfvdh/C1S+/+BVqzZk0FMgo0++67L+5//72xzz774P733xt7731/3Pve98Kuu+56t3/nunXrcO211+Kaa67FT37yY1x++Y9w+eU/wo9/fAWuuOLHWL9+/Xa1NFYuI4zdjFkS/UR0uQSupS1xLamqYdzXWVyv6uRmAM/dZSULwIQrkGH7HIK6CHO2YmFb5rLaiRlsrIGlWNMHZSZRjRrZzKxI11WXGEcGkC6BSWkTjiLUF+uXXE4TjSTHCpsp/fT3UUTE+fOM173mI+u+sSXWSgOiR4AZ0ZcTCwnZKqicWtDIpX+okwns0BGoYbC41qqLpjPN6c4hD0LkNkIqYTPUZykMRF2RVKZwZ+oxcQCZu40jJFGlwIIbjWUIlqU9VNms0/klV6buHSh/jly6xg+5F/C1SzfP371mzRqsWbMGX/7ywq9577F69WrsuuvOWL16NXbZZTW89yAi7LRT3c584403IYSAm2++GV03xXXXXYdf/GINbr755mFx9PQUGYuos+W1I1QlsFiXVgn2m6T5JzLYU2YC1q3DOj7c6fv5doCETPmKDNjVYNKbkFf9xDgLcywpjSyaRwgkJa/ERjjUOknIvl4CKqEEX6mIH4S9RAa6SHkCv8tiP0k7MLJAz0wJUELSS3L+StKAYoj8Bee6173yw+1/bsm10oDj/exFYEE6IiDERGXJpRNCITGXzqglFFI3IXm5cA45zYw8ELr05HIi9gZdaJXAn4RejqUUVgLiKnOd1POOOs96g6WyAWTuuPxlz3WvtuEc0MklUHMF605LOV+HstWLM75Qy+cIe+7C+MWvtnx56tprr8W11147XOBNdOy0vJRB8/1ncUQtSmRDastF2bIdRUglrrvIUh9SevpXFY0N3cuzrKDspogskNXrO0aZP1G7Ivt91rOLi/CewBCmFbiI8xqOFWNhIWonHzspY4Vi0TINBQi6LoFEJ4ARRKhXjUXBJJis+qDlLzZDkki/l5hiAH+hacNrX/3P0//eGmulYaIVLH+cc8V+wMeUccBR6oP5QZOWQAYWTlYdEUmwd5wuljMW62qznjMIpJaVfx/SXIydnOSy4rRkmz6MXBY20g7ZMh3LZAzhqZIOB6ApaKL5KiwTaWREy3TzqXgq9XRK8wmeymyK9XLSoTfVYPbZg/CLXw0nfFsAFRWtKdZzapR3+2XoIzIZgVuf5gwmBrMr+kQs2l3+GeCcX79B65ZY7meuXlPWb6XBW3qVWQnlJ3LJKjFivIIlaxeW5MGrrtHz8srsIpQOrMRAYp5gV4DpAqXgK3m+tiLkd7kjrEzNh5jOXYhsylss+omWwqgLwCddE//iNWfMb9UukQYRjolAnrN9M8XEKEDCTGJ6qJBLJwLM8LqAxCPftQz4pNM7Jw+pyNn1FlhoNMemxAVi0zFWjOd0dbC66vZLZcYDgrjeauuH0egyNMt3aHsDGhOUZFuK2dTIk17G+aGQ9TGo1lLmEXJypNhzOHMB7r16QPFt4dhxUlrQWbq1Yu4eVMwwU9qZtSB7YLHMvUHy1KPYASlTsFntRJx1Xpj7twIIGP+6GQzKzpj0iEsdciIPZpickwJ66cEPM3TYF+IVKDiXtaSlNwCtlMS0BBbErDHnvAeS749oxZU4hFSN6ZQFsTIWyjqVuhaHQB0T/g0cT/uzj5Wc+K0KKiHyWvK0kqVxy0WAfQIVFeSB1C7cBbkQDaV/sU8qW2RlKcp2OIu3IC2PcH7oK8g4p4K+lL+QoosFLYwfFeX6voKPLZWh11lGstDLQ5DM/AwW2m0ztq8mAPtvjVxpK7FXDigEkss1gMlZ4oVeTvnrBOy8PLWhT7vhwbyUjx3mXNmQoVQYVGdBcSZJU9pID172VKbG5aHJLv2fSB7gHvLwKaaNVanMYgDKumSuy7c61R7tUtSmIwUP/SinMRpmkifkizGkFd91Rk9LVNrqq3nwUfLbNS++y18jdB1J+FVyGGZJV+yishhCZJc6w7iAFZCeu6p7Bp3QTzhzjqP46td+dHrZYlorDTNdGYEDOCZ32uAABAKB0TlCE9OuoQOhAdDBAS3nsUmOCUzgGOyA6KjavZIT4R3W4TiVUKKp0wdtK4zIlvtpQJ+E8chrrBZj2hGjlmnMzrq4oWpqmmmfneGKydtR6aw/ScyyeySe4e2k8a/afJFFFy4CrW0LzWw07Wh3W0W4+oaBrSxpUBkbA0UpCwXzUI5MiYmIJQmzCvFG6I6pWYe13KTmtcpIdBzBoZRhDYBZChJnAY6JNAa4iPG5+aiwkRKsxdUMShoO5GqIUSfSNQWR1UNLbOu7mDPb0QXKgNJ16ee1kiPfZlaD7FacQIgQIFG++ntYfL7QjwQGGHRhy/SK0/5l3bcW41ppGPSdGPkAR6QIKBYd4jkjtSf2ib428tSNctEan8TZGLl4QqG0m4KpuJWGVEIj4rR+pGYfXcnzUEobqX5AuRwiJc8zBQLjjsqmAOtMWzP3gWYGo9EXWEZjWc02NTPDM98FQWNJYYTV0gmjO8KoO75YR49bpsIGkPZYBVx9w/BgXqqHJ2BuRLUdia6fYFw2pKWVVcyOZGbcks5CzHmOxcmUeowmtEvr1bqxiToozX3JBCQMhKsFVwk91ViCnTMBSuwusuBdHIM5T7EXN+EyL8JF/4hI4MHy/xDQhQIWXZfYSKfW9pFyeSxrJpKuWIwi5bxp4BbUGoa+3c7z6077xPr/WMzrpQkdf4pGeF40YhoY4EbJSNkmEBhdS4geaPLiSeK9b4QJhNTl5Y3vdU6KNLqKtiWrWOxsYJQBGSv0k6NsH6LMBvK5atiKqJjOKKXNQLOwgyzmORjDaJz2298Ji5lFzmRmtWZn0VKvJxdtjU07v/bm59kV7gU00cKymAL9yh0HXWVpl74ol5XYxOQillkUTSCEut+y0VGM066j0iEaZUPonVjGayYL280iL+xMzGuL+yp9npGJC3LiyxhDivyVkYkYSzQwc9aDqun4WKcpBgmwSkBSymFBUhS71jIRCdmKlBhJl+zoA6eRjE42cNUkvaREBqiDMH4QO7zutDPXf3YprJfmee+eP/uf/mTux87zA/JD0gHcpS2K41TiYEon1ruYHrRMIE+pHVi6FRqfsuspUGEf0o7sFBQCV+lwLncPcQGbqDMQ0gHiODMF6ncc9T9n0MXBMp4aaLhiNEWfyYxGXhzz4Kau6x7IWBFxkTMZttqR3H2cDd2oqkszCx2J5Ztsu2gkiyec3Wetg7Wyzh0nA6As5WPFXLmgURcQqw4gQMLJNiTkGQvKO/uGAQ6EmCsU0kKspW9ObhzOJR1G81msvVOfVvd1FNvpFSu2YvUSMsOMMTf6qE8XuFirQMpfqTurRPFqRkmnIBNSemKQoUX9WtepYJ/YSQaTHN9LZQhSclCiML9OWVTEr6eB3/5Dnr7tzDNzA+7iBxUC+MNdfA1An+AkduS2XQBgLyWQLvl8MWu0cAITEOC8lLRiAg5POjCXLrZzafU4YTEkDQHanoo+g3EAya5GBRN9P4ETZ6BwulCpX88v5bLIlFlRBTRI4NdnNORM4BCXECs2dvDloUm12ykvAaNMI0jmGy+afn7JbQhaBtAOHi7lL+q1XFrQ4p5wu+NkYCpL+ZgbFxt17drSrUayXRf2AjvhnXbw3iebECeNOhyT5kBwecjZiVAfRSNlQ3edub8qfCHUpaxq48RFo6mif2Mue0nsuqx7yqyErbmjsizb6aXaSRbmk44SItC1CRzaLiYmEoBpK1P1DBHqScR4M23P0gGmpefIbYju/XO87vVvPBM3LbX10gDAC/5u+qkzTp17vyM+CVIeco7zAyMSwTdJQPIEOLG6J5dajn1kkCQCkkuIGyST1jmAxNLFZeAowERGM3Eu7Wbg6lZVMsARHYCg8xDFcyyVt6TcRqgG9AjGdTmX2cqC6zMahGJTosCk4r4VBVNLLpuSGBkmtDgBpvI1QhFQkaNROYv2RcxE0Vr0+6OZSjZBPDmPx/w+7wdAWdKgMpJBP9lwcnbKRWkfDuXjEJN5YWxccd7V4Wex+YnaWiMzbiCJWNARBBmojRwrna4q54r2aucG6mpYlDWqz7JyY0aQWEvJ7zCdXqmtV0tPsYAJM0Kr5o6GmRhWEkIS5JOGgqKhiCGkCvdBMk84UkpczA7H9O2A+KI3f3z+u0t1veSQrhe8e/3JZ7xsbhyJX+BFcPO5Jz2VwxwRouM0Rc3JA4x1Ufj0eic26AiAaxLVJSSLdGSvqLTt8FJq80QIDnDylEpifwI2CzrKaJyyImkYUOuQKO3LUfUa1IaIsGBjdQajMlstJ6LuNlMQzCtcamfFm46r75sJMNjyGszClkyuTP6sZpKrXjEHpKauHU2ui6h2qgEmEqEn4qofkR8mTpf0MWoos4fscZVnThKjVcGZvQCMFxNFTwhdupc1WIp6OpyDud/kRiGXJux1kNoGBOp9m33FOJpKgtjVV8mM+n/TWsyxCtLiYLQhmQ0JMea5lMJKRE+R4cUuMNqA3AXWhuQi0ga1W4lJT9F5lOxcTDIZLwyl41ta8FtH+86/9c2nIS7l9dKYBw/z365/4QdOnbuawa9xjBEIYBHC8+CTBnKpXsIimnMR050EOdGUzQS+GA46SuxCxXYHBCrswlECK83woMrMUGxhnAEGBRmdCPdcsMOVtavif3+OwrIZCzDFDHPh63P0Luu8Dc3QL0rPow0s2+CE8GZmJ3byuWIpWUjl3LKo2RFBgoRK4JCZN2Cq6AjzbHBhsfAZjqV7jL04a8RUKYhANjjsHNDE5I4bGWhjcqkNnUPwDBeAjgAXig4fHQqzYJfWiAN8bv5IgKIzKwHGVQMmi8WgjAJSNFPmJKU65K61tGADcynnRuSu15C71srazyAQSjtw0kxiKnlJp1cXEjvpOH09KHvh1AHWBiAiiuYk5wvapkxfjYGe81efmr9yW1gvTW9Hy3j3+jf+wx8v+5xr+O888yN1/iNllqcpa02CdNoRZLUNRmYqnii3GIOSXb4zrcPep7ZCkXLADvBSj/LKdpy0JLvCSEhBRjrLQtZBTM4UcW5ZJlfqMc710udchoik7xjRX1+vJ8cBVbcZixdZDKUGXGxNinEdGRTR3dcG9ZdNsamf0d1FWWTVJgQtY3Du3MlmeZIFkcuf6lItDQ5R6r+5BIJiE55bjsUGQxpshmMJH2nG2ViEaFKhxNgGKRd1HTDyaWo8+KQfeAdEl8pHjtLmEi4NQFIgOI6IkdLQs8li4qoyQAvKX1ZJYRlbiIaZsFBlls1fZOs4XLrAYs9yBdqBpUDC2t1VHIbbVspc0vXVSRdXF4WhdCyvV1CSluFYtBP5nWtDxOv/6hPr/2ZbWi/NrE+e9J513wTwqNNfMjnOe3oFOT7cMTunw4csWRqyc3EGCFwsJaRg2oU1a8PJYnFeHI9d6fpyROiIym6GzNejDkRSntS3OR+qrWTAcAIwjkxrcnpgAsUAE6a9OZKAW9Z6KLdB5pmYaJlM6n4rP4OK9TdxaV82pa+oTqkz3JmJZobP3XlM4Xo2R0sCAIy/ERVxPtaDXspYitMq5QGsYKbuVWfJdtyyg81+SdIVOO2G0tdSPtQIttFyd874IDPPQbnFtnGpBNRJGiiZiCUaJS+shoGOU1BX2lymn+c8w7pu1O/PFggZbDZPha1ANkCKOGrBAi7WK1nLyOvbugtrWUun4bmwky45CHctJXBRg0hhMiEk1hY5gQ8HQoeiQbWB/7MDP/ttn5z+YFtbL83tffGP3jt/NoCzP/Cqub3b9fxcRzjeOTzUEbw+gF2UbiwdWJRSli0p5Y9Nq3ABm8QWHIpZpXMJkKClMpPZkX++M+WyYEBGcz2CPNCluQBm5oWICouhtJOyeooFGoByeU7FfRtepTpRzMjQG7wkE8urGgxlyzwBKjLxzbPF/dsFnJ7lt50Dq4e+7AQ0V0NrrFbamqMdSvSpBZJKqDWdP8GItsEMjjEDbTtoKksaVMzckrLQDowmErpAaISVhA6IPnVDOSl9edViiRGkDAYAwZHUuwQIdEPH6rqBsttC715AHegXo6kcsO1CZNlQIZe7ooj20Qw4ciwlscwsrJVKiGZiPn2tlWHHThyH21gApROm00a1u4dhRIgt450X3TD/Z+edh23SvKjZmBe96B3r/xfAmwC86R0vxurl49FxjugJzvERjmgPL61TzojczpakqGc8aB/cLj1UvQENisVWvUznS6KclMpU6NdZmPzzuqJxqO5jy2MaeSwsPC9M70rd1lHSeWzLc7Q+ZlxYEmDyRsiIL6aUppQeUab4rUmMzouoL1qPYeSxgNubgYmo25pR31TVx8YyW/vzOZScCA0TQi51ieV39iQyZa9QdqhR20WNu6oC0bp2AJSlzlRiBIJjeNl4oEsfR07eVI2P6KJD1wHORfiQGmY61USzvb1scmSnl+2BwGBHqYXYlKdzKZp7LiymtKvApOwZxoaFTSdKUJt4NYpkVIw8r/OsqQhQmICtrJ+EVPLS+ZPWTNV3wk5ib4MVIt/EES94y6emZ23L66W5s9/wqvfjl0D7YQAfBoDTTxrviwbP8A5P9o72J5LZJSmP5dmSPphULcNp8aVuYqpyOwqwcBbo1QKmA8mDvxd7S8bQ0hX7djLAZ5lLKrsVhgULhPo79d9ihzTl50TmbCOTbftdz17GlMy0FqBTw0pK8s/hYuuf7cYXWHyjuvmKKaaJajYeSUmMpCo/W9M8FUhCbgvVPvxS3qgYCesAl5ZCSpkgGNtu/Vk3rx0ezEv5KGmD8r7k7PhcLk278UYczZsAuZ/STe1aabwhB7KLmZOuGgPgG0KMEd6RCefjSqA3UwAbKIOhYuTqFJE1FQmwIubMHtRTK2obNJe8+M6Uu0Isg41tSOK7enfpvdB/nZZ/JRb4Ug705LecNX/FNr8J2ZQ/7H3PXXYvWh6f5hx+1zk+zDnMqWheAQpQWbAssHBBbZPvYIGo5LX0H+6+Z8cO8zMIhfWQ6TRD37pdwYiNBiS1Ye2rV6sYHfTM0//ZRcCYahpNBwYAYYKt2ICegoRtnewPfS28oVBNyhvvx2LpzZRvItgoUh3I0lwIbZvsgC4QWqH466fAtI1oA2F+HljfAetbYH6esK4F1reM+Slh/RSYb4H1LaFtGdMO+M5PGD/42fBwXqrHIx7g8cA9GI0HmgaYyP/HDTAZEcaeMBkzJh6YjBzGY8akIYxHwLghjEbAyFP6Hk/wPuko3gONJzhycJ7LBlE9A3MTjW3Hp8LsuXdjSGejAkce3BXbk7T0BUiQNk3lPlAH4MRMulAMJDNwdEknCTKHosJ8DDp7Iu9bdsJA19HH5latf9FpH8F2kUHdbMofdvI/rbsawLsBvPtjL8XKG9eNnto09CQP/LbztIL6ued95hJKZ5cLSfx3ZkHp/AoRSrlMNA5I8wD5emfjNcaYavfkXB7rARiIclkNVLrFAhUrCRhwCs4Mdgb5G6UBQU0zc3a7ltgMeLKr6QZnK3maiRnVJ3uTxhqqxb0gIjZGeRrww9nLCCZoyOooIkCamnC+wSDCZEe5U0Y7ZIJhKCro3nTbJtFU1gL4ORHWMNNVAK8BcC0R3QTEWwGsJaJbu45uAmgt4NYC638N4DYA0438HTsBmABzOwJxOcCTpuFVzDwHYBngVjFjR4B3BXg1M+0GYDURdgWwGsCuAMbb2kMiqHuuaG/BE7ww3uAY0Un3FyXXDNeR3FuU9RFtRGmt5idA4FyAi5TvGY0jp2A2X5JnnyfkrVcfZ3N7Y8mCKnQrKuB06ZVBZk+yiaNqKExFkLctxNLJpaK8spEQkmCva79TrTEAgRE58v9961nzb9yuyqVb4pecdiSaVb8xOXrE/OzG8zHO0WqiOh9FBXoyukZV0nJlALJKHHTFL8xJhDGYc/eXM7MuHNND31lWYIBL39fuNKAwEO9qZuUg7dKqmcjXfc9uxkurpLYjO1c0H2U7dqamzLzYORcUF2XU/frZdYuLMSZLC1qeScnTuhDDP9FKdHdl0utC4Nwi2XbJHK/tGNOOMW0J8y0w30EYSWIm66eM9S1hvmXMy+fn25Sh0naMs76RWM0dHDcS4Qpmuhzgy4n450R0dde5a4Dp1QCWSmj8CmCyBxDu4T3fm5n2BHBvZtzLOezJTPcG+B4ARkvlIXHAfRweslfydGp8Yh3jMWPkgFEDzHnCaEwYe8Z4RBj7xGBGjXzcpFbj0YjgG8bYOXiXLFy83COOWOyeTNibo5wvD5Mm2/dE1fbiKhY4D+smEMkdi0akD5rYKJYtuXW4S/dHslKhFLSlQJKt603pKxA6FJ+wLgIBtLaL8cS3f2r6b9udBrc1funfvGj0yMa55/iGjyfgPrblNwNKj0FUgj/Q69JaCEBk8j2c+dms5bQFLcWUy1xV55pqOt4K/YZdCUg5p24BBPI1mJHsvpyYY+bZG2NlUwFK5WVm8mOAGaBiPo7IQTDRdnv1biT1Oio7tPJ+EFuJriW0coO1HTDfMqadgEoroDIleZ9TKawVoGmT59G0A351C+Oc71SXvwVwKUDfA/CfzvH3uq77PoDrt6P7zgHYA2j29p73YaZ9ANqHiPdhxj4A9sQico570D0JB9yHEqA06R4Ze8K4YXgPTJpS5ppr0gT+pJESmZS+xvK9TcNoPKFxqQzWCKho16atKGinJST1VU0sAI0eFoaOcoOwGESS9ShjZSGyqUJh00HNHTmVfAMXK/sQS558xVpiYe2tYSYl/hdr5ike965Ptpdsj+XSrb5w3/6C0SHjBs8gT49tHPYDZfkid15tiMEUjSZtZ7zRJKin4cCZnJf84GZTCivgpDqJDjE6V8R/CxZ6A+gN4eV7nC9zN04yZvRnqi2Nc1yGOKtZGy3dUQ0ufXG+F8Maq0xuzj5dNiQphQ2xsfYGYldKAUH78bvU0dN2jK4F5kNiKdMOmJ9CQCOBhwLKtC3sRVlK1zF+dC3ddvEV+ByAb8TI3wS67wCYH5SK2z3mgPHe3ocHMtO+AB0A8P4AHrI1ymt77kw45EEJABqX2EojoDLywNgDjQBJApEEOqMxEltpCBNhJaMG8A0wcgznHEY+rf3GAItHcvLw5glFvfetC3beYEndK5puSC3DgnWGios9ig70BlO60iwUNo7CRjPRFuJO3AMUcFi/FnEZz7vH/79z1l21vS7eReWje9pLsXL5LePHNQ2e7Bwf7RztUZXGwBtkJ6jAomcuiRlsBuUh77i24NdGAWeZkdfshyLme9FwvPwCBRbnJLCMXHqdFwDS3VjelSGHlpF8P/XakHPpy91+dItaV+Q6MspciSbXZRdWRgUsoRM7iVAys9s2dbNMW2EqnYCKiPDTKafSV2Yoibms79L3Trt0I7aRj/vE18LnBpzYJMcIGD/Y+7AfMz2UGfsT8f4A7b057+WddwSO2NfBOS1/Cbg0qeQ18qW8NfGMUUMJWEbp/6OGMWqAsXfwjZTRGgn4cwmsnJaGUTN77t3XSk1yVLiyEfGJyrOO+vlQgudyB5vpzMqdjKb8FdRupZNOSEYl2OfOxzyTogyFL+7WTZ/wrnPxq+15kS7qHMN3/OHo4SD6vYbpSPJ8kCOssPMhThyN1TbGdk+5HmuZCT4wti0CHJkdma8VZgIzHyM6ijgJ+FzaKgzF249lp0ZqvKnsxBdwcdXwqNVdFu7U+sjCNq8o21FQZU1R5WznBDtpA86pdOq6mjSVtmW0XQKLqQGQ9VPGfEeZucy3wHRKmO+KljJtccP14+4e2+qQ1yI6lgOj/ZzDwwEcCvChAB64yZCsAY49MIHKSDZJWgJrPCfNRHUTTxh5xmgkX28IYwc0I9VgKGsp6WPOXZTO1V2duhEz+6oq/dWaTBKXELEcC4wSCWRBRafoQ6hE9QQiEIbCJW8+2LZh1VR0sFGYzpTxlevXzR/30f/Abdv7Ylwy4bhPfzr8I8ajR2JCT/BEh3mKjyBHq6x4D+kus+ykDyL2cwVsOD/ElS1ozoO2Mfd1HJ+F+MIqvCszNORSC6YjaZ8U7zLvKXuiKfiooJ9brxWIbK4Eyt9t240tU0FfoOfi4RW5TPWyxpRKoFIQsTGw0PwWmIaUDzENhGkAplPDSFqutJP1oqXMC0uZbxWU6IxPXtS+cHjmb5Vjtff+UGY6lBmPJsIjAay4qz/scQ912HEMEdiVqQAjl4Bl5JDKXZ4wImA0UnYCeO8wbtI9kMAngYhvRFMhwHkuoj3MRsqWv9kYS3JhK1EacpJ3l1glxTquIeqwYyzAoi3AZe6KM8AEaQ3OH3fVzEmZlAfQdfzJW38xfdb7v412WHZLO3Gd/vJ5o4NHRI/zDr9JwMGNx17gnjuxaidaQrJMBkXAp6rV2MyeWDYjoOHVqsUVjcbJzUZEFbg4ARQFEi2PJUBJgEMCIrlJwFldp2ZhzgxBOlpoyaITy2XXVjpctAuMmXIudmYqufMreXUlxkKYjwlQVHjPTCWXvFI32LSl/Jo2MNoWDNDBZ369/d5wmy2KwwPj/ZzjRwN4tLCZB2/sNz9iH4d77JzWbyNrfSSbqqZJ7KRxRZhvfNJNRqP0+nFD8C69LpfAtPvLp4/JpWjhwlRc9v2ym7rcXWy0RM25L/ENXLEW1VDsQGIyRjV58RqeFRcyFCPCZzBJ9iz0kb85e/2JGHyItglQWajJPB27NMvGR3iiIx3xoc7hYY4wyf/QbDKZnsClIcAyGa6Bh3qpk2Ss/TOgJGDy3rAYy1IUKHzSYbxPtL4hFlChDCrOfG/WjlzJh9G2SjKT+sjRxyjTxVx2aVoCi0EiS2NhKkV8VD+jJM53gTAfGe20aCkWVOYNS5kKS+k6YL4TYGrpy2d9s33scIst6uOe3vsjmXEEQEfeHsjcbzfCvns5eGEUTV7PiY24hhKICIsZj0TYbxKLUXG/8ZDOLy7vZy1SRHu9L3ODDFVOF7n01SuDRTWO5OKaHbKjhIIKVwChGS+WoXSstve1ZpK7wIT1d607/d3/vv4lA6Bsw6AyA2TGNGp+q4E7nB39pvc4yLm4mx2OtK3Hqs+g31bc60KztjNEZV6l1IWTluK15VgBQ24efSPP8I4Ke8mdYWSEfFS2NanBgGdfvBIfXgz0xKoiz6qoZbnWhGMahGy1VTIA00CiiaSJ+qm+tSwiPbJ2ot1erTCcVqeOA//Op78RzhlusSV17OG9P5yZDiPCbzHjYF1mc2PCkfs6OEpgoGt9pJPxTtiJgoV2iPmU/OlV4KfEbBzJ9zq9BwzD782l+V7u0SxzSe4NBHNMBpY5B4YLyATLXmKPuViNJRYGEw3wJC3FvedvP7fulGHJbGegMut48zMm92cfHwtHv0XAIc7xA1W+sPrLLDsZO/NSswidfUk7qoZKqazRTjAtnRnKr6DjMxCVXRtJiWxB+3LPC6mY7CWun3PAFWdMbTkC2a5C/Y1yGp0ECbUy9Nh2BlBEY5lqO3EW7akCnE66xqaBLvzMN9vDhttryR97JpDBYwA6/JAHuP13XkGJbQtbcabNWOdOGimFjYwVy0hZeiOvd4XFNy5pKq7amFHx3UNv8wfpCnOaDVT2VDAMPVhNBUCUri6Yzq8QS6aQ1UyC1VpM23EEMO34be85Z/raYXkMoDKbzTwfO3Xrxkc1oCPJx0c74ABymGADoDLLcTlnvsDoIZahyA3QyI3jVJA0ZQSnQr/s3mwHTBH/i1DfFzP7hMWWALQTJsRSCgucylRRdl+tUPu2TR1gqYMrgUkrpa550wHWdsD6jkSDMTpMQOwCHfLZb22fg1/b8nHEfqOX7DCm96R1zZl5N/p/CyyusBOdnh/JPVDYuil9SdlMWb52ZjrZPTla2AGpw8y66DOosGkpNqyE0XMO5oUMZcHn+q8L/Na//8L0z4bVMIDKnSqZdWgOA7nHkecjPeFgAJMFbMWI6N7Q9cxkjG2LlrUsY9EygsushTK4UN4FFhByJnhMJ/GrBMtqtB5ZxGTZppX8CM47MI4FTEKXHGZbbSXuDLBYxpLfF5YiXWJtTr2j0z/7rfbkYSVte8d++2G852j8oxHhPq5i34mdZ7DI2glnsNHJ+SLSp2Fl3y8Pk23h59pwdgGwUG3ZYoAEED2Fi6ieJ+l74n20JTCuAYVZSsSROER+/Xu+MH3LsBIGULlbx588HcsanjzWE47xxEc4x/tS6gou0/mmC8zOtFh9RW++VB5LVi6NshbPGYAy0Gi3mLGVAXiBuwBLzZltPRni0qoCvklq1JurE4fW1OEicaidWntryYtSW3FXNJRpm0pj01B0lPJ99LPJDu1+Z56HW4eVs20exzxs9ByA/okcoXFGOzSsxZnyVuO4iPrKRpy2EnNdCtYhSCz02gNqx3GYEjBni5ZeyReanVKSSStQMQaQbNmIAo68noEYWrzqvf8x/65hBQygssmP1/4+du7mx0/0jONdw4/1hJ3JWsBYodGVdmMFGCvYOxn6Kp0vafdWgKWU07Qk4E03mN25lSEwUwKDGQbLgGJ8jiQmWF1YVU/ptOxlmUqrYFPYzFRakFMwEdrQ4qizv919bVgl2/Yz4+iHjb7oiB6bdD6dxxKWQjV4eNk0NVSGJpu+vihdkLk0TKbLUjsvXXE6VjDJ5V7ToKJZ9UlLkSRT1JHXdlalyonph2ql72sDx5P+4dz2w8OlH0Bl85fKToO79bvNUfD+Kd7xMZ54HzIhYn3X4rKr4ww0CVQIrkGetPcGgLyIlU3foBJ1CY5zkBjnYnOuI+coYM2MoLwj06nhVLoSsX5WCSwkvUXfz95gagXe4dVnf7t7x7Aqtv3j2Icu26tD+J5z2DUDi90sVcCSWHfaKHEukzkzm9KY79GSl+81wZShZSol3wVHSqKEXfeFbeR4awMYuSOM+yCT7pfb2g7P/MCX5geboQFUts7x8meMf8NP8UzncEJD/BBYlmE7W5x9n6vPN1Qcj3WWxfnCeqjXdpk7YnoTx3WmhNw0xvso9GwnFFS6ULOUVoFGvL/UvqULXPSYQB8+++L2xGEFbD/H4w9oDodz5xJhTptWvKtdJbS7saEiyjvRUhpntEOqdZWyGStOFtWbseumnK3S11Uol4KjFe97WoplMcHY44fIv24b96QPn7P+/OFqD6CyOADmKaODEd0fjpv4FAfskctYVBtKlnKY7QzTeZV+GYwro8tqF2euZu7dl5stmrpx7LVNKktJuRGckx4LmKT41NboLQooKR0SX7hleXfc4O+1/R2Pe+j4qZ7wLyCMiSivT+vjVbEQaRXWLq9KS9F7Qwd/UfvtFZsiLkylMpWkXPeNpvSb31CAJYQCNnZ+xXSKXeoIT/qHL87/aLjKA6gsvhIZ4G44rnlc49wLmgbHOfCOzoR+5RsrC/mllFB2fFRrK1TKBP0BzqrFckZbZTTAoul1Go0agi1tCWvJNvimVNaxMpQvzV3THnfmVVg3XOnt8zjmwMkTmfnjRNghuwuDq87HavOUy7tUyrzegMosJm5aihdoKqbrMbNzoStqVZTnttiI8vr1kEpmeq900Z3V+nXPGYwhB1BZEsef/h5WzKN5sXPupMbzAz02xFqMsO9humGoznPR3VuVOcFVJ4zdjTGbuFO17jbRqIWJpHJX/3OdSbtrAz512/Xds8/76faRuz0cGz6OPnB0oIv0KXbYu9gLFW3EOyxgMJ6KkK/hdd6U0WwSrJ1RyeUvAyyMYgIbqxIYeiWw5CwRqS6FyWsDd/x/zjhvetpwRQdQWZLHS45pnjCauFNHnh/nHJpKazGOx2rnYssB2SoffV2F6/z62K8pk1hNmOjUqMZ4hrUETX00oNPl3G5uO/qbz1/SvhKD59FwyPGk+2Gn21ZO3kGOT3QAkTIW0wHpZ2iLeWBY0lC9SyUu8rUdEnpt9LlBBfWcCvqlLyqdYDmsDgTEauL+8jbQiz52/vqvDldyAJUlf7zi8cvuPR2Hk8eeX+gddne9GnTuhLHiJdVpmGQih2F2aqgAhStNJbuvdiV4qAuFndi3EFlT7W5dH90fnXPx9J+HKzccs47HH9QcztF9wBEeRFRnBLl+04p15M5fJ2N7lOat+vMqlp3n9U71ukcGkZ6pqg5GJov8Lgb3Xn/lutd8ZGDcA6hsa8dpT8f4+ttGz208Xtx4PMJ5kIeZd+nVnFN5gKsac5UGybVdS+xPDMccf6r6SC6D2dmVLiRX12lH50f4Ez9/8fqfDFdrOG7vePReWLbj6vErPOjlBF5NRmchiQsmU9rqO1KUyPDifZfxxL6vS910POo9EAWMYkTVYgzk9vpvYoQX/9OXpv81XLEBVLb546W/O3oYmF7ejPipHljRBxbSGrRcQQso1Qau54OUvY0qa+80s9KGOpM7RtbS2Jr1gf7i8xe3HxjKXcNxZ44j98PyUTN5sXf8KgLdU7u3+uBihxy9tUOSXCQNriOup+tnPcyYAXZl6NdO2csm6ztdh7f869ennxiu0AAq293xqsdjx1to9IejCb1wTHxAToUEV1HHuRygk8W9G6nfOpmYCuX0uhLShRzeFQJ+1Ua8Z/2q7m3/MXTCDMfdZC6rVo+ewYQTHegwEJGCC8yAsG6SnOt57Mm6Vksk6j/AFiSglpJYdpRgXBI8/eXHz58/e7giA6gMB4AX/874gIbj81xDT24IaXJfc1VoYW693lz14BfVNhRmVqUEEvGlbYcz1q7qTh/AZDg29XHMwZMHUOQTyeHpAD1A50682RwtjJoo7CTHabuFRqr6cU5DJdzEwZ0FCv/wbxe23xjO/gAqw7GB46RjRg+D4+O9o8d6wiMdYVn/SlaDX9qbjwIosbATDgGXdxGf7xgf//RF7beGMzwcW+I4dv/J/eM4Hktwj3fAkQRekYd71efLmbRT1FHh1bAv8pzW/0Z253Pksy6/Zf4LP/gBpsOZHkBlOO7E8fSnY7zq5uYQ7uhg5+mhcLyvY+wK4hUArWDGDgzc2gW+mSPdEoGbmemqaYiXccffXTcO5599Hn45nMnh2NrPomMOntx/BD4gMPZ3zh1AhL0AXknASke8EsAqIqxzhCmDfs1Ma4j45wz+ETG+2wX/zbO/ve5nw6ncusf/DwhSqLZ+p1FuAAAAJXRFWHRkYXRlOmNyZWF0ZQAyMDIzLTAyLTIwVDE1OjA1OjE0KzAwOjAwy4DgKAAAACV0RVh0ZGF0ZTptb2RpZnkAMjAyMy0wMi0yMFQxNTowNToxNCswMDowMLrdWJQAAAAASUVORK5CYII=;" vertex="1" parent="1">
          <mxGeometry x="1290" y="1540" width="43.18" height="51.18" as="geometry" />
        </mxCell>
      </root>
    </mxGraphModel>
  </diagram>
</mxfile>
